<?xml version="1.0" standalone="no"?>
<!DOCTYPE svg PUBLIC "-//W3C//DTD SVG 1.1//EN" "http://www.w3.org/Graphics/SVG/1.1/DTD/svg11.dtd" >
<svg xmlns="http://www.w3.org/2000/svg" xmlns:xlink="http://www.w3.org/1999/xlink" version="1.1">
<metadata>
Created by FontForge 20170924 at Sun Apr 14 19:04:39 2002
 By root
(c) 2002 --- Kurd It Group ---. All Rights Reserved.
</metadata>
<defs>
<font id="Unikugor" horiz-adv-x="1139" >
  <font-face 
    font-family="Unikurd Goran"
    font-weight="400"
    font-stretch="normal"
    units-per-em="2048"
    panose-1="2 11 6 4 3 5 4 4 2 4"
    ascent="1638"
    descent="-410"
    x-height="1062"
    cap-height="1466"
    bbox="-100 -999 3283.55 2285"
    underline-thickness="128"
    underline-position="-544"
    unicode-range="U+0020-FEFC"
  />
<missing-glyph horiz-adv-x="1536" 
d="M256 0v1280h1024v-1280h-1024zM288 32h960v1216h-960v-1216z" />
    <glyph glyph-name="afii62834" unicode="&#xfedf;&#xfe82;" horiz-adv-x="1160" arabic-form="isolated" 
d="M1162 1020l-66 -152l-35 28q-23 -290 -135 -494q75 -133 75 -254q0 -41 -10 -97q-15 -77 -38 -84q-131 -42 -331 -42q-55 0 -115 3q5 58 17 182q166 97 302 276q-182 245 -368 416q-40 -74 -58 -74q-24 0 -102 86q-86 95 -86 158q0 39 17 89q23 67 57 67q61 0 218 -158
q114 -116 190 -214q108 -141 190 -278q71 162 71 352q0 136 -35 302q50 45 94 112q39 -146 148 -224zM914 120q5 23 5 46q0 74 -57 152q-79 -120 -180 -201q69 -7 123 -7q65 0 109 10zM664 1413q-45 -137 -131 -137q-53 0 -157 22.5t-155 22.5q-41 0 -94 -50q-11 -10 -18 -6
q-7 5 -3 22q9 43 40 80q46 56 116 56q41 0 124.5 -22.5t128.5 -22.5q87 0 130 52q6 7 14 8q8 0 8 -11q0 -5 -3 -14z" />
    <glyph glyph-name="afii62835" unicode="&#xfee0;&#xfe82;" horiz-adv-x="1212" arabic-form="final" 
d="M1242 1h-60q-119 0 -174 122q-35 78 -63 277q-169 -383 -297 -457q-27 -16 -166 -33q-155 -19 -294 -18q-87 1 -87 16q0 16 81 36q170 43 246 72q126 48 229 134q15 64 15 130q0 314 -274 584q-45 -63 -56 -63q-19 0 -88 89q-76 98 -76 162q0 40 22 93q26 63 60 63
q64 0 215 -188q125 -155 176 -252q100 -191 100 -371q0 -96 -28 -181q104 100 144 220q34 102 34 268q0 60 -6 194q-7 148 -9 232l94 108q16 18 21 18t6 -24q14 -449 16 -494q15 -345 44 -471q23 -99 112 -99h63v-167zM654 1453q-45 -137 -131 -137q-53 0 -157 22.5
t-155 22.5q-41 0 -94 -50q-11 -10 -18 -6q-7 5 -3 22q9 43 40 80q46 56 116 56q41 0 124.5 -22.5t128.5 -22.5q87 0 130 52q6 7 14 8q8 0 8 -11q0 -5 -3 -14z" />
    <glyph glyph-name="afii62836" unicode="&#xfedf;&#xfe84;" horiz-adv-x="1052" arabic-form="isolated" 
d="M1052 1020l-66 -152l-35 28q-23 -290 -135 -494q75 -133 75 -254q0 -41 -10 -97q-15 -77 -38 -84q-131 -42 -331 -42q-55 0 -115 3q5 58 17 182q166 97 302 276q-182 245 -368 416q-40 -74 -58 -74q-24 0 -102 86q-86 95 -86 158q0 39 17 89q23 67 57 67q61 0 218 -158
q114 -116 190 -214q108 -141 190 -278q71 162 71 352q0 136 -35 302q50 45 94 112q39 -146 148 -224zM804 120q5 23 5 46q0 74 -57 152q-79 -120 -180 -201q69 -7 123 -7q65 0 109 10zM447 1499q-11 -50 -35 -109q-63 -14 -130 -40q-53 -21 -127 -69q-44 -29 -51 -29
q-38 0 -31 25q23 49 111 115q-86 88 -96 134q33 88 63 119q42 43 123 43q52 0 85 -12v-104q-54 26 -107 26q-48 0 -86 -22q12 -27 51 -63q46 -43 94 -59q26 10 136 45z" />
    <glyph glyph-name="afii62837" unicode="&#xfee0;&#xfe84;" horiz-adv-x="1212" arabic-form="final" 
d="M1242 1h-60q-119 0 -174 122q-35 78 -63 277q-169 -383 -297 -457q-27 -16 -166 -33q-155 -19 -294 -18q-87 1 -87 16q0 16 81 36q170 43 246 72q126 48 229 134q15 64 15 130q0 314 -274 584q-45 -63 -56 -63q-19 0 -88 89q-76 98 -76 162q0 40 22 93q26 63 60 63
q64 0 215 -188q125 -155 176 -252q100 -191 100 -371q0 -96 -28 -181q104 100 144 220q34 102 34 268q0 60 -6 194q-7 148 -9 232l94 108q16 18 21 18t6 -24q14 -449 16 -494q15 -345 44 -471q23 -99 112 -99h63v-167zM447 1499q-11 -50 -35 -109q-63 -14 -130 -40
q-53 -21 -127 -69q-44 -29 -51 -29q-38 0 -31 25q23 49 111 115q-86 88 -96 134q33 88 63 119q42 43 123 43q52 0 85 -12v-104q-54 26 -107 26q-48 0 -86 -22q12 -27 51 -63q46 -43 94 -59q26 10 136 45z" />
    <glyph glyph-name="afii62838" unicode="&#xfedf;&#xfe88;" horiz-adv-x="1052" arabic-form="isolated" 
d="M1052 1020l-66 -152l-35 28q-23 -290 -135 -494q75 -133 75 -254q0 -41 -10 -97q-15 -77 -38 -84q-131 -42 -331 -42q-55 0 -115 3q5 58 17 182q166 97 302 276q-182 245 -368 416q-40 -74 -58 -74q-24 0 -102 86q-86 95 -86 158q0 39 17 89q23 67 57 67q61 0 218 -158
q114 -116 190 -214q108 -141 190 -278q71 162 71 352q0 136 -35 302q50 45 94 112q39 -146 148 -224zM804 120q5 23 5 46q0 74 -57 152q-79 -120 -180 -201q69 -7 123 -7q65 0 109 10zM697 -401q-11 -50 -35 -109q-63 -14 -130 -40q-53 -21 -127 -69q-44 -29 -51 -29
q-38 0 -31 25q23 49 111 115q-86 88 -96 134q33 88 63 119q42 43 123 43q52 0 85 -12v-104q-54 26 -107 26q-48 0 -86 -22q12 -27 51 -63q46 -43 94 -59q26 10 136 45z" />
    <glyph glyph-name="afii62839" unicode="&#xfee0;&#xfe88;" horiz-adv-x="1212" arabic-form="final" 
d="M1242 1h-60q-119 0 -174 122q-35 78 -63 277q-169 -383 -297 -457q-27 -16 -166 -33q-155 -19 -294 -18q-87 1 -87 16q0 16 81 36q170 43 246 72q126 48 229 134q15 64 15 130q0 314 -274 584q-45 -63 -56 -63q-19 0 -88 89q-76 98 -76 162q0 40 22 93q26 63 60 63
q64 0 215 -188q125 -155 176 -252q100 -191 100 -371q0 -96 -28 -181q104 100 144 220q34 102 34 268q0 60 -6 194q-7 148 -9 232l94 108q16 18 21 18t6 -24q14 -449 16 -494q15 -345 44 -471q23 -99 112 -99h63v-167zM617 -401q-11 -50 -35 -109q-63 -14 -130 -40
q-53 -21 -127 -69q-44 -29 -51 -29q-38 0 -31 25q23 49 111 115q-86 88 -96 134q33 88 63 119q42 43 123 43q52 0 85 -12v-104q-54 26 -107 26q-48 0 -86 -22q12 -27 51 -63q46 -43 94 -59q26 10 136 45z" />
    <glyph glyph-name="afii62840" unicode="&#xfedf;&#xfe8e;" horiz-adv-x="1052" arabic-form="isolated" 
d="M1052 1020l-66 -152l-35 28q-23 -290 -135 -494q75 -133 75 -254q0 -41 -10 -97q-15 -77 -38 -84q-131 -42 -331 -42q-55 0 -115 3q5 58 17 182q166 97 302 276q-182 245 -368 416q-40 -74 -58 -74q-24 0 -102 86q-86 95 -86 158q0 39 17 89q23 67 57 67q61 0 218 -158
q114 -116 190 -214q108 -141 190 -278q71 162 71 352q0 136 -35 302q50 45 94 112q39 -146 148 -224zM804 120q5 23 5 46q0 74 -57 152q-79 -120 -180 -201q69 -7 123 -7q65 0 109 10z" />
    <glyph glyph-name="afii62841" unicode="&#xfee0;&#xfe8e;" horiz-adv-x="1212" arabic-form="final" 
d="M1242 1h-60q-119 0 -174 122q-35 78 -63 277q-169 -383 -297 -457q-27 -16 -166 -33q-155 -19 -294 -18q-87 1 -87 16q0 16 81 36q170 43 246 72q126 48 229 134q15 64 15 130q0 314 -274 584q-45 -63 -56 -63q-19 0 -88 89q-76 98 -76 162q0 40 22 93q26 63 60 63
q64 0 215 -188q125 -155 176 -252q100 -191 100 -371q0 -96 -28 -181q104 100 144 220q34 102 34 268q0 60 -6 194q-7 148 -9 232l94 108q16 18 21 18t6 -24q14 -449 16 -494q15 -345 44 -471q23 -99 112 -99h63v-167z" />
    <glyph glyph-name="lla1" unicode="&#xe008;&#xfe8e;" horiz-adv-x="1052" 
d="M1052 1020l-66 -152l-35 28q-23 -290 -135 -494q75 -133 75 -254q0 -41 -10 -97q-15 -77 -38 -84q-131 -42 -331 -42q-55 0 -115 3q5 58 17 182q166 97 302 276q-182 245 -368 416q-40 -74 -58 -74q-24 0 -102 86q-86 95 -86 158q0 39 17 89q23 67 57 67q61 0 218 -158
q114 -116 190 -214q108 -141 190 -278q71 162 71 352q0 136 -35 302q50 45 94 112q39 -146 148 -224zM804 120q5 23 5 46q0 74 -57 152q-79 -120 -180 -201q69 -7 123 -7q65 0 109 10zM885 1374q2 -7 -2 -11q-48 -37 -93 -111q-13 -20 -67 -128q-6 -11 -9 -11t-8 11l-28 62
q-57 114 -138 184l26 34q5 6 6 6q2 -1 7 -5q38 -27 79 -92q34 -55 60 -117q67 146 145 210q6 5 8 5q3 0 5 -7z" />
    <glyph glyph-name="lla2" unicode="&#xe009;&#xfe8e;" horiz-adv-x="1212" 
d="M1242 1h-60q-119 0 -174 122q-35 78 -63 277q-169 -383 -297 -457q-27 -16 -166 -33q-155 -19 -294 -18q-87 1 -87 16q0 16 81 36q170 43 246 72q126 48 229 134q15 64 15 130q0 314 -274 584q-45 -63 -56 -63q-19 0 -88 89q-76 98 -76 162q0 40 22 93q26 63 60 63
q64 0 215 -188q125 -155 176 -252q100 -191 100 -371q0 -96 -28 -181q104 100 144 220q34 102 34 268q0 60 -6 194q-7 148 -9 232l94 108q16 18 21 18t6 -24q14 -449 16 -494q15 -345 44 -471q23 -99 112 -99h63v-167zM983 1419q2 -7 -2 -11q-48 -37 -93 -111
q-13 -20 -67 -128q-6 -11 -9 -11t-8 11l-28 62q-57 114 -138 184l26 34q5 6 6 6q2 -1 7 -5q38 -27 79 -92q34 -55 60 -117q67 146 145 210q6 5 8 5q3 0 5 -7z" />
    <glyph glyph-name="afii57369" unicode="&#x6a4;" horiz-adv-x="635" arabic-form="medial" 
d="M634 167q0 -138 -110 -159q-37 -7 -424 -7h-140q-50 0 -50 50v117h160q33 0 100 -4t101 -4q81 0 176 8q-179 73 -223 109q-40 33 -40 106q0 81 80 207q85 133 156 133q100 0 160 -176q54 -157 54 -380zM553 285q-6 68 -49 158q-53 108 -109 108q-37 0 -78 -44
q-34 -36 -52 -78zM386 1221l-76 -132l-204 112l78 136zM587 978l-76 -132l-180 99l-57 -99l-204 112l78 136l178 -103q16 29 59 103z" />
    <glyph glyph-name="afii57371" unicode="&#x6a4;" horiz-adv-x="1665" arabic-form="final" 
d="M1664 162q0 -70 -17 -102q-28 -52 -204 -69q-112 -4 -225 -9q-426 -25 -531 -25q-257 0 -373 56q-133 64 -133 223q0 107 51 190q23 38 37 38q7 0 7 -13q0 -11 -5 -27q-20 -62 -13 -112q18 -131 159 -169q68 -18 256 -18q62 0 449 19q282 14 344 26q-170 67 -210 101
q-36 31 -36 107q0 81 77 206q82 134 153 134q100 0 160 -176q54 -157 54 -380zM1583 280q-6 68 -49 158q-53 108 -109 108q-71 0 -124 -122zM1427 1221l-76 -132l-204 112l78 136zM1628 978l-76 -132l-180 99l-57 -99l-204 112l78 136l178 -103q16 29 59 103z" />
    <glyph glyph-name="afii57372" unicode="&#x6a4;" horiz-adv-x="635" arabic-form="initial" 
d="M634 167q0 -138 -110 -159q-37 -7 -424 -7h-140q-50 0 -50 50v117h160q33 0 100 -4t101 -4q81 0 176 8q-179 73 -223 109q-40 33 -40 106q0 81 80 207q85 133 156 133q100 0 160 -176q54 -157 54 -380zM553 285q-6 68 -49 158q-53 108 -109 108q-37 0 -78 -44
q-34 -36 -52 -78zM386 1221l-76 -132l-204 112l78 136zM587 978l-76 -132l-180 99l-57 -99l-204 112l78 136l178 -103q16 29 59 103z" />
    <glyph glyph-name="afii62958" unicode="&#x67e;" horiz-adv-x="1405" arabic-form="final" 
d="M1404 170q0 -119 -78 -165q-66 -39 -329 -70q-223 -27 -352 -27q-464 0 -464 276q0 132 92 226q12 12 18 8q5 -5 -2 -20q-28 -61 -28 -138q0 -128 162 -166q76 -18 278 -18q162 0 358 27q220 30 253 69q-25 80 -109 161l77 169q50 -37 89 -155q35 -105 35 -177zM735 -556
l76 132l204 -112l-78 -136zM534 -313l76 132l180 -99l57 99l204 -112l-78 -136l-178 103q-16 -29 -59 -103z" />
    <glyph glyph-name="afii62956" unicode="&#x67e;" horiz-adv-x="580" arabic-form="initial" 
d="M573 152q0 -99 -61 -130q-57 -29 -275 -29q-33 0 -98 4t-98 4h-81q-50 0 -50 47v120h126q29 0 88 -4t89 -4q160 0 203 11q26 7 26 31q0 31 -110 182l84 180q66 -76 111.5 -194.5t45.5 -217.5zM235 -516l76 132l204 -112l-78 -136zM34 -273l76 132l180 -99l57 99l204 -112
l-78 -136l-178 103q-16 -29 -59 -103z" />
    <glyph glyph-name="afii52957" unicode="&#x67e;" horiz-adv-x="580" arabic-form="medial" 
d="M573 152q0 -99 -61 -130q-57 -29 -275 -29q-33 0 -98 4t-98 4h-81q-50 0 -50 47v120h126q29 0 88 -4t89 -4q160 0 203 11q26 7 26 31q0 31 -110 182l84 180q66 -76 111.5 -194.5t45.5 -217.5zM235 -516l76 132l204 -112l-78 -136zM34 -273l76 132l180 -99l57 99l204 -112
l-78 -136l-178 103q-16 -29 -59 -103z" />
    <glyph glyph-name="afii62961" unicode="&#x686;" horiz-adv-x="1121" arabic-form="final" 
d="M1151 1h-206q-223 0 -223 195q0 38 8 84q-198 -18 -324 -146q-130 -131 -130 -327q0 -355 471 -355q191 0 294 20q46 9 69 9q26 0 26 -11q0 -16 -70 -59q-149 -90 -199 -109q-78 -29 -219 -29q-445 0 -445 490q0 317 230 543q-62 6 -83 6q-63 0 -132 -61q-13 -12 -25 -12
q-13 0 -13 15q0 9 6 22q97 210 232 210q54 0 163 -15.5t164 -15.5q95 0 235 31q27 6 32 1t-4 -33l-48 -152q-56 -7 -160 -15q-2 -20 -2 -32q0 -71 115 -85q16 -2 176 -2h62v-167zM550 -391l76 132l204 -112l-78 -136zM349 -148l76 132l180 -99l57 99l204 -112l-78 -136
l-178 103q-16 -29 -59 -103z" />
    <glyph glyph-name="afii62959" unicode="&#x686;" horiz-adv-x="1200" arabic-form="initial" 
d="M1200 1h-40q-121 0 -364 -8t-364 -8q-37 0 -164.5 8t-218.5 8h-89q-50 0 -50 50v117h140q54 0 166 -8t170 -8q268 0 434 3q-65 51 -198 149q-113 79 -222 79q-92 0 -176 -50q-19 -11 -30 -11q-9 0 -9 10q0 12 12 34q92 168 268 168q107 0 242 -95q79 -59 238 -176
q131 -95 213 -95h42v-167zM600 -481l76 132l204 -112l-78 -136zM399 -238l76 132l180 -99l57 99l204 -112l-78 -136l-178 103q-16 -29 -59 -103z" />
    <glyph glyph-name="afii62960" unicode="&#x686;" horiz-adv-x="1200" arabic-form="medial" 
d="M1200 1h-40q-121 0 -364 -8t-364 -8q-37 0 -164.5 8t-218.5 8h-89q-50 0 -50 50v117h140q54 0 166 -8t170 -8q268 0 434 3q-65 51 -198 149q-113 79 -222 79q-92 0 -176 -50q-19 -11 -30 -11q-9 0 -9 10q0 12 12 34q92 168 268 168q107 0 242 -95q79 -59 238 -176
q131 -95 213 -95h42v-167zM600 -481l76 132l204 -112l-78 -136zM399 -238l76 132l180 -99l57 99l204 -112l-78 -136l-178 103q-16 -29 -59 -103z" />
    <glyph glyph-name="afii62962" unicode="&#x698;" horiz-adv-x="928" arabic-form="final" 
d="M927 113q0 -193 -140 -350q-166 -187 -361 -187q-156 0 -296 174q-31 39 -31 54q0 8 9 8q4 0 108.5 -37.5t171.5 -37.5q160 0 311 140q131 122 131 199q0 68 -176 238l63 138q11 25 32 6q62 -55 110 -133q68 -110 68 -212zM663 994l-76 -132l-204 112l78 136zM864 751
l-76 -132l-180 99l-57 -99l-204 112l78 136l178 -103q16 29 59 103z" />
    <glyph glyph-name="afii62964" unicode="&#x6a9;" horiz-adv-x="1515" arabic-form="final" 
d="M1514 178q0 -24 -9 -74q-11 -58 -21 -68q-39 -37 -422 -60q-150 -9 -375 -9q-261 0 -373 51q-133 61 -133 218q0 107 51 190q23 38 37 38q7 0 7 -13q0 -11 -5 -27q-20 -62 -13 -112q17 -128 161 -162q62 -15 254 -15q413 0 686 35q-78 77 -245 234q-72 68 -218 184
l-42 -50q-170 153 -170 186q0 58 30 122q38 80 102 108l698 306l-56 -200q-181 -67 -632 -252q198 -157 370 -308q318 -279 318 -322z" />
    <glyph glyph-name="afii52305" unicode="&#x6a9;" horiz-adv-x="845" arabic-form="initial" 
d="M844 178q0 -24 -9 -74q-11 -58 -21 -68q-47 -44 -422 -44q-59 0 -176 4.5t-176 4.5h-79q-51 0 -51 50v117h182q-13 0 328 -4q173 -2 269 6q-78 77 -245 234q-72 68 -218 184l-42 -50q-170 153 -170 186q0 58 30 122q38 80 102 108l698 306l-56 -200q-181 -67 -632 -252
q198 -157 370 -308q318 -279 318 -322z" />
    <glyph glyph-name="afii52306" unicode="&#x6a9;" horiz-adv-x="845" arabic-form="medial" 
d="M844 178q0 -24 -9 -74q-11 -58 -21 -68q-47 -44 -422 -44q-59 0 -176 4.5t-176 4.5h-79q-51 0 -51 50v117h182q-13 0 328 -4q173 -2 269 6q-78 77 -245 234q-72 68 -218 184l-42 -50q-170 153 -170 186q0 58 30 122q38 80 102 108l698 306l-56 -200q-181 -67 -632 -252
q198 -157 370 -308q318 -279 318 -322z" />
    <glyph glyph-name="afii62967" unicode="&#x6af;" horiz-adv-x="1515" arabic-form="final" 
d="M1432 1369l-19 -92l-575 -230l17 84zM1514 178q0 -24 -9 -74q-11 -58 -21 -68q-39 -37 -422 -60q-150 -9 -375 -9q-261 0 -373 51q-133 61 -133 218q0 107 51 190q23 38 37 38q7 0 7 -13q0 -11 -5 -27q-20 -62 -13 -112q17 -128 161 -162q62 -15 254 -15q413 0 686 35
q-78 77 -245 234q-72 68 -218 184l-42 -50q-170 153 -170 186q0 59 30 123q37 80 102 107l688 286l-59 -210q-102 -31 -208 -67q-243 -82 -411 -155q198 -157 370 -308q318 -279 318 -322z" />
    <glyph glyph-name="afii62965" unicode="&#x6af;" horiz-adv-x="845" arabic-form="initial" 
d="M762 1369l-19 -92l-575 -230l17 84zM844 178q0 -24 -9 -74q-11 -58 -21 -68q-47 -44 -422 -44q-59 0 -176 4.5t-176 4.5h-79q-51 0 -51 50v117h182q-13 0 328 -4q173 -2 269 6q-78 77 -245 234q-72 68 -218 184l-42 -50q-170 153 -170 186q0 59 30 123q37 80 102 107
l688 286l-56 -200q-176 -57 -622 -232q198 -157 370 -308q318 -279 318 -322z" />
    <glyph glyph-name="afii62966" unicode="&#x6af;" horiz-adv-x="845" arabic-form="medial" 
d="M762 1369l-19 -92l-575 -230l17 84zM844 178q0 -24 -9 -74q-11 -58 -21 -68q-47 -44 -422 -44q-59 0 -176 4.5t-176 4.5h-79q-51 0 -51 50v117h182q-13 0 328 -4q173 -2 269 6q-78 77 -245 234q-72 68 -218 184l-42 -50q-170 153 -170 186q0 59 30 123q37 80 102 107
l688 286l-56 -200q-176 -57 -622 -232q198 -157 370 -308q318 -279 318 -322z" />
    <glyph glyph-name="afii52364" unicode="&#x6cc;" horiz-adv-x="1230" arabic-form="final" 
d="M1260 1h-56q-74 0 -153 -15q-109 -20 -135 -58q40 -27 181 -62q117 -29 117 -50q0 -43 -14 -105q-16 -70 -38 -97q-78 -97 -261 -160q-169 -58 -329 -58q-174 0 -277 81q-113 89 -113 257q0 103 44.5 215t114.5 191q32 36 32 10q0 -8 -7 -22q-98 -193 -98 -316
q0 -126 111 -187q88 -49 225 -49q94 0 223 28q153 33 215 82q-52 17 -155 52q-99 35 -99 92q0 184 153 273q112 65 265 65h54v-167z" />
    <glyph glyph-name="afii52399" unicode="&#x621;" horiz-adv-x="758" arabic-form="isolated" 
d="M748 274q-11 -29 -52 -120q-201 -41 -318 -108q-89 -51 -161 -125q-11 20 -11 43q0 62 86 148q-111 55 -111 135t106.5 196.5t184.5 116.5q85 0 154 -62l-78 -132q-77 38 -124 38q-35 0 -93 -39q-62 -42 -62 -74q0 -20 70 -37q57 -14 87 -14q77 0 288 62q35 10 41 6
q1 -2 1 -4q0 -9 -8 -30z" />
    <glyph glyph-name="afii62753" unicode="&#x622;" horiz-adv-x="683" arabic-form="final" 
d="M713 1h-113q-127 0 -167 96q-26 62 -50 320l-62 667l137 168q13 16 14 -3l38 -846q7 -154 25 -191q21 -44 104 -44h74v-167zM704 1503q-45 -137 -131 -137q-53 0 -157 22.5t-155 22.5q-41 0 -94 -50q-11 -10 -18 -6q-7 5 -3 22q9 43 40 80q46 56 116 56q41 0 124.5 -22.5
t128.5 -22.5q87 0 130 52q6 7 14 8q8 0 8 -11q0 -5 -3 -14z" />
    <glyph glyph-name="afii62754" unicode="&#x623;" horiz-adv-x="613" arabic-form="final" 
d="M643 1h-113q-127 0 -167 96q-26 62 -50 320l-62 667l137 168q13 16 14 -3l38 -846q7 -154 25 -191q21 -44 104 -44h74v-167zM517 1499q-11 -50 -35 -109q-63 -14 -130 -40q-53 -21 -127 -69q-44 -29 -51 -29q-38 0 -31 25q23 49 111 115q-86 88 -96 134q33 88 63 119
q42 43 123 43q52 0 85 -12v-104q-54 26 -107 26q-48 0 -86 -22q12 -27 51 -63q46 -43 94 -59q26 10 136 45z" />
    <glyph glyph-name="afii62755" unicode="&#x624;" horiz-adv-x="971" arabic-form="final" 
d="M970 128q0 -209 -137 -395q-149 -203 -351 -203q-111 0 -223 93q-100 82 -151 193q-12 26 -12 36q0 7 5 7q10 0 33 -23q151 -148 300 -148q156 0 290 112q110 92 138 185q-144 11 -199 45q-79 48 -79 176q0 90 56 197q62 118 131 118q89 0 150 -159q49 -128 49 -234z
M880 144q-13 61 -41 109q-37 63 -81 63q-30 0 -54 -28t-24 -58q0 -75 200 -86zM882 884q-11 -50 -35 -109q-63 -14 -130 -40q-53 -21 -127 -69q-44 -29 -51 -29q-38 0 -31 25q23 49 111 115q-86 88 -96 134q33 88 63 119q42 43 123 43q52 0 85 -12v-104q-54 26 -107 26
q-48 0 -86 -22q12 -27 51 -63q46 -43 94 -59q26 10 136 45z" />
    <glyph glyph-name="afii62756" unicode="&#x625;" horiz-adv-x="613" arabic-form="final" 
d="M643 1h-113q-127 0 -167 96q-26 62 -50 320l-62 667l137 168q13 16 14 -3l38 -846q7 -154 25 -191q21 -44 104 -44h74v-167zM587 -331q-11 -50 -35 -109q-63 -14 -130 -40q-53 -21 -127 -69q-44 -29 -51 -29q-38 0 -31 25q23 49 111 115q-86 88 -96 134q33 88 63 119
q42 43 123 43q52 0 85 -12v-104q-54 26 -107 26q-48 0 -86 -22q12 -27 51 -63q46 -43 94 -59q26 10 136 45z" />
    <glyph glyph-name="afii62759" unicode="&#x626;" horiz-adv-x="1230" arabic-form="final" 
d="M1260 1h-56q-74 0 -153 -15q-109 -20 -135 -58q40 -27 181 -62q117 -29 117 -50q0 -43 -14 -105q-16 -70 -38 -97q-78 -97 -261 -160q-169 -58 -329 -58q-174 0 -277 81q-113 89 -113 257q0 103 44.5 215t114.5 191q32 36 32 10q0 -8 -7 -22q-98 -193 -98 -316
q0 -126 111 -187q88 -49 225 -49q94 0 223 28q153 33 215 82q-52 17 -155 52q-99 35 -99 92q0 184 153 273q112 65 265 65h54v-167zM567 469q-11 -50 -35 -109q-63 -14 -130 -40q-53 -21 -127 -69q-44 -29 -51 -29q-38 0 -31 25q23 49 111 115q-86 88 -96 134q33 88 63 119
q42 43 123 43q52 0 85 -12v-104q-54 26 -107 26q-48 0 -86 -22q12 -27 51 -63q46 -43 94 -59q26 10 136 45z" />
    <glyph glyph-name="afii62757" unicode="&#x626;" horiz-adv-x="544" arabic-form="initial" 
d="M573 152q0 -99 -61 -130q-57 -29 -275 -29q-33 0 -98 4t-98 4h-81q-50 0 -50 47v120h126q29 0 88 -4t89 -4q160 0 203 11q26 7 26 31q0 31 -110 182l84 180q66 -76 111.5 -194.5t45.5 -217.5zM472 914q-11 -50 -35 -109q-63 -14 -130 -40q-53 -21 -127 -69
q-44 -29 -51 -29q-38 0 -31 25q23 49 111 115q-86 88 -96 134q33 88 63 119q42 43 123 43q52 0 85 -12v-104q-54 26 -107 26q-48 0 -86 -22q12 -27 51 -63q46 -43 94 -59q26 10 136 45z" />
    <glyph glyph-name="afii62758" unicode="&#x626;" horiz-adv-x="544" arabic-form="medial" 
d="M573 152q0 -99 -61 -130q-57 -29 -275 -29q-33 0 -98 4t-98 4h-81q-50 0 -50 47v120h126q29 0 88 -4t89 -4q160 0 203 11q26 7 26 31q0 31 -110 182l84 180q66 -76 111.5 -194.5t45.5 -217.5zM472 914q-11 -50 -35 -109q-63 -14 -130 -40q-53 -21 -127 -69
q-44 -29 -51 -29q-38 0 -31 25q23 49 111 115q-86 88 -96 134q33 88 63 119q42 43 123 43q52 0 85 -12v-104q-54 26 -107 26q-48 0 -86 -22q12 -27 51 -63q46 -43 94 -59q26 10 136 45z" />
    <glyph glyph-name="afii62760" unicode="&#x627;" horiz-adv-x="543" arabic-form="final" 
d="M573 1h-113q-127 0 -167 96q-26 62 -50 320l-62 667l137 168q13 16 14 -3l38 -846q7 -154 25 -191q21 -44 104 -44h74v-167z" />
    <glyph glyph-name="afii62763" unicode="&#x628;" horiz-adv-x="1405" arabic-form="final" 
d="M1404 170q0 -119 -78 -165q-66 -39 -329 -70q-223 -27 -352 -27q-464 0 -464 276q0 132 92 226q12 12 18 8q5 -5 -2 -20q-28 -61 -28 -138q0 -128 162 -166q76 -18 278 -18q162 0 358 27q220 30 253 69q-25 80 -109 161l77 169q50 -37 89 -155q35 -105 35 -177zM928 -432
l-76 -132l-204 112l78 136z" />
    <glyph glyph-name="afii62761" unicode="&#x628;" horiz-adv-x="580" arabic-form="initial" 
d="M573 152q0 -99 -61 -130q-57 -29 -275 -29q-33 0 -98 4t-98 4h-81q-50 0 -50 47v120h126q29 0 88 -4t89 -4q160 0 203 11q26 7 26 31q0 31 -110 182l84 180q66 -76 111.5 -194.5t45.5 -217.5zM418 -382l-76 -132l-204 112l78 136z" />
    <glyph glyph-name="afii62762" unicode="&#x628;" horiz-adv-x="580" arabic-form="medial" 
d="M573 152q0 -99 -61 -130q-57 -29 -275 -29q-33 0 -98 4t-98 4h-81q-50 0 -50 47v120h126q29 0 88 -4t89 -4q160 0 203 11q26 7 26 31q0 31 -110 182l84 180q66 -76 111.5 -194.5t45.5 -217.5zM418 -382l-76 -132l-204 112l78 136z" />
    <glyph glyph-name="afii62764" unicode="&#x629;" horiz-adv-x="822" arabic-form="final" 
d="M853 2h-144q-112 0 -145 111q-5 17 -19 181q-80 -103 -101 -103q-74 0 -160 49q-93 54 -106 122q39 109 121 206q32 38 215 96l-5 84q33 41 88 112q16 -90 30 -456q6 -144 20 -186q17 -50 76 -50h130v-166zM542 372q-5 82 -16 218q-63 -63 -111 -89q-39 -21 -115 -41
q82 -103 193 -103q32 0 49 15zM717 1082l-76 -132l-187 103l-57 -99l-204 112l78 136l185 -106l59 102z" />
    <glyph glyph-name="afii62767" unicode="&#x62a;" horiz-adv-x="1405" arabic-form="final" 
d="M1404 170q0 -119 -78 -165q-66 -39 -329 -70q-223 -27 -352 -27q-464 0 -464 276q0 132 92 226q12 12 18 8q5 -5 -2 -20q-28 -61 -28 -138q0 -128 162 -166q76 -18 278 -18q162 0 358 27q220 30 253 69q-25 80 -109 161l77 169q50 -37 89 -155q35 -105 35 -177zM1048 618
l-76 -132l-187 103l-57 -99l-204 112l78 136l185 -106l59 102z" />
    <glyph glyph-name="afii62765" unicode="&#x62a;" horiz-adv-x="580" arabic-form="initial" 
d="M573 152q0 -99 -61 -130q-57 -29 -275 -29q-33 0 -98 4t-98 4h-81q-50 0 -50 47v120h126q29 0 88 -4t89 -4q160 0 203 11q26 7 26 31q0 31 -110 182l84 180q66 -76 111.5 -194.5t45.5 -217.5zM553 908l-76 -132l-187 103l-57 -99l-204 112l78 136l185 -106l59 102z" />
    <glyph glyph-name="afii62766" unicode="&#x62a;" horiz-adv-x="580" arabic-form="medial" 
d="M573 152q0 -99 -61 -130q-57 -29 -275 -29q-33 0 -98 4t-98 4h-81q-50 0 -50 47v120h126q29 0 88 -4t89 -4q160 0 203 11q26 7 26 31q0 31 -110 182l84 180q66 -76 111.5 -194.5t45.5 -217.5zM553 908l-76 -132l-187 103l-57 -99l-204 112l78 136l185 -106l59 102z" />
    <glyph glyph-name="afii62770" unicode="&#x62b;" horiz-adv-x="1405" arabic-form="final" 
d="M1404 170q0 -119 -78 -165q-66 -39 -329 -70q-223 -27 -352 -27q-464 0 -464 276q0 132 92 226q12 12 18 8q5 -5 -2 -20q-28 -61 -28 -138q0 -128 162 -166q76 -18 278 -18q162 0 358 27q220 30 253 69q-25 80 -109 161l77 169q50 -37 89 -155q35 -105 35 -177zM844 862
l-76 -132l-204 112l78 136zM1045 619l-76 -132l-180 99l-57 -99l-204 112l78 136l178 -103q16 29 59 103z" />
    <glyph glyph-name="afii62768" unicode="&#x62b;" horiz-adv-x="580" arabic-form="initial" 
d="M573 152q0 -99 -61 -130q-57 -29 -275 -29q-33 0 -98 4t-98 4h-81q-50 0 -50 47v120h126q29 0 88 -4t89 -4q160 0 203 11q26 7 26 31q0 31 -110 182l84 180q66 -76 111.5 -194.5t45.5 -217.5zM349 1067l-76 -132l-204 112l78 136zM550 824l-76 -132l-180 99l-57 -99
l-204 112l78 136l178 -103q16 29 59 103z" />
    <glyph glyph-name="afii62769" unicode="&#x62b;" horiz-adv-x="580" arabic-form="medial" 
d="M573 152q0 -99 -61 -130q-57 -29 -275 -29q-33 0 -98 4t-98 4h-81q-50 0 -50 47v120h126q29 0 88 -4t89 -4q160 0 203 11q26 7 26 31q0 31 -110 182l84 180q66 -76 111.5 -194.5t45.5 -217.5zM349 1067l-76 -132l-204 112l78 136zM550 824l-76 -132l-180 99l-57 -99
l-204 112l78 136l178 -103q16 29 59 103z" />
    <glyph glyph-name="afii62773" unicode="&#x62c;" horiz-adv-x="1121" arabic-form="final" 
d="M1151 1h-206q-223 0 -223 195q0 38 8 84q-198 -18 -324 -146q-130 -131 -130 -327q0 -355 471 -355q191 0 294 20q46 9 69 9q26 0 26 -11q0 -16 -70 -59q-149 -90 -199 -109q-78 -29 -219 -29q-445 0 -445 490q0 317 230 543q-62 6 -83 6q-63 0 -132 -61q-13 -12 -25 -12
q-13 0 -13 15q0 9 6 22q97 210 232 210q54 0 163 -15.5t164 -15.5q95 0 235 31q27 6 32 1t-4 -33l-48 -152q-56 -7 -160 -15q-2 -20 -2 -32q0 -71 115 -85q16 -2 176 -2h62v-167zM788 -237l-76 -132l-204 112l78 136z" />
    <glyph glyph-name="afii62771" unicode="&#x62c;" horiz-adv-x="1200" arabic-form="initial" 
d="M1200 1h-40q-121 0 -364 -8t-364 -8q-37 0 -164.5 8t-218.5 8h-89q-50 0 -50 50v117h140q54 0 166 -8t170 -8q268 0 434 3q-65 51 -198 149q-113 79 -222 79q-92 0 -176 -50q-19 -11 -30 -11q-9 0 -9 10q0 12 12 34q92 168 268 168q107 0 242 -95q79 -59 238 -176
q131 -95 213 -95h42v-167zM643 -342l-76 -132l-204 112l78 136z" />
    <glyph glyph-name="afii62772" unicode="&#x62c;" horiz-adv-x="1200" arabic-form="medial" 
d="M1200 1h-40q-121 0 -364 -8t-364 -8q-37 0 -164.5 8t-218.5 8h-89q-50 0 -50 50v117h140q54 0 166 -8t170 -8q268 0 434 3q-65 51 -198 149q-113 79 -222 79q-92 0 -176 -50q-19 -11 -30 -11q-9 0 -9 10q0 12 12 34q92 168 268 168q107 0 242 -95q79 -59 238 -176
q131 -95 213 -95h42v-167zM643 -342l-76 -132l-204 112l78 136z" />
    <glyph glyph-name="afii62776" unicode="&#x62d;" horiz-adv-x="1121" arabic-form="final" 
d="M1151 1h-206q-223 0 -223 195q0 38 8 84q-198 -18 -324 -146q-130 -131 -130 -327q0 -355 471 -355q191 0 294 20q46 9 69 9q26 0 26 -11q0 -16 -70 -59q-149 -90 -199 -109q-78 -29 -219 -29q-445 0 -445 490q0 317 230 543q-62 6 -83 6q-63 0 -132 -61q-13 -12 -25 -12
q-13 0 -13 15q0 9 6 22q97 210 232 210q54 0 163 -15.5t164 -15.5q95 0 235 31q27 6 32 1t-4 -33l-48 -152q-56 -7 -160 -15q-2 -20 -2 -32q0 -71 115 -85q16 -2 176 -2h62v-167z" />
    <glyph glyph-name="afii62774" unicode="&#x62d;" horiz-adv-x="1200" arabic-form="initial" 
d="M1200 1h-40q-121 0 -364 -8t-364 -8q-37 0 -164.5 8t-218.5 8h-89q-50 0 -50 50v117h140q54 0 166 -8t170 -8q268 0 434 3q-65 51 -198 149q-113 79 -222 79q-92 0 -176 -50q-19 -11 -30 -11q-9 0 -9 10q0 12 12 34q92 168 268 168q107 0 242 -95q79 -59 238 -176
q131 -95 213 -95h42v-167z" />
    <glyph glyph-name="afii62775" unicode="&#x62d;" horiz-adv-x="1200" arabic-form="medial" 
d="M1200 1h-40q-121 0 -364 -8t-364 -8q-37 0 -164.5 8t-218.5 8h-89q-50 0 -50 50v117h140q54 0 166 -8t170 -8q268 0 434 3q-65 51 -198 149q-113 79 -222 79q-92 0 -176 -50q-19 -11 -30 -11q-9 0 -9 10q0 12 12 34q92 168 268 168q107 0 242 -95q79 -59 238 -176
q131 -95 213 -95h42v-167z" />
    <glyph glyph-name="afii62779" unicode="&#x62e;" horiz-adv-x="1121" arabic-form="final" 
d="M1151 1h-206q-223 0 -223 195q0 38 8 84q-198 -18 -324 -146q-130 -131 -130 -327q0 -355 471 -355q191 0 294 20q46 9 69 9q26 0 26 -11q0 -16 -70 -59q-149 -90 -199 -109q-78 -29 -219 -29q-445 0 -445 490q0 317 230 543q-62 6 -83 6q-63 0 -132 -61q-13 -12 -25 -12
q-13 0 -13 15q0 9 6 22q97 210 232 210q54 0 163 -15.5t164 -15.5q95 0 235 31q27 6 32 1t-4 -33l-48 -152q-56 -7 -160 -15q-2 -20 -2 -32q0 -71 115 -85q16 -2 176 -2h62v-167zM728 858l-76 -132l-204 112l78 136z" />
    <glyph glyph-name="afii62777" unicode="&#x62e;" horiz-adv-x="1200" arabic-form="initial" 
d="M1200 1h-40q-121 0 -364 -8t-364 -8q-37 0 -164.5 8t-218.5 8h-89q-50 0 -50 50v117h140q54 0 166 -8t170 -8q268 0 434 3q-65 51 -198 149q-113 79 -222 79q-92 0 -176 -50q-19 -11 -30 -11q-9 0 -9 10q0 12 12 34q92 168 268 168q107 0 242 -95q79 -59 238 -176
q131 -95 213 -95h42v-167zM653 988l-76 -132l-204 112l78 136z" />
    <glyph glyph-name="afii62778" unicode="&#x62e;" horiz-adv-x="1200" arabic-form="medial" 
d="M1200 1h-40q-121 0 -364 -8t-364 -8q-37 0 -164.5 8t-218.5 8h-89q-50 0 -50 50v117h140q54 0 166 -8t170 -8q268 0 434 3q-65 51 -198 149q-113 79 -222 79q-92 0 -176 -50q-19 -11 -30 -11q-9 0 -9 10q0 12 12 34q92 168 268 168q107 0 242 -95q79 -59 238 -176
q131 -95 213 -95h42v-167zM653 988l-76 -132l-204 112l78 136z" />
    <glyph glyph-name="afii62780" unicode="&#x62f;" horiz-adv-x="828" arabic-form="final" 
d="M828 153q0 -118 -81 -158q-52 -25 -192 -41q-99 -11 -164 -11q-104 0 -151 32q-58 38 -58 135q0 81 40 147q19 31 29 31q13 0 5 -46q-3 -18 -3 -34q0 -90 145 -90q61 0 167 17q119 18 157 40q0 96 -158 389l85 182q10 22 20 -1q70 -159 117 -341q42 -164 42 -251z" />
    <glyph glyph-name="afii62781" unicode="&#x630;" horiz-adv-x="828" arabic-form="final" 
d="M828 153q0 -118 -81 -158q-52 -25 -192 -41q-99 -11 -164 -11q-104 0 -151 32q-58 38 -58 135q0 81 40 147q19 31 29 31q13 0 5 -46q-3 -18 -3 -34q0 -90 145 -90q61 0 167 17q119 18 157 40q0 96 -158 389l85 182q10 22 20 -1q70 -159 117 -341q42 -164 42 -251z
M633 1028l-76 -132l-204 112l78 136z" />
    <glyph glyph-name="afii62782" unicode="&#x631;" horiz-adv-x="928" arabic-form="final" 
d="M927 113q0 -193 -140 -350q-166 -187 -361 -187q-156 0 -296 174q-31 39 -31 54q0 8 9 8q4 0 108.5 -37.5t171.5 -37.5q160 0 311 140q131 122 131 199q0 68 -176 238l63 138q11 25 32 6q62 -55 110 -133q68 -110 68 -212z" />
    <glyph glyph-name="afii62783" unicode="&#x632;" horiz-adv-x="928" arabic-form="final" 
d="M927 113q0 -193 -140 -350q-166 -187 -361 -187q-156 0 -296 174q-31 39 -31 54q0 8 9 8q4 0 108.5 -37.5t171.5 -37.5q160 0 311 140q131 122 131 199q0 68 -176 238l63 138q11 25 32 6q62 -55 110 -133q68 -110 68 -212zM663 888l-76 -132l-204 112l78 136z" />
    <glyph glyph-name="afii62786" unicode="&#x633;" horiz-adv-x="1902" arabic-form="final" 
d="M1902 222q0 -153 -34 -188q-38 -40 -200 -40q-202 0 -271 59q-58 -52 -225 -52q-41 -227 -104 -287q-53 -51 -185 -101q-164 -63 -320 -63q-170 0 -270 73q-112 82 -112 245q0 116 62 242q46 94 95 144q27 28 41 28q7 0 7 -8q0 -13 -16 -39q-34 -56 -65 -139
q-35 -94 -35 -151q0 -223 321 -223q119 0 263 43q176 52 220 132q0 160 -126 357l104 152q77 -89 116 -238h216q9 37 9 74q0 38 -9 76q0 -6 130 134q12 -26 12 -82q0 -105 -42 -186q40 -26 152 -26q92 0 140 16q2 69 -45 164l137 136q34 -151 34 -252z" />
    <glyph glyph-name="afii62784" unicode="&#x633;" horiz-adv-x="1429" arabic-form="initial" 
d="M1428 230q0 -161 -27 -195q-36 -45 -198 -45q-171 0 -279 52q-58 -26 -93 -33q-67 -13 -220 -13q-131 0 -232 48q-71 -43 -207 -43h-212q-50 0 -50 50v117h217q194 0 224 30q0 25 -9 114l116 128q16 18 20 -8q5 -33 5 -50q0 -87 -36 -195q24 -19 103 -19h361v141l109 118
q13 14 18 -1q9 -26 9 -64q0 -78 -37 -182q20 -20 147 -20q116 0 143 18q0 42 -45 158l121 120q14 14 20 -6q32 -104 32 -220z" />
    <glyph glyph-name="afii62785" unicode="&#x633;" horiz-adv-x="1429" arabic-form="medial" 
d="M1428 230q0 -161 -27 -195q-36 -45 -198 -45q-171 0 -279 52q-58 -26 -93 -33q-67 -13 -220 -13q-131 0 -232 48q-71 -43 -207 -43h-212q-50 0 -50 50v117h217q194 0 224 30q0 25 -9 114l116 128q16 18 20 -8q5 -33 5 -50q0 -87 -36 -195q24 -19 103 -19h361v141l109 118
q13 14 18 -1q9 -26 9 -64q0 -78 -37 -182q20 -20 147 -20q116 0 143 18q0 42 -45 158l121 120q14 14 20 -6q32 -104 32 -220z" />
    <glyph glyph-name="afii62789" unicode="&#x634;" horiz-adv-x="1902" arabic-form="final" 
d="M1902 222q0 -153 -34 -188q-38 -40 -200 -40q-202 0 -271 59q-58 -52 -225 -52q-41 -227 -104 -287q-53 -51 -185 -101q-164 -63 -320 -63q-170 0 -270 73q-112 82 -112 245q0 116 62 242q46 94 95 144q27 28 41 28q7 0 7 -8q0 -13 -16 -39q-34 -56 -65 -139
q-35 -94 -35 -151q0 -223 321 -223q119 0 263 43q176 52 220 132q0 160 -126 357l104 152q77 -89 116 -238h216q9 37 9 74q0 38 -9 76q0 -6 130 134q12 -26 12 -82q0 -105 -42 -186q40 -26 152 -26q92 0 140 16q2 69 -45 164l137 136q34 -151 34 -252zM1541 982l-76 -132
l-204 112l78 136zM1742 739l-76 -132l-180 99l-57 -99l-204 112l78 136l178 -103q16 29 59 103z" />
    <glyph glyph-name="afii62787" unicode="&#x634;" horiz-adv-x="1429" arabic-form="initial" 
d="M1428 230q0 -161 -27 -195q-36 -45 -198 -45q-171 0 -279 52q-58 -26 -93 -33q-67 -13 -220 -13q-131 0 -232 48q-71 -43 -207 -43h-212q-50 0 -50 50v117h217q194 0 224 30q0 25 -9 114l116 128q16 18 20 -8q5 -33 5 -50q0 -87 -36 -195q24 -19 103 -19h361v141l109 118
q13 14 18 -1q9 -26 9 -64q0 -78 -37 -182q20 -20 147 -20q116 0 143 18q0 42 -45 158l121 120q14 14 20 -6q32 -104 32 -220zM1021 974l-76 -132l-204 112l78 136zM1222 731l-76 -132l-180 99l-57 -99l-204 112l78 136l178 -103q16 29 59 103z" />
    <glyph glyph-name="afii62788" unicode="&#x634;" horiz-adv-x="1429" arabic-form="medial" 
d="M1428 230q0 -161 -27 -195q-36 -45 -198 -45q-171 0 -279 52q-58 -26 -93 -33q-67 -13 -220 -13q-131 0 -232 48q-71 -43 -207 -43h-212q-50 0 -50 50v117h217q194 0 224 30q0 25 -9 114l116 128q16 18 20 -8q5 -33 5 -50q0 -87 -36 -195q24 -19 103 -19h361v141l109 118
q13 14 18 -1q9 -26 9 -64q0 -78 -37 -182q20 -20 147 -20q116 0 143 18q0 42 -45 158l121 120q14 14 20 -6q32 -104 32 -220zM1021 974l-76 -132l-204 112l78 136zM1222 731l-76 -132l-180 99l-57 -99l-204 112l78 136l178 -103q16 29 59 103z" />
    <glyph glyph-name="afii62792" unicode="&#x635;" horiz-adv-x="2280" arabic-form="final" 
d="M2278 172q0 -118 -36 -156q-26 -27 -114 -34q-34 -3 -208 -4q-109 -1 -748 23q-41 -227 -104 -287q-53 -51 -185 -101q-164 -63 -320 -63q-170 0 -270 73q-112 82 -112 245q0 116 62 242q46 94 95 144q27 28 41 28q7 0 7 -8q0 -13 -16 -39q-34 -56 -65 -139
q-35 -94 -35 -151q0 -223 321 -223q119 0 263 43q176 52 220 132q0 160 -126 357l104 152q77 -89 116 -238h52q89 27 327 201q212 155 307 155q75 0 226 -76q158 -80 178 -138t20 -138zM2162 198q0 26 -154 92q-149 64 -194 64q-76 0 -193 -73l-183 -115q78 -20 340 -20
q384 0 384 52z" />
    <glyph glyph-name="afii62790" unicode="&#x635;" horiz-adv-x="1826" arabic-form="initial" 
d="M1821 293q18 -90 -1 -193q-8 -41 -30 -58q-40 -30 -160 -36q-161 -8 -594 -8q-336 0 -514 18q-64 6 -112 42q-92 -57 -240 -57h-210q-50 0 -50 50v119h275q117 0 189 34q2 14 2 32q0 35 -9 85l111 117q25 26 29 -9q2 -18 2 -86q0 -52 -30 -146q107 -27 249 -25
q73 1 335.5 187.5t332.5 186.5q80 0 240 -87q170 -93 185 -166zM1716 214q0 23 -158 94.5t-202 71.5q-48 0 -157 -68l-226 -141q214 -9 347 -9q132 0 256 13q140 15 140 39z" />
    <glyph glyph-name="afii62791" unicode="&#x635;" horiz-adv-x="1826" arabic-form="medial" 
d="M1821 293q18 -90 -1 -193q-8 -41 -30 -58q-40 -30 -160 -36q-161 -8 -594 -8q-336 0 -514 18q-64 6 -112 42q-92 -57 -240 -57h-210q-50 0 -50 50v119h275q117 0 189 34q2 14 2 32q0 35 -9 85l111 117q25 26 29 -9q2 -18 2 -86q0 -52 -30 -146q107 -27 249 -25
q73 1 335.5 187.5t332.5 186.5q80 0 240 -87q170 -93 185 -166zM1716 214q0 23 -158 94.5t-202 71.5q-48 0 -157 -68l-226 -141q214 -9 347 -9q132 0 256 13q140 15 140 39z" />
    <glyph glyph-name="afii62795" unicode="&#x636;" horiz-adv-x="2280" arabic-form="final" 
d="M2278 172q0 -118 -36 -156q-26 -27 -114 -34q-34 -3 -208 -4q-109 -1 -748 23q-41 -227 -104 -287q-53 -51 -185 -101q-164 -63 -320 -63q-170 0 -270 73q-112 82 -112 245q0 116 62 242q46 94 95 144q27 28 41 28q7 0 7 -8q0 -13 -16 -39q-34 -56 -65 -139
q-35 -94 -35 -151q0 -223 321 -223q119 0 263 43q176 52 220 132q0 160 -126 357l104 152q77 -89 116 -238h52q89 27 327 201q212 155 307 155q75 0 226 -76q158 -80 178 -138t20 -138zM2162 198q0 26 -154 92q-149 64 -194 64q-76 0 -193 -73l-183 -115q78 -20 340 -20
q384 0 384 52zM1913 903l-76 -132l-204 112l78 136z" />
    <glyph glyph-name="afii62793" unicode="&#x636;" horiz-adv-x="1826" arabic-form="initial" 
d="M1821 293q18 -90 -1 -193q-8 -41 -30 -58q-40 -30 -160 -36q-161 -8 -594 -8q-336 0 -514 18q-64 6 -112 42q-92 -57 -240 -57h-210q-50 0 -50 50v119h275q117 0 189 34q2 14 2 32q0 35 -9 85l111 117q25 26 29 -9q2 -18 2 -86q0 -52 -30 -146q107 -27 249 -25
q73 1 335.5 187.5t332.5 186.5q80 0 240 -87q170 -93 185 -166zM1716 214q0 23 -158 94.5t-202 71.5q-48 0 -157 -68l-226 -141q214 -9 347 -9q132 0 256 13q140 15 140 39zM1418 903l-76 -132l-204 112l78 136z" />
    <glyph glyph-name="afii62794" unicode="&#x636;" horiz-adv-x="1826" arabic-form="medial" 
d="M1821 293q18 -90 -1 -193q-8 -41 -30 -58q-40 -30 -160 -36q-161 -8 -594 -8q-336 0 -514 18q-64 6 -112 42q-92 -57 -240 -57h-210q-50 0 -50 50v119h275q117 0 189 34q2 14 2 32q0 35 -9 85l111 117q25 26 29 -9q2 -18 2 -86q0 -52 -30 -146q107 -27 249 -25
q73 1 335.5 187.5t332.5 186.5q80 0 240 -87q170 -93 185 -166zM1716 214q0 23 -158 94.5t-202 71.5q-48 0 -157 -68l-226 -141q214 -9 347 -9q132 0 256 13q140 15 140 39zM1418 903l-76 -132l-204 112l78 136z" />
    <glyph glyph-name="afii62798" unicode="&#x637;" horiz-adv-x="1347" arabic-form="final" 
d="M1343 100q-23 -87 -181 -106q-33 -4 -243 -4q-48 0 -666 10l-61 119q-11 21 -11 28q0 13 54 13q80 0 155 10q138 18 138 59l-1 305q0 332 -75 546l134 170q0 -183 108 -242q-27 -92 -78 -140q25 -146 25 -209v-148q0 -57 -8 -132l-12 -111l207 160q91 70 165 70
q105 0 212 -56q122 -64 138 -158q3 -20 4 -93q1 -74 -4 -91zM1237 206q0 42 -126 88q-112 41 -168 41q-68 0 -148 -58q-51 -39 -154 -117q158 -13 294 -6q302 16 302 52z" />
    <glyph glyph-name="afii62796" unicode="&#x637;" horiz-adv-x="1071" arabic-form="initial" 
d="M1065 100q-23 -87 -181 -106q-33 -4 -243 -4q-59 0 -671 10q-50 1 -50 45v123h109q221 0 221 61l-1 305q0 332 -75 546l134 170q0 -183 108 -242q-27 -92 -78 -140q25 -146 25 -209v-148q0 -57 -8 -132l-12 -111l207 160q91 70 165 70q105 0 212 -56q122 -64 138 -158
q3 -20 4 -93q1 -74 -4 -91zM959 206q0 42 -126 88q-112 41 -168 41q-68 0 -148 -58q-51 -39 -154 -117q158 -13 294 -6q302 16 302 52z" />
    <glyph glyph-name="afii62797" unicode="&#x637;" horiz-adv-x="1071" arabic-form="medial" 
d="M1065 100q-23 -87 -181 -106q-33 -4 -243 -4q-59 0 -671 10q-50 1 -50 45v123h109q221 0 221 61l-1 305q0 332 -75 546l134 170q0 -183 108 -242q-27 -92 -78 -140q25 -146 25 -209v-148q0 -57 -8 -132l-12 -111l207 160q91 70 165 70q105 0 212 -56q122 -64 138 -158
q3 -20 4 -93q1 -74 -4 -91zM959 206q0 42 -126 88q-112 41 -168 41q-68 0 -148 -58q-51 -39 -154 -117q158 -13 294 -6q302 16 302 52z" />
    <glyph glyph-name="afii62801" unicode="&#x638;" horiz-adv-x="1347" arabic-form="final" 
d="M1343 100q-23 -87 -181 -106q-33 -4 -243 -4q-48 0 -666 10l-61 119q-11 21 -11 28q0 13 54 13q80 0 155 10q138 18 138 59l-1 305q0 332 -75 546l134 170q0 -183 108 -242q-27 -92 -78 -140q25 -146 25 -209v-148q0 -57 -8 -132l-12 -111l207 160q91 70 165 70
q105 0 212 -56q122 -64 138 -158q3 -20 4 -93q1 -74 -4 -91zM1237 206q0 42 -126 88q-112 41 -168 41q-68 0 -148 -58q-51 -39 -154 -117q158 -13 294 -6q302 16 302 52zM1128 858l-76 -132l-204 112l78 136z" />
    <glyph glyph-name="afii62799" unicode="&#x638;" horiz-adv-x="1071" arabic-form="initial" 
d="M1065 100q-23 -87 -181 -106q-33 -4 -243 -4q-59 0 -671 10q-50 1 -50 45v123h109q221 0 221 61l-1 305q0 332 -75 546l134 170q0 -183 108 -242q-27 -92 -78 -140q25 -146 25 -209v-148q0 -57 -8 -132l-12 -111l207 160q91 70 165 70q105 0 212 -56q122 -64 138 -158
q3 -20 4 -93q1 -74 -4 -91zM959 206q0 42 -126 88q-112 41 -168 41q-68 0 -148 -58q-51 -39 -154 -117q158 -13 294 -6q302 16 302 52zM868 858l-76 -132l-204 112l78 136z" />
    <glyph glyph-name="afii62800" unicode="&#x638;" horiz-adv-x="1071" arabic-form="medial" 
d="M1065 100q-23 -87 -181 -106q-33 -4 -243 -4q-59 0 -671 10q-50 1 -50 45v123h109q221 0 221 61l-1 305q0 332 -75 546l134 170q0 -183 108 -242q-27 -92 -78 -140q25 -146 25 -209v-148q0 -57 -8 -132l-12 -111l207 160q91 70 165 70q105 0 212 -56q122 -64 138 -158
q3 -20 4 -93q1 -74 -4 -91zM959 206q0 42 -126 88q-112 41 -168 41q-68 0 -148 -58q-51 -39 -154 -117q158 -13 294 -6q302 16 302 52zM868 858l-76 -132l-204 112l78 136z" />
    <glyph glyph-name="afii62804" unicode="&#x639;" horiz-adv-x="960" arabic-form="final" 
d="M1000 -590q-217 -157 -346 -157q-473 0 -473 411q0 189 95 383q64 131 147 225q-59 21 -139 24l100 214q17 10 53 30q58 29 112 29q75 0 131 -36q72 -46 72 -135q0 -96 -74 -130q62 -100 234 -100h79v-167h-69q-145 0 -235 59q-52 34 -143 142q-105 -71 -186 -206
q-86 -142 -86 -262q0 -322 438 -322q74 0 270 30q48 7 48 -4q0 -8 -28 -28z" />
    <glyph glyph-name="afii62802" unicode="&#x639;" horiz-adv-x="959" arabic-form="initial" 
d="M956 187l-59 -145q-200 -41 -431 -41h-506q-60 0 -60 51v116h402q-88 88 -88 190q0 67 104 184q113 128 208 128q69 0 148 -62q113 -88 113 -171q0 -13 -10 -13q-11 0 -37 16q-99 60 -190 60q-56 0 -112.5 -43.5t-79.5 -98.5q77 -108 210 -184q171 0 347 33q46 9 46 -3
q-1 -6 -5 -17z" />
    <glyph glyph-name="afii62803" unicode="&#x639;" horiz-adv-x="851" arabic-form="medial" 
d="M882 1h-99q-183 0 -254 117q-205 -117 -441 -117h-128q-50 0 -50 50v117h150q88 0 203 22q130 25 193 62q-58 111 -189 111q-37 0 -69 -9l87 198q99 60 180 60q95 0 168 -44q93 -56 93 -160q0 -112 -81 -180q43 -60 151 -60h86v-167z" />
    <glyph glyph-name="afii62807" unicode="&#x63a;" horiz-adv-x="960" arabic-form="final" 
d="M1000 -590q-217 -157 -346 -157q-473 0 -473 411q0 189 95 383q64 131 147 225q-59 21 -139 24l100 214q17 10 53 30q58 29 112 29q75 0 131 -36q72 -46 72 -135q0 -96 -74 -130q62 -100 234 -100h79v-167h-69q-145 0 -235 59q-52 34 -143 142q-105 -71 -186 -206
q-86 -142 -86 -262q0 -322 438 -322q74 0 270 30q48 7 48 -4q0 -8 -28 -28zM683 953l-76 -132l-204 112l78 136z" />
    <glyph glyph-name="afii62805" unicode="&#x63a;" horiz-adv-x="959" arabic-form="initial" 
d="M956 187l-59 -145q-200 -41 -431 -41h-506q-60 0 -60 51v116h402q-88 88 -88 190q0 67 104 184q113 128 208 128q69 0 148 -62q113 -88 113 -171q0 -13 -10 -13q-11 0 -37 16q-99 60 -190 60q-56 0 -112.5 -43.5t-79.5 -98.5q77 -108 210 -184q171 0 347 33q46 9 46 -3
q-1 -6 -5 -17zM573 1023l-76 -132l-204 112l78 136z" />
    <glyph glyph-name="afii62806" unicode="&#x63a;" horiz-adv-x="851" arabic-form="medial" 
d="M882 1h-99q-183 0 -254 117q-205 -117 -441 -117h-128q-50 0 -50 50v117h150q88 0 203 22q130 25 193 62q-58 111 -189 111q-37 0 -69 -9l87 198q99 60 180 60q95 0 168 -44q93 -56 93 -160q0 -112 -81 -180q43 -60 151 -60h86v-167zM583 913l-76 -132l-204 112l78 136z
" />
    <glyph glyph-name="afii62810" unicode="&#x641;" horiz-adv-x="1665" arabic-form="final" 
d="M1664 162q0 -70 -17 -102q-28 -52 -204 -68q-113 -5 -225 -10q-416 -25 -531 -25q-257 0 -373 56q-133 64 -133 223q0 107 51 190q23 38 37 38q7 0 7 -13q0 -11 -5 -27q-20 -62 -13 -112q18 -131 159 -169q68 -18 256 -18q62 0 449 19q282 14 344 26q-170 67 -210 101
q-36 31 -36 107q0 81 77 206q82 134 153 134q100 0 160 -176q54 -157 54 -380zM1583 280q-6 68 -49 158q-53 108 -109 108q-71 0 -124 -122zM1518 978l-76 -132l-204 112l78 136z" />
    <glyph glyph-name="afii62808" unicode="&#x641;" horiz-adv-x="635" arabic-form="initial" 
d="M634 167q0 -138 -110 -159q-37 -7 -424 -7h-140q-50 0 -50 50v117h160q33 0 100 -4t101 -4q81 0 176 8q-179 73 -223 109q-40 33 -40 106q0 81 80 207q85 133 156 133q100 0 160 -176q54 -157 54 -380zM513 993l-76 -132l-204 112l78 136zM553 285q-6 68 -49 158
q-53 108 -109 108q-37 0 -78 -44q-34 -36 -52 -78z" />
    <glyph glyph-name="afii62809" unicode="&#x641;" horiz-adv-x="635" arabic-form="medial" 
d="M634 167q0 -138 -110 -159q-37 -7 -424 -7h-140q-50 0 -50 50v117h160q33 0 100 -4t101 -4q81 0 176 8q-179 73 -223 109q-40 33 -40 106q0 81 80 207q85 133 156 133q100 0 160 -176q54 -157 54 -380zM553 285q-6 68 -49 158q-53 108 -109 108q-37 0 -78 -44
q-34 -36 -52 -78zM513 993l-76 -132l-204 112l78 136z" />
    <glyph glyph-name="afii62813" unicode="&#x642;" horiz-adv-x="1206" arabic-form="final" 
d="M1198 -122q-44 -172 -259 -290q-192 -106 -385 -106q-175 0 -276 110q-97 106 -97 283q0 146 63 279q18 37 31 46t13 -13q0 -14 -8 -43q-32 -115 -32 -203q0 -288 310 -288q322 0 547 231q2 7 2 19q0 35 -15 97q-68 -7 -104 -7q-102 0 -171 47q-80 54 -80 151
q0 80 62 202q71 139 143 139q98 0 176 -145q60 -110 75 -220q28 -199 5 -289zM1070 166q-66 180 -172 180q-26 0 -46 -26.5t-20 -53.5q0 -103 184 -103q26 0 54 3zM1123 838l-76 -132l-187 103l-57 -99l-204 112l78 136l185 -106l59 102z" />
    <glyph glyph-name="afii62811" unicode="&#x642;" horiz-adv-x="635" arabic-form="initial" 
d="M593 983l-76 -132l-187 103l-57 -99l-204 112l78 136l185 -106l59 102zM634 167q0 -138 -110 -159q-37 -7 -424 -7h-140q-50 0 -50 50v117h160q33 0 100 -4t101 -4q81 0 176 8q-179 73 -223 109q-40 33 -40 106q0 81 80 207q85 133 156 133q100 0 160 -176
q54 -157 54 -380zM553 285q-6 68 -49 158q-53 108 -109 108q-37 0 -78 -44q-34 -36 -52 -78z" />
    <glyph glyph-name="afii62812" unicode="&#x642;" horiz-adv-x="635" arabic-form="medial" 
d="M634 167q0 -138 -110 -159q-37 -7 -424 -7h-140q-50 0 -50 50v117h160q33 0 100 -4t101 -4q81 0 176 8q-179 73 -223 109q-40 33 -40 106q0 81 80 207q85 133 156 133q100 0 160 -176q54 -157 54 -380zM553 285q-6 68 -49 158q-53 108 -109 108q-37 0 -78 -44
q-34 -36 -52 -78zM593 983l-76 -132l-187 103l-57 -99l-204 112l78 136l185 -106l59 102z" />
    <glyph glyph-name="afii62816" unicode="&#x643;" horiz-adv-x="1515" arabic-form="final" 
d="M1514 178q0 -24 -9 -74q-11 -58 -21 -68q-39 -37 -422 -60q-150 -9 -375 -9q-261 0 -373 51q-133 61 -133 218q0 107 51 190q23 38 37 38q7 0 7 -13q0 -11 -5 -27q-20 -62 -13 -112q17 -128 161 -162q62 -15 254 -15q413 0 686 35q-78 77 -245 234q-72 68 -218 184
l-42 -50q-170 153 -170 186q0 58 30 122q38 80 102 108l698 306l-56 -200q-181 -67 -632 -252q198 -157 370 -308q318 -279 318 -322z" />
    <glyph glyph-name="afii57410" unicode="&#x643;" horiz-adv-x="845" arabic-form="initial" 
d="M844 178q0 -24 -9 -74q-11 -58 -21 -68q-47 -44 -422 -44q-59 0 -176 4.5t-176 4.5h-79q-51 0 -51 50v117h182q-13 0 328 -4q173 -2 269 6q-78 77 -245 234q-72 68 -218 184l-42 -50q-170 153 -170 186q0 58 30 122q38 80 102 108l698 306l-56 -200q-181 -67 -632 -252
q198 -157 370 -308q318 -279 318 -322z" />
    <glyph glyph-name="afii62815" unicode="&#x643;" horiz-adv-x="845" arabic-form="medial" 
d="M844 178q0 -24 -9 -74q-11 -58 -21 -68q-47 -44 -422 -44q-59 0 -176 4.5t-176 4.5h-79q-51 0 -51 50v117h182q-13 0 328 -4q173 -2 269 6q-78 77 -245 234q-72 68 -218 184l-42 -50q-170 153 -170 186q0 58 30 122q38 80 102 108l698 306l-56 -200q-181 -67 -632 -252
q198 -157 370 -308q318 -279 318 -322z" />
    <glyph glyph-name="afii62819" unicode="&#x644;" horiz-adv-x="1070" arabic-form="final" 
d="M1071 -41q5 -123 -140 -237q-160 -126 -377 -126q-172 0 -272.5 99t-100.5 270q0 164 77 292q27 45 38 45q6 0 6 -11q0 -15 -10 -48q-27 -88 -27 -175q0 -304 286 -304q148 0 287 78q125 70 121 120l-81 1092l114 129q7 8 22 17q9 0 10 -28z" />
    <glyph glyph-name="afii62817" unicode="&#x644;" horiz-adv-x="451" arabic-form="initial" 
d="M450 41q2 -44 -225 -44q20 0 -193 3l-71 1q-51 1 -51 50v117h113q34 0 88 -3q51 -3 70 -3q55 1 153 10v121q0 104 -100 799l122 142q24 28 34 28q11 0 12 -36z" />
    <glyph glyph-name="afii62818" unicode="&#x644;" horiz-adv-x="451" arabic-form="medial" 
d="M450 41q2 -44 -225 -44q20 0 -193 3l-71 1q-51 1 -51 50v117h113q34 0 88 -3q51 -3 70 -3q55 1 153 10v121q0 104 -100 799l122 142q24 28 34 28q11 0 12 -36z" />
    <glyph glyph-name="afii62822" unicode="&#x645;" horiz-adv-x="942" arabic-form="final" 
d="M936 119l-38 -118q-59 -2 -158 2q-122 5 -174 5q-260 0 -260 -50q0 -11 32 -146q34 -142 44 -208q25 -160 18 -236q-8 -89 -43 -140q-15 -22 -21 -24q-9 0 -24 104q-22 165 -27 194t-11 59q-4 21 -62 257q-32 130 -32 157q0 17 28.5 79t39.5 68q92 51 395 47
q-138 143 -161 143q-32 0 -186 -82l10 92q182 188 226 188q28 0 129 -117q128 -148 157 -173q52 -45 101 -61q27 -9 17 -40z" />
    <glyph glyph-name="afii62820" unicode="&#x645;" horiz-adv-x="850" arabic-form="initial" 
d="M849 169q0 -163 -165 -163q-186 0 -315 103q-65 -108 -184 -108h-225q-50 0 -50 50v117h304q123 0 146 58q117 293 234 293q75 0 162 -109q93 -116 93 -241zM732 202q-12 70 -61 126q-43 50 -74 50q-64 0 -155 -128q94 -79 239 -92q31 -3 43.5 6t7.5 38z" />
    <glyph glyph-name="afii62821" unicode="&#x645;" horiz-adv-x="849" arabic-form="medial" 
d="M849 169q0 -163 -165 -163q-186 0 -315 103q-65 -108 -184 -108h-225q-50 0 -50 50v117h304q123 0 146 58q117 293 234 293q75 0 162 -109q93 -116 93 -241zM732 202q-12 70 -61 126q-43 50 -74 50q-64 0 -155 -128q94 -79 239 -92q31 -3 43.5 6t7.5 38z" />
    <glyph glyph-name="afii62825" unicode="&#x646;" horiz-adv-x="1163" arabic-form="final" 
d="M1162 36q0 -182 -61 -283q-44 -72 -178 -137q-166 -80 -361 -80q-381 0 -381 315q0 186 136 352q38 46 53 46q5 0 5 -8q0 -17 -24 -62q-77 -143 -77 -257q0 -216 303 -216q189 0 349 73q134 61 134 99q0 159 -124 354l86 130q11 17 16 17q5 1 16 -14q108 -143 108 -329z
M783 743l-76 -132l-204 112l78 136z" />
    <glyph glyph-name="afii62823" unicode="&#x646;" horiz-adv-x="544" arabic-form="initial" 
d="M573 152q0 -99 -61 -130q-57 -29 -275 -29q-33 0 -98 4t-98 4h-81q-50 0 -50 47v120h126q29 0 88 -4t89 -4q160 0 203 11q26 7 26 31q0 31 -110 182l84 180q66 -76 111.5 -194.5t45.5 -217.5zM403 913l-76 -132l-204 112l78 136z" />
    <glyph glyph-name="afii62824" unicode="&#x646;" horiz-adv-x="544" arabic-form="medial" 
d="M573 152q0 -99 -61 -130q-57 -29 -275 -29q-33 0 -98 4t-98 4h-81q-50 0 -50 47v120h126q29 0 88 -4t89 -4q160 0 203 11q26 7 26 31q0 31 -110 182l84 180q66 -76 111.5 -194.5t45.5 -217.5zM403 913l-76 -132l-204 112l78 136z" />
    <glyph glyph-name="afii62828" unicode="&#x647;" horiz-adv-x="822" arabic-form="final" 
d="M853 2h-144q-112 0 -145 111q-5 17 -19 181q-80 -103 -101 -103q-74 0 -160 49q-93 54 -106 122q39 109 121 206q32 38 215 96l-5 84q33 41 88 112q16 -90 30 -456q6 -143 20 -185q18 -51 76 -51h130v-166zM542 372q-5 82 -16 218q-63 -63 -111 -89q-39 -21 -115 -41
q82 -103 193 -103q32 0 49 15z" />
    <glyph glyph-name="afii62827" unicode="&#x6be;" horiz-adv-x="810" arabic-form="final" 
d="M842 1h-250q39 -31 39 -94q0 -74 -28 -197q-35 -156 -81 -156q-103 0 -187 104q-98 122 -124 343h-249q-50 0 -50 50v117h327q98 319 278 459q40 31 56 31q15 0 27 -44q33 -122 33 -296q0 -22 -1 -40q-20 -70 -70 -110h280v-167zM526 238q9 36 2 110q-7 81 -28 112
q-120 -99 -174 -288q147 22 200 66zM546 -158q-65 145 -232 178q12 -98 83 -194q68 -92 121 -92q35 0 35 73q0 19 -7 35z" />
    <glyph glyph-name="afii62829" unicode="&#x648;" horiz-adv-x="971" arabic-form="final" 
d="M970 128q0 -209 -137 -395q-149 -203 -351 -203q-111 0 -223 93q-100 82 -151 193q-12 26 -12 36q0 7 5 7q10 0 33 -23q151 -148 300 -148q156 0 290 112q110 92 138 185q-144 11 -199 45q-79 48 -79 176q0 90 56 197q62 118 131 118q89 0 150 -159q49 -128 49 -234z
M880 144q-13 61 -41 109q-37 63 -81 63q-30 0 -54 -28t-24 -58q0 -75 200 -86z" />
    <glyph glyph-name="afii62830" unicode="&#x649;" horiz-adv-x="1230" arabic-form="final" 
d="M1260 1h-56q-74 0 -153 -15q-109 -20 -135 -58q40 -27 181 -62q117 -29 117 -50q0 -43 -14 -105q-16 -70 -38 -97q-78 -97 -261 -160q-169 -58 -329 -58q-174 0 -277 81q-113 89 -113 257q0 103 44.5 215t114.5 191q32 36 32 10q0 -8 -7 -22q-98 -193 -98 -316
q0 -126 111 -187q88 -49 225 -49q94 0 223 28q153 33 215 82q-52 17 -155 52q-99 35 -99 92q0 184 153 273q112 65 265 65h54v-167z" />
    <glyph glyph-name="afii62833" unicode="&#x64a;" horiz-adv-x="1230" arabic-form="final" 
d="M1260 1h-56q-74 0 -153 -15q-109 -20 -135 -58q40 -27 181 -62q117 -29 117 -50q0 -43 -14 -105q-16 -70 -38 -97q-78 -97 -261 -160q-169 -58 -329 -58q-174 0 -277 81q-113 89 -113 257q0 103 44.5 215t114.5 191q32 36 32 10q0 -8 -7 -22q-98 -193 -98 -316
q0 -126 111 -187q88 -49 225 -49q94 0 223 28q153 33 215 82q-52 17 -155 52q-99 35 -99 92q0 184 153 273q112 65 265 65h54v-167zM873 -867l-76 -132l-187 103l-57 -99l-204 112l78 136l185 -106l59 102z" />
    <glyph glyph-name="afii62831" unicode="&#x64a;" horiz-adv-x="580" arabic-form="initial" 
d="M573 152q0 -99 -61 -130q-57 -29 -275 -29q-33 0 -98 4t-98 4h-81q-50 0 -50 47v120h126q29 0 88 -4t89 -4q160 0 203 11q26 7 26 31q0 31 -110 182l84 180q66 -76 111.5 -194.5t45.5 -217.5zM553 -387l-76 -132l-187 103l-57 -99l-204 112l78 136l185 -106l59 102z" />
    <glyph glyph-name="afii62832" unicode="&#x64a;" horiz-adv-x="580" arabic-form="medial" 
d="M573 152q0 -99 -61 -130q-57 -29 -275 -29q-33 0 -98 4t-98 4h-81q-50 0 -50 47v120h126q29 0 88 -4t89 -4q160 0 203 11q26 7 26 31q0 31 -110 182l84 180q66 -76 111.5 -194.5t45.5 -217.5zM553 -387l-76 -132l-187 103l-57 -99l-204 112l78 136l185 -106l59 102z" />
    <glyph glyph-name="uni0676.fina" unicode="&#x676;" horiz-adv-x="971" 
d="M970 128q0 -209 -137 -395q-149 -203 -351 -203q-111 0 -223 93q-100 82 -151 193q-12 26 -12 36q0 7 5 7q10 0 33 -23q151 -148 300 -148q156 0 290 112q110 92 138 185q-144 11 -199 45q-79 48 -79 176q0 90 56 197q62 118 131 118q89 0 150 -159q49 -128 49 -234z
M880 144q-13 61 -41 109q-37 63 -81 63q-30 0 -54 -28t-24 -58q0 -75 200 -86zM882 884q-11 -50 -35 -109q-63 -14 -130 -40q-53 -21 -127 -69q-44 -29 -51 -29q-38 0 -31 25q23 49 111 115q-86 88 -96 134q33 88 63 119q42 43 123 43q52 0 85 -12v-104q-54 26 -107 26
q-48 0 -86 -22q12 -27 51 -63q46 -43 94 -59q26 10 136 45z" />
    <glyph glyph-name="unifbda" unicode="&#x6c6;" horiz-adv-x="971" arabic-form="final" 
d="M970 128q0 -209 -137 -395q-149 -203 -351 -203q-111 0 -223 93q-100 82 -151 193q-12 26 -12 36q0 7 5 7q10 0 33 -23q151 -148 300 -148q156 0 290 112q110 92 138 185q-144 11 -199 45q-79 48 -79 176q0 90 56 197q62 118 131 118q89 0 150 -159q49 -128 49 -234z
M880 144q-13 61 -41 109q-37 63 -81 63q-30 0 -54 -28t-24 -58q0 -75 200 -86zM937 880q2 -7 -2 -11q-48 -37 -93 -111q-13 -20 -67 -128q-6 -11 -9 -11t-8 11l-28 62q-57 114 -138 184l26 34q5 6 6 6q2 -1 7 -5q38 -27 79 -92q34 -55 60 -117q67 146 145 210q6 5 8 5
q3 0 5 -7z" />
    <glyph glyph-name="FY1" unicode="&#x6cc;" horiz-adv-x="580" arabic-form="initial" 
d="M573 152q0 -99 -61 -130q-57 -29 -275 -29q-33 0 -98 4t-98 4h-81q-50 0 -50 47v120h126q29 0 88 -4t89 -4q160 0 203 11q26 7 26 31q0 31 -110 182l84 180q66 -76 111.5 -194.5t45.5 -217.5zM553 -387l-76 -132l-187 103l-57 -99l-204 112l78 136l185 -106l59 102z" />
    <glyph glyph-name="FY2" unicode="&#x6cc;" horiz-adv-x="580" arabic-form="medial" 
d="M573 152q0 -99 -61 -130q-57 -29 -275 -29q-33 0 -98 4t-98 4h-81q-50 0 -50 47v120h126q29 0 88 -4t89 -4q160 0 203 11q26 7 26 31q0 31 -110 182l84 180q66 -76 111.5 -194.5t45.5 -217.5zM553 -387l-76 -132l-187 103l-57 -99l-204 112l78 136l185 -106l59 102z" />
    <glyph glyph-name=".notdef" horiz-adv-x="1536" 
d="M256 0v1280h1024v-1280h-1024zM288 32h960v1216h-960v-1216z" />
    <glyph glyph-name=".null" horiz-adv-x="0" 
 />
    <glyph glyph-name="nonmarkingreturn" horiz-adv-x="640" 
 />
    <glyph glyph-name="space" unicode=" " horiz-adv-x="640" 
 />
    <glyph glyph-name="exclam" unicode="!" horiz-adv-x="378" 
d="M375 984l-77 -698h-36l-79 695q-1 9 -1 18q0 47 24 82q28 40 72 40q98 0 98 -114q0 -14 -1 -23zM375 9q0 -41 -28 -69t-69 -28t-69 28t-28 69t28 69t69 28t69 -28t28 -69z" />
    <glyph glyph-name="quotedbl" unicode="&#x22;" horiz-adv-x="459" 
d="M370 1001q11 62 11 108q0 88 -49 140l74 84q51 -57 51 -154q0 -123 -87 -178zM300 1139q-19 -102 -84 -144q7 66 7 109q0 92 -45 140l73 84q52 -58 52 -155q0 -18 -3 -34z" />
    <glyph glyph-name="numbersign" unicode="#" 
d="M103 -25l87 426h-169v149h199l74 363h-273v149h303l87 429h150l-87 -429h315l87 429h151l-87 -429h173v-149h-203l-75 -363h278v-149h-308l-87 -426h-150l86 426h-314l-87 -426h-150zM370 550h314l75 363h-315z" />
    <glyph glyph-name="dollar" unicode="$" 
d="M510 -211v180q-135 17 -219.5 60.5t-146 140.5t-71.5 237l181 34q21 -145 74 -213q76 -96 182 -107v573q-111 21 -227 86q-86 48 -132.5 133t-46.5 193q0 192 136 311q91 80 270 98v86h106v-86q157 -15 249 -92q118 -98 142 -269l-186 -28q-16 106 -66.5 162.5
t-138.5 74.5v-519q136 -34 180 -53q84 -37 137 -90t81.5 -126t28.5 -158q0 -187 -119 -312t-308 -134v-182h-106zM510 1365q-105 -16 -165.5 -84t-60.5 -161q0 -92 51.5 -154t174.5 -99v498zM616 121q105 13 173.5 91t68.5 193q0 98 -48.5 157.5t-193.5 106.5v-548z" />
    <glyph glyph-name="percent" unicode="%" horiz-adv-x="1821" 
d="M119 1114q0 157 79 267t229 110q138 0 228.5 -98.5t90.5 -289.5q0 -186 -91.5 -286.5t-225.5 -100.5q-133 0 -221.5 99t-88.5 299zM432 1367q-67 0 -111.5 -58t-44.5 -213q0 -141 45 -198.5t111 -57.5q68 0 112.5 58t44.5 212q0 142 -45 199.5t-112 57.5zM433 -54
l802 1545h146l-799 -1545h-149zM1067 344q0 158 79 267.5t230 109.5q138 0 228.5 -98.5t90.5 -289.5q0 -186 -91.5 -286.5t-226.5 -100.5q-133 0 -221.5 99.5t-88.5 298.5zM1381 597q-68 0 -112.5 -58t-44.5 -213q0 -140 45 -198t111 -58q69 0 113.5 58t44.5 212
q0 142 -45 199.5t-112 57.5z" />
    <glyph glyph-name="ampersand" unicode="&#x26;" horiz-adv-x="1366" 
d="M973 173q-89 -99 -194 -148.5t-227 -49.5q-225 0 -357 152q-107 124 -107 277q0 136 87.5 245.5t261.5 192.5q-99 114 -132 185t-33 137q0 132 103.5 229.5t260.5 97.5q150 0 245.5 -92t95.5 -221q0 -209 -277 -357l263 -335q45 88 70 204l187 -40q-48 -192 -130 -316
q101 -134 229 -225l-121 -143q-109 70 -225 207zM607 937q117 69 151.5 121t34.5 115q0 75 -47.5 122.5t-118.5 47.5q-73 0 -121.5 -47t-48.5 -115q0 -34 17.5 -71.5t52.5 -79.5zM860 315l-330 409q-146 -87 -197 -161.5t-51 -147.5q0 -89 71 -185t201 -96q81 0 167.5 50.5
t138.5 130.5z" />
    <glyph glyph-name="quotesingle" unicode="'" horiz-adv-x="320" 
d="M267 1342q0 -43 -12 -114l-54 -321h-39l-49 325q-12 80 -12 110q0 95 85 95q81 0 81 -95z" />
    <glyph glyph-name="parenleft" unicode="(" horiz-adv-x="548" 
d="M174 377q0 307 131 589q61 131 195 321q22 32 31 32q6 0 6 -13q0 -9 -7 -25q-91 -212 -130 -351q-75 -266 -75 -554q0 -294 78 -568q39 -137 135 -361q7 -16 7 -25t-6 -9q-11 0 -31 28q-134 184 -202 332q-132 289 -132 604z" />
    <glyph glyph-name="parenright" unicode=")" horiz-adv-x="548" 
d="M546 351q0 -307 -131 -589q-61 -131 -195 -321q-22 -32 -31 -32q-6 0 -6 13q0 9 7 25q91 212 130 351q75 266 75 554q0 294 -78 568q-39 137 -135 361q-7 16 -7 25t6 9q11 0 31 -28q134 -184 202 -332q132 -289 132 -604z" />
    <glyph glyph-name="asterisk" unicode="*" horiz-adv-x="1176" 
d="M602 801q3 -17 3 -33q0 -57 -23.5 -119.5t-34.5 -64.5q-10 -5 -38 62q-31 75 -31 132q0 15 2 32t19.5 31.5t41.5 14.5q49 0 61 -55zM451 547q-11 -5 -101 36q-98 44 -121 79q-9 14 -9 30q0 29 24.5 52.5t61.5 23.5q13 0 20 -2q30 -8 82.5 -109.5t42.5 -109.5zM870 645
q-43 -29 -129 -66.5t-94 -31.5q16 39 32 79q45 81 83 124q13 12 34 12q31 0 61 -27t30 -56q0 -20 -17 -34zM551 530q34 0 54 -21t20 -48t-21 -45.5t-63 -18.5q-32 0 -48 18t-16 44q0 28 20.5 49.5t53.5 21.5zM414 459q3 -11 -89 -36.5t-141 -25.5q-27 4 -42.5 23.5
t-15.5 45.5q0 23 12.5 40t37.5 22q18 2 28 2q60 0 139 -32q71 -29 71 -39zM928 389q-11 -3 -24 -3q-50 0 -132 30t-82 41q0 14 79 41t132 27q15 0 27 -3q25 -4 39 -21.5t14 -39.5q0 -50 -53 -72zM451 377q17 -11 -41 -106q-33 -53 -68 -81q-17 -14 -41 -14q-30 0 -56 19
t-26 46q0 47 112 97q104 46 120 39zM872 221q0 -23 -23.5 -42.5t-52.5 -19.5q-22 0 -40 15q-46 36 -84.5 113.5t-28.5 85.5q12 12 117 -41q112 -57 112 -111zM616 135q0 -27 -22 -43.5t-50 -16.5q-26 0 -44.5 13.5t-21.5 34t-3 30.5q0 50 29 120q25 61 37 67
q13 2 46.5 -81.5t28.5 -123.5z" />
    <glyph glyph-name="plus" unicode="+" horiz-adv-x="933" 
d="M880 390h-368v-364h-94v364h-364v94h366v368h93v-368h367v-94z" />
    <glyph glyph-name="comma" unicode="," horiz-adv-x="432" 
d="M174 -171q8 14 69 69q52 48 75 107q-123 25 -123 114q0 46 31.5 75t77.5 29q57 0 90 -44q30 -40 30 -98q0 -80 -70 -171q-62 -80 -140 -127q-40 2 -40 46z" />
    <glyph glyph-name="hyphen" unicode="-" horiz-adv-x="933" 
d="M880 390h-826v94h826v-94z" />
    <glyph glyph-name="period" unicode="." horiz-adv-x="394" 
d="M392 105q0 -43 -31 -73t-74 -30t-74 30t-31 73t31 74t74 31t74 -31t31 -74z" />
    <glyph glyph-name="slash" unicode="/" horiz-adv-x="570" 
d="M509 1192l-379 -1412h-80l375 1414z" />
    <glyph glyph-name="zero" unicode="0" 
d="M85 723q0 260 53.5 418.5t159 244.5t265.5 86q118 0 207 -47.5t147 -137t91 -218t33 -346.5q0 -258 -53 -416.5t-158.5 -245t-266.5 -86.5q-212 0 -333 152q-145 183 -145 596zM270 723q0 -361 84.5 -480.5t208.5 -119.5t208.5 120t84.5 480q0 362 -84.5 481t-210.5 119
q-124 0 -198 -105q-93 -134 -93 -495z" />
    <glyph glyph-name="one" unicode="1" 
d="M763 0h-180v1147q-65 -62 -170.5 -124t-189.5 -93v174q151 71 264 172t160 196h116v-1472z" />
    <glyph glyph-name="two" unicode="2" 
d="M1031 173v-173h-969q-2 65 21 125q37 99 118.5 195t235.5 222q239 196 323 310.5t84 216.5q0 107 -76.5 180.5t-199.5 73.5q-130 0 -208 -78t-79 -216l-185 19q19 207 143 315.5t333 108.5q211 0 334 -117t123 -290q0 -88 -36 -173t-119.5 -179t-277.5 -258
q-162 -136 -208 -184.5t-76 -97.5h719z" />
    <glyph glyph-name="three" unicode="3" 
d="M86 387l180 24q31 -153 105.5 -220.5t181.5 -67.5q127 0 214.5 88t87.5 218q0 124 -81 204.5t-206 80.5q-51 0 -127 -20l20 158q18 -2 29 -2q115 0 207 60t92 185q0 99 -67 164t-173 65q-105 0 -175 -66t-90 -198l-180 32q33 181 150 280.5t291 99.5q120 0 221 -51.5
t154.5 -140.5t53.5 -189q0 -95 -51 -173t-151 -124q130 -30 202 -124.5t72 -236.5q0 -192 -140 -325.5t-354 -133.5q-193 0 -320.5 115t-145.5 298z" />
    <glyph glyph-name="four" unicode="4" 
d="M662 0v351h-636v165l669 950h147v-950h198v-165h-198v-351h-180zM662 516v661l-459 -661h459z" />
    <glyph glyph-name="five" unicode="5" 
d="M85 384l189 16q21 -138 97.5 -207.5t184.5 -69.5q130 0 220 98t90 260q0 154 -86.5 243t-226.5 89q-87 0 -157 -39.5t-110 -102.5l-169 22l142 753h729v-172h-585l-79 -394q132 92 277 92q192 0 324 -133t132 -342q0 -199 -116 -344q-141 -178 -385 -178
q-200 0 -326.5 112t-144.5 297z" />
    <glyph glyph-name="six" unicode="6" 
d="M1019 1107l-179 -14q-24 106 -68 154q-73 77 -180 77q-86 0 -151 -48q-85 -62 -134 -181t-51 -339q65 99 159 147t197 48q180 0 306.5 -132.5t126.5 -342.5q0 -138 -59.5 -256.5t-163.5 -181.5t-236 -63q-225 0 -367 165.5t-142 545.5q0 425 157 618q137 168 369 168
q173 0 283.5 -97t132.5 -268zM284 475q0 -93 39.5 -178t110.5 -129.5t149 -44.5q114 0 196 92t82 250q0 152 -81 239.5t-204 87.5q-122 0 -207 -87.5t-85 -229.5z" />
    <glyph glyph-name="seven" unicode="7" 
d="M97 1274v173h949v-140q-140 -149 -277.5 -396t-212.5 -508q-54 -184 -69 -403h-185q3 173 68 418t186.5 472.5t258.5 383.5h-718z" />
    <glyph glyph-name="eight" unicode="8" 
d="M362 795q-112 41 -166 117t-54 182q0 160 115 269t306 109q192 0 309 -111.5t117 -271.5q0 -102 -53.5 -177.5t-162.5 -116.5q135 -44 205.5 -142t70.5 -234q0 -188 -133 -316t-350 -128t-350 128.5t-133 320.5q0 143 72.5 239.5t206.5 131.5zM326 1100q0 -104 67 -170
t174 -66q104 0 170.5 65.5t66.5 160.5q0 99 -68.5 166.5t-170.5 67.5q-103 0 -171 -66t-68 -158zM268 423q0 -77 36.5 -149t108.5 -111.5t155 -39.5q129 0 213 83t84 211q0 130 -86.5 215t-216.5 85q-127 0 -210.5 -84t-83.5 -210z" />
    <glyph glyph-name="nine" unicode="9" 
d="M112 339l173 16q22 -122 84 -177t159 -55q83 0 145.5 38t102.5 101.5t67 171.5t27 220q0 12 -1 36q-54 -86 -147.5 -139.5t-202.5 -53.5q-182 0 -308 132t-126 348q0 223 131.5 359t329.5 136q143 0 261.5 -77t180 -219.5t61.5 -412.5q0 -281 -61 -447.5t-181.5 -253.5
t-282.5 -87q-172 0 -281 95.5t-131 268.5zM849 986q0 155 -82.5 246t-198.5 91q-120 0 -209 -98t-89 -254q0 -140 84.5 -227.5t208.5 -87.5q125 0 205.5 87.5t80.5 242.5z" />
    <glyph glyph-name="colon" unicode=":" horiz-adv-x="394" 
d="M392 635q0 -43 -31 -73t-74 -30t-74 30t-31 73t31 74t74 31t74 -31t31 -74zM392 105q0 -43 -31 -73t-74 -30t-74 30t-31 73t31 74t74 31t74 -31t31 -74z" />
    <glyph glyph-name="semicolon" unicode=";" horiz-adv-x="569" 
d="M182 857v205h205v-205h-205zM182 0v205h205v-205q0 -113 -40 -182.5t-127 -107.5l-50 77q57 25 84 73.5t30 139.5h-102z" />
    <glyph glyph-name="less" unicode="&#x3c;" horiz-adv-x="1196" 
d="M112 641v168l971 410v-179l-770 -316l770 -319v-179z" />
    <glyph glyph-name="equal" unicode="=" horiz-adv-x="1196" 
d="M1082 862h-968v168h968v-168zM1082 417h-968v168h968v-168z" />
    <glyph glyph-name="greater" unicode="&#x3e;" horiz-adv-x="1196" 
d="M1083 641l-971 -415v179l769 319l-769 316v179l971 -410v-168z" />
    <glyph glyph-name="question" unicode="?" 
d="M472 361q-1 36 -1 54q0 106 30 183q22 58 71 117q36 43 129.5 125.5t121.5 131.5t28 107q0 105 -82 184.5t-201 79.5q-115 0 -192 -72t-101 -225l-185 22q25 205 148.5 314t326.5 109q215 0 343 -117t128 -283q0 -96 -45 -177t-176 -197q-88 -78 -115 -115t-40 -85
t-15 -156h-173zM461 0v205h205v-205h-205z" />
    <glyph glyph-name="at" unicode="@" horiz-adv-x="2079" 
d="M1161 163q-65 -75 -145.5 -120.5t-161.5 -45.5q-89 0 -173 52t-136.5 160t-52.5 237q0 159 81.5 318.5t202.5 239.5t235 80q87 0 166 -45.5t136 -138.5l34 155h179l-144 -671q-30 -140 -30 -155q0 -27 20.5 -46.5t49.5 -19.5q53 0 139 61q114 80 180.5 214.5t66.5 277.5
q0 167 -85.5 312t-255 232t-374.5 87q-234 0 -427.5 -109.5t-300 -314t-106.5 -438.5q0 -245 106.5 -422t308 -261.5t446.5 -84.5q262 0 439 88t265 214h181q-51 -105 -175 -214t-295 -172.5t-412 -63.5q-222 0 -409.5 57t-319.5 171.5t-199 263.5q-84 189 -84 408
q0 244 100 465q122 271 346.5 415t544.5 144q248 0 445.5 -101.5t311.5 -302.5q97 -173 97 -376q0 -290 -204 -515q-182 -202 -398 -202q-69 0 -111.5 21t-62.5 60q-13 25 -19 86zM677 434q0 -137 65 -213t149 -76q56 0 118 33.5t118.5 99.5t92.5 167.5t36 203.5
q0 136 -67.5 211t-164.5 75q-64 0 -120.5 -32.5t-109.5 -104.5t-85 -175t-32 -189z" />
    <glyph glyph-name="A" unicode="A" horiz-adv-x="1366" 
d="M-3 0l563 1466h209l600 -1466h-221l-171 444h-613l-161 -444h-206zM420 602h497l-153 406q-70 185 -104 304q-28 -141 -79 -280z" />
    <glyph glyph-name="B" unicode="B" horiz-adv-x="1366" 
d="M150 0v1466h550q168 0 269.5 -44.5t159 -137t57.5 -193.5q0 -94 -51 -177t-154 -134q133 -39 204.5 -133t71.5 -222q0 -103 -43.5 -191.5t-107.5 -136.5t-160.5 -72.5t-236.5 -24.5h-559zM344 850h317q129 0 185 17q74 22 111.5 73t37.5 128q0 73 -35 128.5t-100 76
t-223 20.5h-293v-443zM344 173h365q94 0 132 7q67 12 112 40t74 81.5t29 123.5q0 82 -42 142.5t-116.5 85t-214.5 24.5h-339v-504z" />
    <glyph glyph-name="C" unicode="C" horiz-adv-x="1479" 
d="M1204 514l194 -49q-61 -239 -219.5 -364.5t-387.5 -125.5q-237 0 -385.5 96.5t-226 279.5t-77.5 393q0 229 87.5 399.5t249 259t355.5 88.5q220 0 370 -112t209 -315l-191 -45q-51 160 -148 233t-244 73q-169 0 -282.5 -81t-159.5 -217.5t-46 -281.5q0 -187 54.5 -326.5
t169.5 -208.5t249 -69q163 0 276 94t153 279z" />
    <glyph glyph-name="D" unicode="D" horiz-adv-x="1479" 
d="M158 0v1466h505q171 0 261 -21q126 -29 215 -105q116 -98 173.5 -250.5t57.5 -348.5q0 -167 -39 -296t-100 -213.5t-133.5 -133t-175 -73.5t-235.5 -25h-529zM352 173h313q145 0 227.5 27t131.5 76q69 69 107.5 185.5t38.5 282.5q0 230 -75.5 353.5t-183.5 165.5
q-78 30 -251 30h-308v-1120z" />
    <glyph glyph-name="E" unicode="E" horiz-adv-x="1366" 
d="M162 0v1466h1060v-173h-866v-449h811v-172h-811v-499h900v-173h-1094z" />
    <glyph glyph-name="F" unicode="F" horiz-adv-x="1251" 
d="M168 0v1466h989v-173h-795v-454h688v-173h-688v-666h-194z" />
    <glyph glyph-name="G" unicode="G" horiz-adv-x="1593" 
d="M844 575v172l621 1v-544q-143 -114 -295 -171.5t-312 -57.5q-216 0 -392.5 92.5t-266.5 267.5t-90 391q0 214 89.5 399.5t257.5 275.5t387 90q159 0 287.5 -51.5t201.5 -143.5t111 -240l-175 -48q-33 112 -82 176t-140 102.5t-202 38.5q-133 0 -230 -40.5t-156.5 -106.5
t-92.5 -145q-56 -136 -56 -295q0 -196 67.5 -328t196.5 -196t274 -64q126 0 246 48.5t182 103.5v273h-431z" />
    <glyph glyph-name="H" unicode="H" horiz-adv-x="1479" 
d="M164 0v1466h194v-602h762v602h194v-1466h-194v691h-762v-691h-194z" />
    <glyph glyph-name="I" unicode="I" horiz-adv-x="569" 
d="M191 0v1466h194v-1466h-194z" />
    <glyph glyph-name="J" unicode="J" horiz-adv-x="1024" 
d="M59 416l175 24q7 -168 63 -230t155 -62q73 0 126 33.5t73 91t20 183.5v1010h194v-999q0 -184 -44.5 -285t-141 -154t-226.5 -53q-193 0 -295.5 111t-98.5 330z" />
    <glyph glyph-name="K" unicode="K" horiz-adv-x="1366" 
d="M150 0v1466h194v-727l728 727h263l-615 -594l642 -872h-256l-522 742l-240 -234v-508h-194z" />
    <glyph glyph-name="L" unicode="L" 
d="M150 0v1466h194v-1293h722v-173h-916z" />
    <glyph glyph-name="M" unicode="M" horiz-adv-x="1706" 
d="M152 0v1466h292l347 -1038q48 -145 70 -217q25 80 78 235l351 1020h261v-1466h-187v1227l-426 -1227h-175l-424 1248v-1248h-187z" />
    <glyph glyph-name="N" unicode="N" horiz-adv-x="1479" 
d="M156 0v1466h199l770 -1151v1151h186v-1466h-199l-770 1152v-1152h-186z" />
    <glyph glyph-name="O" unicode="O" horiz-adv-x="1593" 
d="M99 714q0 365 196 571.5t506 206.5q203 0 366 -97t248.5 -270.5t85.5 -393.5q0 -223 -90 -399t-255 -266.5t-356 -90.5q-207 0 -370 100t-247 273t-84 366zM299 711q0 -265 142.5 -417.5t357.5 -152.5q219 0 360.5 154t141.5 437q0 179 -60.5 312.5t-177 207t-261.5 73.5
q-206 0 -354.5 -141.5t-148.5 -472.5z" />
    <glyph glyph-name="P" unicode="P" horiz-adv-x="1366" 
d="M158 0v1466h553q146 0 223 -14q108 -18 181 -68.5t117.5 -141.5t44.5 -200q0 -187 -119 -316.5t-430 -129.5h-376v-596h-194zM352 769h379q188 0 267 70t79 197q0 92 -46.5 157.5t-122.5 86.5q-49 13 -181 13h-375v-524z" />
    <glyph glyph-name="Q" unicode="Q" horiz-adv-x="1593" 
d="M1269 157q135 -93 249 -136l-57 -135q-158 57 -315 180q-163 -91 -360 -91q-199 0 -361 96t-249.5 270t-87.5 392q0 217 88 395t250.5 271t363.5 93q203 0 366 -96.5t248.5 -270t85.5 -391.5q0 -181 -55 -325.5t-166 -251.5zM842 405q168 -47 277 -140q171 156 171 469
q0 178 -60.5 311t-177 206.5t-261.5 73.5q-217 0 -360 -148.5t-143 -443.5q0 -286 141.5 -439t361.5 -153q104 0 196 39q-91 59 -192 84z" />
    <glyph glyph-name="R" unicode="R" horiz-adv-x="1479" 
d="M161 0v1466h650q196 0 298 -39.5t163 -139.5t61 -221q0 -156 -101 -263t-312 -136q77 -37 117 -73q85 -78 161 -195l255 -399h-244l-194 305q-85 132 -140 202t-98.5 98t-88.5 39q-33 7 -108 7h-225v-651h-194zM355 819h417q133 0 208 27.5t114 88t39 131.5
q0 104 -75.5 171t-238.5 67h-464v-485z" />
    <glyph glyph-name="S" unicode="S" horiz-adv-x="1366" 
d="M92 471l183 16q13 -110 60.5 -180.5t147.5 -114t225 -43.5q111 0 196 33t126.5 90.5t41.5 125.5q0 69 -40 120.5t-132 86.5q-59 23 -261 71.5t-283 91.5q-105 55 -156.5 136.5t-51.5 182.5q0 111 63 207.5t184 146.5t269 50q163 0 287.5 -52.5t191.5 -154.5t72 -231
l-186 -14q-15 139 -101.5 210t-255.5 71q-176 0 -256.5 -64.5t-80.5 -155.5q0 -79 57 -130q56 -51 292.5 -104.5t324.5 -93.5q128 -59 189 -149.5t61 -208.5q0 -117 -67 -220.5t-192.5 -161t-282.5 -57.5q-199 0 -333.5 58t-211 174.5t-80.5 263.5z" />
    <glyph glyph-name="T" unicode="T" horiz-adv-x="1251" 
d="M531 0v1293h-483v173h1162v-173h-485v-1293h-194z" />
    <glyph glyph-name="U" unicode="U" horiz-adv-x="1479" 
d="M1120 1466h194v-847q0 -221 -50 -351t-180.5 -211.5t-342.5 -81.5q-206 0 -337 71t-187 205.5t-56 367.5v847h194v-846q0 -191 35.5 -281.5t122 -139.5t211.5 -49q214 0 305 97t91 373v846z" />
    <glyph glyph-name="V" unicode="V" horiz-adv-x="1366" 
d="M577 0l-568 1466h210l381 -1065q46 -128 77 -240q34 120 79 240l396 1065h198l-574 -1466h-199z" />
    <glyph glyph-name="W" unicode="W" horiz-adv-x="1933" 
d="M414 0l-389 1466h199l223 -961q36 -151 62 -300q56 235 66 271l279 990h234l210 -742q79 -276 114 -519q28 139 73 319l230 942h195l-402 -1466h-187l-309 1117q-39 140 -46 172q-23 -101 -43 -172l-311 -1117h-198z" />
    <glyph glyph-name="X" unicode="X" horiz-adv-x="1366" 
d="M9 0l567 764l-500 702h231l266 -376q83 -117 118 -180q49 80 116 167l295 389h211l-515 -691l555 -775h-240l-369 523q-31 45 -64 98q-49 -80 -70 -110l-368 -511h-233z" />
    <glyph glyph-name="Y" unicode="Y" horiz-adv-x="1366" 
d="M571 0v621l-565 845h236l289 -442q80 -124 149 -248q66 115 160 259l284 431h226l-585 -845v-621h-194z" />
    <glyph glyph-name="Z" unicode="Z" horiz-adv-x="1251" 
d="M41 0v180l751 939q80 100 152 174h-818v173h1050v-173l-823 -1017l-89 -103h936v-173h-1159z" />
    <glyph glyph-name="bracketleft" unicode="[" horiz-adv-x="569" 
d="M139 -407v1873h397v-149h-217v-1575h217v-149h-397z" />
    <glyph glyph-name="backslash" unicode="\" horiz-adv-x="569" 
d="M425 -25l-425 1516h145l424 -1516h-144z" />
    <glyph glyph-name="bracketright" unicode="]" horiz-adv-x="569" 
d="M436 -407h-397v149h217v1575h-217v149h397v-1873z" />
    <glyph glyph-name="asciicircum" unicode="^" horiz-adv-x="961" 
d="M239 690h-185l353 801h145l355 -801h-181l-247 597z" />
    <glyph glyph-name="underscore" unicode="_" 
d="M-31 -407v130h1193v-130h-1193z" />
    <glyph glyph-name="grave" unicode="`" horiz-adv-x="682" 
d="M465 1194h-145l-231 280h241z" />
    <glyph glyph-name="a" unicode="a" 
d="M828 131q-100 -85 -192.5 -120t-198.5 -35q-175 0 -269 85.5t-94 218.5q0 78 35.5 142.5t93 103.5t129.5 59q53 14 160 27q218 26 321 62q1 37 1 47q0 110 -51 155q-69 61 -205 61q-127 0 -187.5 -44.5t-89.5 -157.5l-176 24q24 113 79 182.5t159 107t241 37.5
q136 0 221 -32t125 -80.5t56 -122.5q9 -46 9 -166v-240q0 -251 11.5 -317.5t45.5 -127.5h-188q-28 56 -36 131zM813 533q-98 -40 -294 -68q-111 -16 -157 -36t-71 -58.5t-25 -85.5q0 -72 54.5 -120t159.5 -48q104 0 185 45.5t119 124.5q29 61 29 180v66z" />
    <glyph glyph-name="b" unicode="b" 
d="M301 0h-167v1466h180v-523q114 143 291 143q98 0 185.5 -39.5t144 -111t88.5 -172.5t32 -216q0 -273 -135 -422t-324 -149q-188 0 -295 157v-133zM299 539q0 -191 52 -276q85 -139 230 -139q118 0 204 102.5t86 305.5q0 208 -82.5 307t-199.5 99q-118 0 -204 -102.5
t-86 -296.5z" />
    <glyph glyph-name="c" unicode="c" horiz-adv-x="1024" 
d="M828 389l177 -23q-29 -183 -148.5 -286.5t-293.5 -103.5q-218 0 -350.5 142.5t-132.5 408.5q0 172 57 301t173.5 193.5t253.5 64.5q173 0 283 -87.5t141 -248.5l-175 -27q-25 107 -88.5 161t-153.5 54q-136 0 -221 -97.5t-85 -308.5q0 -214 82 -311t214 -97q106 0 177 65
t90 200z" />
    <glyph glyph-name="d" unicode="d" 
d="M824 0v134q-101 -158 -297 -158q-127 0 -233.5 70t-165 195.5t-58.5 288.5q0 159 53 288.5t159 198.5t237 69q96 0 171 -40.5t122 -105.5v526h179v-1466h-167zM255 530q0 -204 86 -305t203 -101q118 0 200.5 96.5t82.5 294.5q0 218 -84 320t-207 102q-120 0 -200.5 -98
t-80.5 -309z" />
    <glyph glyph-name="e" unicode="e" 
d="M862 342l186 -23q-44 -163 -163 -253t-304 -90q-233 0 -369.5 143.5t-136.5 402.5q0 268 138 416t358 148q213 0 348 -145t135 -408q0 -16 -1 -48h-792q10 -175 99 -268t222 -93q99 0 169 52t111 166zM271 633h593q-12 134 -68 201q-86 104 -223 104q-124 0 -208.5 -83
t-93.5 -222z" />
    <glyph glyph-name="f" unicode="f" horiz-adv-x="569" 
d="M178 0v922h-159v140h159v113q0 107 19 159q26 70 91.5 113.5t183.5 43.5q76 0 168 -18l-27 -157q-56 10 -106 10q-82 0 -116 -35t-34 -131v-98h207v-140h-207v-922h-179z" />
    <glyph glyph-name="g" unicode="g" 
d="M102 -88l175 -26q11 -81 61 -118q67 -50 183 -50q125 0 193 50t92 140q14 55 13 231q-118 -139 -294 -139q-219 0 -339 158t-120 379q0 152 55 280.5t159.5 198.5t245.5 70q188 0 310 -152v128h166v-918q0 -248 -50.5 -351.5t-160 -163.5t-269.5 -60q-190 0 -307 85.5
t-113 257.5zM251 550q0 -209 83 -305t208 -96q124 0 208 95.5t84 299.5q0 195 -86.5 294t-208.5 99q-120 0 -204 -97.5t-84 -289.5z" />
    <glyph glyph-name="h" unicode="h" 
d="M135 0v1466h180v-526q126 146 318 146q118 0 205 -46.5t124.5 -128.5t37.5 -238v-673h-180v673q0 135 -58.5 196.5t-165.5 61.5q-80 0 -150.5 -41.5t-100.5 -112.5t-30 -196v-581h-180z" />
    <glyph glyph-name="i" unicode="i" horiz-adv-x="455" 
d="M136 1259v207h180v-207h-180zM136 0v1062h180v-1062h-180z" />
    <glyph glyph-name="j" unicode="j" horiz-adv-x="455" 
d="M134 1257v209h180v-209h-180zM-94 -412l34 153q54 -14 85 -14q55 0 82 36.5t27 182.5v1116h180v-1120q0 -196 -51 -273q-65 -100 -216 -100q-73 0 -141 19z" />
    <glyph glyph-name="k" unicode="k" horiz-adv-x="1024" 
d="M136 0v1466h180v-836l426 432h233l-406 -394l447 -668h-222l-351 543l-127 -122v-421h-180z" />
    <glyph glyph-name="l" unicode="l" horiz-adv-x="455" 
d="M131 0v1466h180v-1466h-180z" />
    <glyph glyph-name="m" unicode="m" horiz-adv-x="1706" 
d="M135 0v1062h161v-149q50 78 133 125.5t189 47.5q118 0 193.5 -49t106.5 -137q126 186 328 186q158 0 243 -87.5t85 -269.5v-729h-179v669q0 108 -17.5 155.5t-63.5 76.5t-108 29q-112 0 -186 -74.5t-74 -238.5v-617h-180v690q0 120 -44 180t-144 60q-76 0 -140.5 -40
t-93.5 -117t-29 -222v-551h-180z" />
    <glyph glyph-name="n" unicode="n" 
d="M135 0v1062h162v-151q117 175 338 175q96 0 176.5 -34.5t120.5 -90.5t56 -133q10 -50 10 -175v-653h-180v646q0 110 -21 164.5t-74.5 87t-125.5 32.5q-115 0 -198.5 -73t-83.5 -277v-580h-180z" />
    <glyph glyph-name="o" unicode="o" 
d="M68 531q0 295 164 437q137 118 334 118q219 0 358 -143.5t139 -396.5q0 -205 -61.5 -322.5t-179 -182.5t-256.5 -65q-223 0 -360.5 143t-137.5 412zM253 531q0 -204 89 -305.5t224 -101.5q134 0 223 102t89 311q0 197 -89.5 298.5t-222.5 101.5q-135 0 -224 -101
t-89 -305z" />
    <glyph glyph-name="p" unicode="p" 
d="M135 -407v1469h164v-138q58 81 131 121.5t177 40.5q136 0 240 -70t157 -197.5t53 -279.5q0 -163 -58.5 -293.5t-170 -200t-234.5 -69.5q-90 0 -161.5 38t-117.5 96v-517h-180zM298 525q0 -205 83 -303t201 -98q120 0 205.5 101.5t85.5 314.5q0 203 -83.5 304t-199.5 101
q-115 0 -203.5 -107.5t-88.5 -312.5z" />
    <glyph glyph-name="q" unicode="q" 
d="M812 -407v520q-42 -59 -117.5 -98t-160.5 -39q-189 0 -325.5 151t-136.5 414q0 160 55.5 287t161 192.5t231.5 65.5q197 0 310 -166v142h162v-1469h-180zM257 534q0 -205 86 -307.5t206 -102.5q115 0 198 97.5t83 296.5q0 212 -87.5 319t-205.5 107q-117 0 -198.5 -99.5
t-81.5 -310.5z" />
    <glyph glyph-name="r" unicode="r" horiz-adv-x="682" 
d="M133 0v1062h162v-161q62 113 114.5 149t115.5 36q91 0 185 -58l-62 -167q-66 39 -132 39q-59 0 -106 -35.5t-67 -98.5q-30 -96 -30 -210v-556h-180z" />
    <glyph glyph-name="s" unicode="s" horiz-adv-x="1024" 
d="M63 317l178 28q15 -107 83.5 -164t191.5 -57q124 0 184 50.5t60 118.5q0 61 -53 96q-37 24 -184 61q-198 50 -274.5 86.5t-116 101t-39.5 142.5q0 71 32.5 131.5t88.5 100.5q42 31 114.5 52.5t155.5 21.5q125 0 219.5 -36t139.5 -97.5t62 -164.5l-176 -24
q-12 82 -69.5 128t-162.5 46q-124 0 -177 -41t-53 -96q0 -35 22 -63q22 -29 69 -48q27 -10 159 -46q191 -51 266.5 -83.5t118.5 -94.5t43 -154q0 -90 -52.5 -169.5t-151.5 -123t-224 -43.5q-207 0 -315.5 86t-138.5 255z" />
    <glyph glyph-name="t" unicode="t" horiz-adv-x="569" 
d="M528 161l26 -159q-76 -16 -136 -16q-98 0 -152 31t-76 81.5t-22 212.5v611h-132v140h132v263l179 108v-371h181v-140h-181v-621q0 -77 9.5 -99t31 -35t61.5 -13q30 0 79 7z" />
    <glyph glyph-name="u" unicode="u" 
d="M831 0v156q-124 -180 -337 -180q-94 0 -175.5 36t-121 90.5t-55.5 133.5q-11 53 -11 168v658h180v-589q0 -141 11 -190q17 -71 72 -111.5t136 -40.5t152 41.5t100.5 113t29.5 207.5v569h180v-1062h-161z" />
    <glyph glyph-name="v" unicode="v" horiz-adv-x="1024" 
d="M430 0l-404 1062h190l228 -636q37 -103 68 -214q24 84 67 202l236 648h185l-402 -1062h-168z" />
    <glyph glyph-name="w" unicode="w" horiz-adv-x="1479" 
d="M331 0l-325 1062h186l169 -613l63 -228q4 17 55 219l169 622h185l159 -616l53 -203l61 205l182 614h175l-332 -1062h-187l-169 636l-41 181l-215 -817h-188z" />
    <glyph glyph-name="x" unicode="x" horiz-adv-x="1024" 
d="M15 0l388 552l-359 510h225l163 -249q46 -71 74 -119q44 66 81 117l179 251h215l-367 -500l395 -562h-221l-218 330l-58 89l-279 -419h-218z" />
    <glyph glyph-name="y" unicode="y" horiz-adv-x="1024" 
d="M127 -409l-20 169q59 -16 103 -16q60 0 96 20t59 56q17 27 55 134q5 15 16 44l-403 1064h194l221 -615q43 -117 77 -246q31 124 74 242l227 619h180l-404 -1080q-65 -175 -101 -241q-48 -89 -110 -130.5t-148 -41.5q-52 0 -116 22z" />
    <glyph glyph-name="z" unicode="z" horiz-adv-x="1024" 
d="M40 0v146l676 776q-115 -6 -203 -6h-433v146h868v-119l-575 -674l-111 -123q121 9 227 9h491v-155h-940z" />
    <glyph glyph-name="braceleft" unicode="{" horiz-adv-x="684" 
d="M57 612q77 2 125.5 41.5t64.5 108.5t17 236t6 220q9 84 33.5 135t60.5 81.5t92 46.5q38 10 124 10h56v-157h-31q-104 0 -138 -37.5t-34 -167.5q0 -262 -11 -331q-18 -107 -61.5 -165t-136.5 -103q110 -46 159.5 -140.5t49.5 -309.5q0 -195 4 -232q8 -68 40.5 -95
t127.5 -27h31v-157h-56q-98 0 -142 16q-64 23 -106 74.5t-54.5 130.5t-13.5 259t-17 249t-64.5 109t-125.5 42v163z" />
    <glyph glyph-name="bar" unicode="|" horiz-adv-x="532" 
d="M188 -431v1922h157v-1922h-157z" />
    <glyph glyph-name="braceright" unicode="}" horiz-adv-x="684" 
d="M626 612v-163q-77 -2 -125.5 -42t-64.5 -108.5t-17 -235.5t-6 -220q-9 -85 -33.5 -135.5t-60.5 -81t-92 -46.5q-38 -11 -124 -11h-56v157h31q104 0 138 37.5t34 168.5q0 250 9 317q16 111 64 177.5t136 103.5q-115 55 -162 145.5t-47 305.5q0 195 -5 233
q-7 67 -39.5 93.5t-127.5 26.5h-31v157h56q98 0 142 -16q64 -22 106 -74t54.5 -131t13.5 -259t17 -248.5t64.5 -108.5t125.5 -42z" />
    <glyph glyph-name="asciitilde" unicode="~" horiz-adv-x="1196" 
d="M87 557v205q106 120 278 120q60 0 126 -17.5t188 -69.5q69 -29 103.5 -38t69.5 -9q65 0 134.5 39t123.5 98v-212q-64 -60 -129.5 -87t-147.5 -27q-60 0 -114.5 14t-173 67t-197.5 53q-64 0 -120.5 -27.5t-140.5 -108.5z" />
    <glyph glyph-name="Ccedilla" unicode="&#xc7;" horiz-adv-x="1479" 
d="M1204 514l194 -49q-61 -239 -219.5 -364.5t-387.5 -125.5q-237 0 -385.5 96.5t-226 279.5t-77.5 393q0 229 87.5 399.5t249 259t355.5 88.5q220 0 370 -112t209 -315l-191 -45q-51 160 -148 233t-244 73q-169 0 -282.5 -81t-159.5 -217.5t-46 -281.5q0 -187 54.5 -326.5
t169.5 -208.5t249 -69q163 0 276 94t153 279zM620 -154l52 177h134l-33 -107q85 -10 128 -52.5t43 -94.5q0 -75 -72 -132.5t-217 -57.5q-82 0 -144 12l11 117q64 -4 94 -4q94 0 132 26q29 20 29 49q0 18 -11.5 32t-42.5 24t-103 11z" />
    <glyph glyph-name="ccedilla" unicode="&#xe7;" horiz-adv-x="1024" 
d="M828 389l177 -23q-29 -183 -148.5 -286.5t-293.5 -103.5q-218 0 -350.5 142.5t-132.5 408.5q0 172 57 301t173.5 193.5t253.5 64.5q173 0 283 -87.5t141 -248.5l-175 -27q-25 107 -88.5 161t-153.5 54q-136 0 -221 -97.5t-85 -308.5q0 -214 82 -311t214 -97q106 0 177 65
t90 200zM411 -134l52 177h134l-33 -107q85 -10 128 -52.5t43 -94.5q0 -75 -72 -132.5t-217 -57.5q-82 0 -144 12l11 117q64 -4 94 -4q94 0 132 26q29 20 29 49q0 18 -11.5 32t-42.5 24t-103 11z" />
    <glyph glyph-name="ecircumflex" unicode="&#xea;" 
d="M862 342l186 -23q-44 -163 -163 -253t-304 -90q-233 0 -369.5 143.5t-136.5 402.5q0 268 138 416t358 148q213 0 348 -145t135 -408q0 -16 -1 -48h-792q10 -175 99 -268t222 -93q99 0 169 52t111 166zM271 633h593q-12 134 -68 201q-86 104 -223 104q-124 0 -208.5 -83
t-93.5 -222zM567 1364l-113 -170h-206l216 280h192l225 -280h-204z" />
    <glyph glyph-name="icircumflex" unicode="&#xee;" horiz-adv-x="569" 
d="M198 0v1062h180v-1062h-180zM302 1364l-113 -170h-206l216 280h192l225 -280h-204z" />
    <glyph glyph-name="otilde" unicode="&#xf5;" 
d="M68 531q0 295 164 437q137 118 334 118q219 0 358 -143.5t139 -396.5q0 -205 -61.5 -322.5t-179 -182.5t-256.5 -65q-223 0 -360.5 143t-137.5 412zM253 531q0 -204 89 -305.5t224 -101.5q134 0 223 102t89 311q0 197 -89.5 298.5t-222.5 101.5q-135 0 -224 -101
t-89 -305zM231 1219q-1 104 57 166q57 62 146 62q62 0 169 -54q59 -30 94 -30q32 0 49 17.5t24 69.5h130q-3 -114 -57.5 -171t-138.5 -57q-63 0 -166 56q-67 36 -98 36q-34 0 -55 -24q-22 -24 -21 -71h-133z" />
    <glyph glyph-name="ucircumflex" unicode="&#xfb;" 
d="M831 0v156q-124 -180 -337 -180q-94 0 -175.5 36t-121 90.5t-55.5 133.5q-11 53 -11 168v658h180v-589q0 -141 11 -190q17 -71 72 -111.5t136 -40.5t152 41.5t100.5 113t29.5 207.5v569h180v-1062h-161zM564 1364l-113 -170h-206l216 280h192l225 -280h-204z" />
    <glyph glyph-name="cent" unicode="&#xa2;" 
d="M744 894l-222 -766q33 -9 61 -9q104 0 179.5 71t92.5 199l179 -20q-33 -185 -156.5 -291t-291.5 -106q-49 0 -103 14l-118 -395l-112 32l115 398q-115 55 -188 183.5t-73 321.5q0 178 58.5 305.5t175 191.5t237.5 64q36 0 100 -8l113 387l110 -32l-112 -387
q99 -43 152 -115.5t74 -181.5l-175 -27q-26 112 -96 171zM638 940q-32 3 -50 3q-82 0 -153.5 -45.5t-107 -141t-35.5 -221.5q0 -132 32 -223t91 -135z" />
    <glyph glyph-name="sterling" unicode="&#xa3;" 
d="M396 809h315v-148h-284q19 -44 19 -88q0 -87 -41.5 -184t-136.5 -198q79 22 144 22q83 0 187 -25q172 -41 233 -41q74 0 192 56l58 -165q-92 -39 -142.5 -51t-100.5 -12q-42 0 -85 8q-27 5 -129.5 36.5t-132.5 37.5q-47 8 -94 8q-72 0 -153.5 -25t-148.5 -68l-69 173
q96 53 163 151.5t67 240.5q0 61 -17 124h-196v148h154q-33 112 -42 163.5t-9 100.5q0 208 154 325q124 93 300 93q181 0 298.5 -99.5t144.5 -279.5l-179 -27q-15 120 -89.5 189t-178.5 69q-111 0 -184.5 -71.5t-73.5 -172.5q0 -111 57 -290z" />
    <glyph glyph-name="section" unicode="&#xa7;" 
d="M143 -70l181 26q28 -130 89 -182.5t166 -52.5q102 0 159.5 52t57.5 122q0 51 -36 94q-62 75 -340 245q-148 91 -206.5 142.5t-95.5 121.5t-37 146q0 96 60 174t165 109q-71 68 -100 125.5t-29 122.5q0 128 100 222t265 94q187 0 292 -89t126 -258l-187 -19
q-21 122 -73.5 170t-141.5 48q-92 0 -148.5 -49.5t-56.5 -109.5q0 -52 36 -96q56 -68 306 -220q157 -96 212 -141q71 -60 104.5 -124t33.5 -139q0 -113 -73 -193q-42 -46 -154 -93q80 -61 119.5 -131t39.5 -150q0 -88 -50 -166.5t-144 -120t-203 -41.5q-191 0 -303 95.5
t-134 265.5zM728 244q74 38 110.5 88.5t36.5 98.5q0 57 -52 120q-53 63 -225 169q-137 84 -204 138q-81 -46 -115.5 -92t-34.5 -102q0 -63 46 -120t207 -152q134 -79 231 -148z" />
    <glyph glyph-name="bullet" unicode="&#x2022;" horiz-adv-x="931" 
d="M817 662q0 -145 -103.5 -248t-248.5 -103t-248 103t-103 248t103 248t248 103t248.5 -103t103.5 -248z" />
    <glyph glyph-name="paragraph" unicode="&#xb6;" horiz-adv-x="1100" 
d="M405 -407v1045q-187 10 -295.5 121.5t-108.5 284.5q0 193 120.5 307.5t352.5 114.5h633v-173h-144v-1700h-170v1700h-223v-1700h-165z" />
    <glyph glyph-name="registered" unicode="&#xae;" horiz-adv-x="1509" 
d="M758 1491q190 0 371 -97.5t282 -279t101 -378.5q0 -195 -99.5 -375t-279 -279.5t-375.5 -99.5t-375.5 99.5t-279.5 279.5t-100 375q0 197 101.5 378.5t282.5 279t371 97.5zM758 1366q-159 0 -309.5 -81.5t-235.5 -233t-85 -315.5q0 -163 83.5 -312.5t233.5 -233
t313 -83.5t313 83.5t233 233t83 312.5q0 164 -84.5 315.5t-235.5 233t-309 81.5zM427 319v812h279q143 0 207 -22.5t102 -78.5t38 -119q0 -89 -63.5 -155t-168.5 -74q43 -18 69 -43q49 -48 120 -161l99 -159h-160l-72 128q-85 151 -137 189q-36 28 -105 28h-77v-345h-131z
M558 776h159q114 0 155.5 34t41.5 90q0 36 -20 64.5t-55.5 42.5t-131.5 14h-149v-245z" />
    <glyph glyph-name="copyright" unicode="&#xa9;" horiz-adv-x="1509" 
d="M758 1491q190 0 371 -97.5t282 -279t101 -378.5q0 -195 -99.5 -375t-279 -279.5t-375.5 -99.5t-375.5 99.5t-279.5 279.5t-100 375q0 197 101.5 378.5t282.5 279t371 97.5zM758 1366q-159 0 -309.5 -81.5t-235.5 -233t-85 -315.5q0 -163 83.5 -312.5t233.5 -233
t313 -83.5t313 83.5t233 233t83 312.5q0 164 -84.5 315.5t-235.5 233t-309 81.5zM1000 614l123 -36q-30 -125 -127.5 -199.5t-236.5 -74.5q-176 0 -286 114t-110 316q0 132 50 229.5t142.5 147t211.5 49.5q133 0 221 -63.5t120 -172.5l-119 -29q-30 74 -88.5 113.5
t-137.5 39.5q-115 0 -189.5 -82t-74.5 -235t70.5 -231.5t182.5 -78.5q90 0 158 52t90 141z" />
    <glyph glyph-name="trademark" unicode="&#x2122;" horiz-adv-x="2048" 
d="M489 651v694h-264v121h666v-121h-266v-694h-136zM982 651v815h200l206 -651l199 651h196v-815h-124v684l-210 -684h-123l-219 694v-694h-125z" />
    <glyph glyph-name="acute" unicode="&#xb4;" horiz-adv-x="682" 
d="M222 1194l133 280h236l-220 -280h-149z" />
    <glyph glyph-name="plusminus" unicode="&#xb1;" horiz-adv-x="1124" 
d="M477 260v403h-399v167h399v399h170v-399h399v-167h-399v-403h-170zM1046 0h-968v168h968v-168z" />
    <glyph glyph-name="lessequal" unicode="&#x2264;" horiz-adv-x="1124" 
d="M77 762v168l971 410v-180l-770 -315l770 -319v-179zM1046 106h-968v167h968v-167z" />
    <glyph glyph-name="greaterequal" unicode="&#x2265;" horiz-adv-x="1124" 
d="M1048 762l-971 -415v179l769 319l-769 315v180l971 -410v-168zM1046 106h-968v167h968v-167z" />
    <glyph glyph-name="yen" unicode="&#xa5;" 
d="M477 0v325h-415v139h415v143h-415v148h341l-406 711h200l290 -516q49 -88 76 -154q23 53 82 163l274 507h214l-405 -711h341v-148h-412v-143h412v-139h-412v-325h-180z" />
    <glyph glyph-name="guillemotleft" unicode="&#xab;" 
d="M340 528l259 -456h-146l-319 456l319 456h148zM727 528l264 -456h-152l-313 456l313 456h152z" />
    <glyph glyph-name="guillemotright" unicode="&#xbb;" 
d="M791 528l-261 456h148l319 -456l-319 -456h-147zM404 528l-264 456h151l314 -456l-314 -456h-151z" />
    <glyph glyph-name="endash" unicode="&#x2013;" 
d="M-4 458v145h1139v-145h-1139z" />
    <glyph glyph-name="emdash" unicode="&#x2014;" horiz-adv-x="2048" 
d="M0 458v145h2048v-145h-2048z" />
    <glyph glyph-name="quotedblleft" unicode="&#x201c;" horiz-adv-x="682" 
d="M276 1220v-209h-193v165q0 134 32 194q42 80 133 121l44 -70q-55 -23 -81 -68.5t-29 -132.5h94zM586 1220v-209h-193v165q0 134 32 194q42 80 133 121l44 -70q-55 -23 -81 -68.5t-29 -132.5h94z" />
    <glyph glyph-name="quotedblright" unicode="&#x201d;" horiz-adv-x="682" 
d="M87 1272v209h193v-165q0 -134 -31 -193q-43 -81 -134 -122l-44 71q54 22 80.5 69.5t29.5 130.5h-94zM397 1272v209h193v-165q0 -134 -31 -193q-43 -81 -134 -122l-44 71q54 22 80.5 69.5t29.5 130.5h-94z" />
    <glyph glyph-name="quoteleft" unicode="&#x2018;" horiz-adv-x="455" 
d="M321 1220v-209h-193v165q0 134 32 194q42 80 133 121l44 -70q-55 -23 -81 -68.5t-29 -132.5h94z" />
    <glyph glyph-name="quoteright" unicode="&#x2019;" horiz-adv-x="455" 
d="M124 1272v209h193v-165q0 -134 -31 -193q-43 -81 -134 -122l-44 71q54 22 80.5 69.5t29.5 130.5h-94z" />
    <glyph glyph-name="divide" unicode="&#xf7;" horiz-adv-x="1124" 
d="M459 922v205h205v-205h-205zM1046 639h-968v168h968v-168zM459 319v205h205v-205h-205z" />
    <glyph glyph-name="fraction" unicode="&#x2044;" horiz-adv-x="1018" 
d="M926 1574l-642 -1772h-180l641 1772h181z" />
    <glyph glyph-name="Euro" unicode="&#x20ac;" 
d="M790 1325q-168 0 -282 -81q-68 -48 -123 -136q-56 -91 -66 -173h682l-27 -134h-671q-1 -21 -1 -40q0 -77 1 -92h644l-28 -134h-595q42 -229 202 -325q115 -69 249 -69q187 0 292 98v-206q-125 -58 -276 -58q-452 0 -611 376q-32 76 -55 184h-153l28 134h105q-3 42 -3 91
q0 20 1 41h-131l28 134h116q62 326 323 468q161 88 355 88q186 0 313 -81l-40 -186q-122 101 -277 101z" />
    <glyph glyph-name="guilsinglleft" unicode="&#x2039;" horiz-adv-x="682" 
d="M291 527l265 -455h-149l-315 455l315 457h149z" />
    <glyph glyph-name="guilsinglright" unicode="&#x203a;" horiz-adv-x="682" 
d="M357 530l-265 454h149l304 -448l-304 -464h-149z" />
    <glyph glyph-name="periodcentered" unicode="&#x2219;" horiz-adv-x="569" 
d="M185 619v205h205v-205h-205z" />
    <glyph glyph-name="Ecircumflex" unicode="&#xca;" horiz-adv-x="1366" 
d="M162 0v1466h1060v-173h-866v-449h811v-172h-811v-499h900v-173h-1094zM707 1836l-113 -170h-206l216 280h192l225 -280h-204z" />
    <glyph glyph-name="Icircumflex" unicode="&#xce;" horiz-adv-x="569" 
d="M191 0v1466h194v-1466h-194zM287 1836l-113 -170h-206l216 280h192l225 -280h-204z" />
    <glyph glyph-name="Ucircumflex" unicode="&#xdb;" horiz-adv-x="1479" 
d="M1120 1466h194v-847q0 -221 -50 -351t-180.5 -211.5t-342.5 -81.5q-206 0 -337 71t-187 205.5t-56 367.5v847h194v-846q0 -191 35.5 -281.5t122 -139.5t211.5 -49q214 0 305 97t91 373v846zM736 1836l-113 -170h-206l216 280h192l225 -280h-204z" />
    <glyph glyph-name="brokenbar" unicode="&#xa6;" horiz-adv-x="532" 
d="M345 1491v-790h-157v790h157zM345 360v-791h-157v791h157z" />
    <glyph glyph-name="minus" unicode="&#x2212;" horiz-adv-x="1196" 
d="M1082 639h-968v168h968v-168z" />
    <glyph glyph-name="multiply" unicode="&#xd7;" horiz-adv-x="1196" 
d="M161 409l315 315l-314 314l122 122l314 -314l313 313l120 -121l-312 -313l314 -314l-122 -122l-314 314l-315 -315z" />
    <glyph glyph-name="Scedilla" unicode="&#x15e;" horiz-adv-x="1366" 
d="M92 471l183 16q13 -110 60.5 -180.5t147.5 -114t225 -43.5q111 0 196 33t126.5 90.5t41.5 125.5q0 69 -40 120.5t-132 86.5q-59 23 -261 71.5t-283 91.5q-105 55 -156.5 136.5t-51.5 182.5q0 111 63 207.5t184 146.5t269 50q163 0 287.5 -52.5t191.5 -154.5t72 -231
l-186 -14q-15 139 -101.5 210t-255.5 71q-176 0 -256.5 -64.5t-80.5 -155.5q0 -79 57 -130q56 -51 292.5 -104.5t324.5 -93.5q128 -59 189 -149.5t61 -208.5q0 -117 -67 -220.5t-192.5 -161t-282.5 -57.5q-199 0 -333.5 58t-211 174.5t-80.5 263.5zM555 -144l52 177h134
l-33 -107q85 -10 128 -52.5t43 -94.5q0 -75 -72 -132.5t-217 -57.5q-82 0 -144 12l11 117q64 -4 94 -4q94 0 132 26q29 20 29 49q0 18 -11.5 32t-42.5 24t-103 11z" />
    <glyph glyph-name="scedilla" unicode="&#x15f;" horiz-adv-x="1024" 
d="M63 317l178 28q15 -107 83.5 -164t191.5 -57q124 0 184 50.5t60 118.5q0 61 -53 96q-37 24 -184 61q-198 50 -274.5 86.5t-116 101t-39.5 142.5q0 71 32.5 131.5t88.5 100.5q42 31 114.5 52.5t155.5 21.5q125 0 219.5 -36t139.5 -97.5t62 -164.5l-176 -24
q-12 82 -69.5 128t-162.5 46q-124 0 -177 -41t-53 -96q0 -35 22 -63q22 -29 69 -48q27 -10 159 -46q191 -51 266.5 -83.5t118.5 -94.5t43 -154q0 -90 -52.5 -169.5t-151.5 -123t-224 -43.5q-207 0 -315.5 86t-138.5 255zM375 -134l52 177h134l-33 -107q85 -10 128 -52.5
t43 -94.5q0 -75 -72 -132.5t-217 -57.5q-82 0 -144 12l11 117q64 -4 94 -4q94 0 132 26q29 20 29 49q0 18 -11.5 32t-42.5 24t-103 11z" />
    <glyph glyph-name="middot" unicode="&#xb7;" horiz-adv-x="724" 
d="M482 832h-239v285h239v-285z" />
    <glyph glyph-name="H18533" unicode="&#x25cf;" horiz-adv-x="1237" 
d="M177 576q0 183 129 312t312 129q182 0 311 -129t129 -312q0 -182 -129 -311t-311 -129q-183 0 -312 129t-129 311z" />
    <glyph glyph-name="openbullet" unicode="&#x25e6;" horiz-adv-x="726" 
d="M363 928q104 0 177.5 -73.5t73.5 -177.5t-73.5 -177.5t-177.5 -73.5t-177.5 73.5t-73.5 177.5t73 177.5t178 73.5zM363 852q-73 0 -124 -51.5t-51 -123.5q0 -73 51.5 -124t123.5 -51t123.5 51t51.5 124q0 72 -51 123.5t-124 51.5z" />
    <glyph glyph-name="afii61352" unicode="&#x2116;" horiz-adv-x="2336" 
d="M1173 0h-222l-615 1284v-1284h-185v1489h281l556 -1179v1179h185v-1489zM2202 1030q0 -227 -117 -358.5t-303 -131.5q-193 0 -307 131.5t-114 358.5q0 233 117 361.5t304 128.5t303.5 -128.5t116.5 -361.5zM2071 176h-578v162h578v-162zM2022 1030q0 175 -64.5 257.5
t-175.5 82.5t-176 -82.5t-65 -257.5q0 -169 64 -254.5t177 -85.5t176.5 85.5t63.5 254.5z" />
    <glyph glyph-name="currency" unicode="&#xa4;" 
d="M213 961l-139 136l115 119l139 -139q106 72 237 72q132 0 237 -72l139 139l116 -119l-139 -136q71 -110 71 -235q0 -126 -71 -236l139 -136l-116 -119l-139 140q-105 -73 -237 -73q-131 0 -237 73l-139 -140l-115 119l139 136q-71 110 -71 236q0 125 71 235zM305 726
q0 -108 76 -184t183 -76t183 76t76 184q0 107 -75.5 183t-183.5 76q-107 0 -183 -76t-76 -183z" />
    <glyph glyph-name="afii57388" unicode="&#x60c;" horiz-adv-x="432" 
d="M432 392q-8 -14 -69 -69q-52 -48 -75 -107q123 -25 123 -114q0 -46 -31.5 -75t-77.5 -29q-57 0 -90 44q-30 40 -30 98q0 80 70 171q62 80 140 127q40 -2 40 -46z" />
    <glyph glyph-name="afii57403" unicode="&#x61b;" horiz-adv-x="430" 
d="M412 105q0 -43 -31 -73t-74 -30t-74 30t-31 73t31 74t74 31t74 -31t31 -74zM432 832q-8 -14 -69 -69q-52 -48 -75 -107q123 -25 123 -114q0 -46 -31.5 -75t-77.5 -29q-57 0 -90 44q-30 40 -30 98q0 80 70 171q62 80 140 127q40 -2 40 -46z" />
    <glyph glyph-name="afii57407" unicode="&#x61f;" horiz-adv-x="774" 
d="M771 929q0 -124 -95 -124q-82 0 -82 90q0 27 17.5 58.5t17.5 47.5q0 19 -32 43q-38 29 -89 29q-92 0 -140 -71q-41 -61 -41 -158q0 -256 292 -256v-359h-62l-1 201q-133 0 -238 77q-136 100 -136 289q0 148 83 242q87 97 233 97q104 0 185 -55q88 -60 88 -151zM686 1
q0 -42 -30 -71.5t-72 -29.5q-41 0 -71 30t-30 71q0 42 29.5 72.5t71.5 30.5t72 -30.5t30 -72.5z" />
    <glyph glyph-name="afii57409" unicode="&#x621;" horiz-adv-x="758" 
d="M748 274q-11 -29 -52 -120q-201 -41 -318 -108q-89 -51 -161 -125q-11 20 -11 43q0 62 86 148q-111 55 -111 135t106.5 196.5t184.5 116.5q85 0 154 -62l-78 -132q-77 38 -124 38q-35 0 -93 -39q-62 -42 -62 -74q0 -20 70 -37q57 -14 87 -14q77 0 288 62q35 10 41 6
q1 -2 1 -4q0 -9 -8 -30z" />
    <glyph glyph-name="tatweel" unicode="&#x640;" horiz-adv-x="301" 
d="M318 0h-348v182h348v-182z" />
    <glyph glyph-name="afii57392" unicode="&#x660;" horiz-adv-x="966" 
d="M626 444l-124 -172l-210 154l124 174z" />
    <glyph glyph-name="afii57393" unicode="&#x661;" horiz-adv-x="966" 
d="M694 132q0 -165 -81 -259q-15 131 -25 185q-28 158 -76 298q-94 271 -298 539l108 203q157 -182 270 -499q102 -286 102 -467z" />
    <glyph glyph-name="afii57394" unicode="&#x662;" horiz-adv-x="966" 
d="M840 1054q9 -112 -78 -218q-110 -134 -310 -136q151 -286 151 -528q0 -191 -63 -252q-20 40 -63 243q-47 214 -76 288q-96 240 -287 489l84 180q26 -24 77 -96q46 -66 79 -89q52 -37 138 -37q230 0 301 183q18 45 28 45q13 0 19 -72z" />
    <glyph glyph-name="afii57395" unicode="&#x663;" horiz-adv-x="966" 
d="M892 1044q0 -84 -47 -178q-55 -110 -131 -110q-88 0 -130 90q-25 -71 -105 -107q-56 -25 -106 -25q-8 0 -10 1q53 -110 94 -269q43 -168 43 -280q0 -57 -21 -139q-25 -98 -59 -119q-9 18 -27 184q-50 450 -339 833l75 186l116 -138q63 -73 143 -73q18 0 32 2
q102 14 132 42q26 24 46 118q8 39 24 39q17 0 20 -41q10 -122 108 -122q75 0 110 114q10 34 21 34t11 -42z" />
    <glyph glyph-name="afii57396" unicode="&#x664;" horiz-adv-x="966" 
d="M740 115q-103 -187 -274 -187q-88 0 -161 46q-85 52 -85 135q0 29 29 116t46 115q53 84 165 166q-173 40 -232 142q-7 13 -5 70q3 59 11 82q58 159 320 320q16 10 24 10q9 0 8 -26q-4 -97 -22 -156q-178 -82 -250 -160q35 -44 166 -95q114 -44 114 -71q0 -90 -44 -153
q-29 -41 -143 -141q-99 -86 -99 -100q0 -35 46 -72q60 -48 158 -48q96 0 206 44q18 7 25 7q10 0 10 -10t-13 -34z" />
    <glyph glyph-name="afii57397" unicode="&#x665;" horiz-adv-x="966" 
d="M763 557q0 -248 -39 -317q-82 -146 -292 -146q-82 0 -152 53q-56 43 -70 85q-20 62 -20 168q0 134 93 296q104 182 227 182q50 0 145 -101q108 -115 108 -220zM694 388q0 86 -69 189q-75 111 -156 111q-75 0 -155 -130q-70 -113 -70 -167q0 -55 81 -87q61 -24 114 -24
q73 0 149 22q106 31 106 86z" />
    <glyph glyph-name="afii57398" unicode="&#x666;" horiz-adv-x="966" 
d="M895 65q0 -13 -44.5 -76t-58.5 -71q-49 56 -104 165q-76 150 -111 316q-26 123 -57 465q-83 -32 -214 -32q-239 0 -239 185q0 21 8 57q10 46 23 46q8 0 14 -12q10 -19 17 -27q51 -60 195 -60q136 0 286 53q19 -84 32 -282q12 -185 39 -284q72 -264 180 -397
q32 -40 34 -46z" />
    <glyph glyph-name="afii57399" unicode="&#x667;" horiz-adv-x="966" 
d="M938 967q5 -28 -6 -42q-125 -152 -246 -451q-32 -78 -176 -516q-15 -45 -24 -45t-22 45l-74 251q-151 460 -364 744l69 137q12 23 15 23q6 -2 20 -18q99 -109 208 -373q91 -221 160 -472q177 589 381 846q17 22 23 22q7 0 12 -28z" />
    <glyph glyph-name="afii57400" unicode="&#x668;" horiz-adv-x="966" 
d="M28 65q-5 28 6 42q125 152 246 451q32 78 176 516q15 45 24 45q8 0 22 -45l74 -251q151 -460 364 -744l-69 -137q-12 -23 -15 -23q-6 2 -20 18q-99 109 -208 373q-91 221 -160 472q-177 -589 -381 -846q-17 -22 -23 -22q-7 0 -12 28z" />
    <glyph glyph-name="afii57401" unicode="&#x669;" horiz-adv-x="966" 
d="M836 117q0 -14 -40 -98q-38 -80 -52 -99q-154 231 -246 730q-32 -67 -51 -86q-43 -44 -121 -44q-84 0 -140 61t-56 145q0 124 83 252q91 142 209 142q101 0 135 -150q24 -127 77 -380q37 -160 101 -306q36 -83 73 -131q27 -35 28 -36zM466 774q0 50 -21 91q-26 51 -71 51
q-44 0 -96 -45.5t-52 -88.5q0 -35 44 -60q37 -20 76 -20q120 0 120 72z" />
    <glyph glyph-name="afii57381" unicode="&#x66a;" horiz-adv-x="1000" 
d="M349 1014q0 -53 -37 -89.5t-90 -36.5t-90.5 36.5t-37.5 89.5t37.5 90t90.5 37t90 -37t37 -90zM931 1234l-762 -1449h-97l755 1449h104zM887 17q0 -53 -36 -90.5t-89 -37.5q-54 0 -91 37t-37 91t37 90.5t91 36.5q53 0 89 -37t36 -90z" />
    <glyph glyph-name="afii63167" unicode="&#x66d;" horiz-adv-x="1080" 
d="M950 633q-66 -66 -211 -103q-10 -3 -15 1t-2 15q35 141 102 208q25 25 59 25q36 0 62.5 -27.5t26.5 -63.5q0 -33 -22 -55zM717 802q0 -92 -77 -222q-11 -18 -22 0q-76 126 -76 219q0 37 25 60.5t62 23.5q36 0 62 -23t26 -58zM1076 435q0 -36 -23 -61.5t-58 -25.5
q-93 0 -222 77q-18 11 0 22q126 76 218 76q85 0 85 -88zM534 546q3 -11 -0.5 -15t-14.5 -1q-142 35 -208 101q-25 25 -25 59q0 35 27.5 62.5t62.5 27.5q32 0 56 -23q66 -64 102 -211zM730 435q0 -41 -30.5 -71.5t-71.5 -30.5t-70 30.5t-29 71.5t29 70t70 29t71.5 -29
t30.5 -70zM947 241q25 -25 25 -59q0 -36 -27.5 -63t-63.5 -27q-33 0 -55 23q-68 70 -104 211q-3 11 2 15t15 1q143 -36 208 -101zM716 73q0 -84 -89 -84q-35 0 -60.5 23t-25.5 58q0 93 77 222q11 18 22 0q76 -126 76 -219zM485 425q-126 -76 -220 -76q-83 0 -83 88
q0 36 23 61.5t58 25.5q92 0 222 -77q18 -11 0 -22zM534 326q-35 -143 -100 -208q-25 -25 -58 -25q-35 0 -63 27.5t-28 62.5q0 33 23 56q67 67 211 103q11 3 14.5 -1t0.5 -15z" />
    <glyph glyph-name="aekurdi" unicode="&#x6d5;" horiz-adv-x="766" 
d="M765 298q0 -53 -23 -138q-26 -98 -57 -122q-52 -40 -165 -40q-114 0 -209 34q-130 46 -130 138q0 59 60 167q48 86 89 132q-28 40 -28 62q0 30 54 90q42 47 79 75q5 -96 91 -167q52 -34 156 -104q83 -57 83 -127zM647 213q0 15 -123 106l-147 110q-89 -129 -89 -173
q0 -35 81 -64q74 -26 139 -26q139 0 139 47z" />
    <glyph glyph-name="afii62843" unicode="&#x6f4;" horiz-adv-x="966" 
d="M740 115q-103 -187 -274 -187q-88 0 -161 46q-85 52 -85 135q0 29 29 116t46 115q53 84 165 166q-173 40 -232 142q-7 13 -5 70q3 59 11 82q58 159 320 320q16 10 24 10q9 0 8 -26q-4 -97 -22 -156q-178 -82 -250 -160q35 -44 166 -95q114 -44 114 -71q0 -90 -44 -153
q-29 -41 -143 -141q-99 -86 -99 -100q0 -35 46 -72q60 -48 158 -48q96 0 206 44q18 7 25 7q10 0 10 -10t-13 -34z" />
    <glyph glyph-name="afii62844" unicode="&#x6f5;" horiz-adv-x="966" 
d="M763 557q0 -248 -39 -317q-82 -146 -292 -146q-82 0 -152 53q-56 43 -70 85q-20 62 -20 168q0 134 93 296q104 182 227 182q50 0 145 -101q108 -115 108 -220zM694 388q0 86 -69 189q-75 111 -156 111q-75 0 -155 -130q-70 -113 -70 -167q0 -55 81 -87q61 -24 114 -24
q73 0 149 22q106 31 106 86z" />
    <glyph glyph-name="afii62845" unicode="&#x6f6;" horiz-adv-x="966" 
d="M895 65q0 -13 -44.5 -76t-58.5 -71q-49 56 -104 165q-76 150 -111 316q-26 123 -57 465q-83 -32 -214 -32q-239 0 -239 185q0 21 8 57q10 46 23 46q8 0 14 -12q10 -19 17 -27q51 -60 195 -60q136 0 286 53q19 -84 32 -282q12 -185 39 -284q72 -264 180 -397
q32 -40 34 -46z" />
    <glyph glyph-name="afii57506" unicode="&#x67e;" horiz-adv-x="1405" 
d="M1404 170q0 -119 -78 -165q-66 -39 -329 -70q-223 -27 -352 -27q-464 0 -464 276q0 132 92 226q12 12 18 8q5 -5 -2 -20q-28 -61 -28 -138q0 -128 162 -166q76 -18 278 -18q162 0 358 27q220 30 253 69q-25 80 -109 161l77 169q50 -37 89 -155q35 -105 35 -177zM735 -556
l76 132l204 -112l-78 -136zM534 -313l76 132l180 -99l57 99l204 -112l-78 -136l-178 103q-16 -29 -59 -103z" />
    <glyph glyph-name="afii57505" unicode="&#x6a4;" horiz-adv-x="1665" 
d="M1664 162q0 -70 -17 -102q-28 -52 -204 -69q-112 -4 -225 -9q-426 -25 -531 -25q-257 0 -373 56q-133 64 -133 223q0 107 51 190q23 38 37 38q7 0 7 -13q0 -11 -5 -27q-20 -62 -13 -112q18 -131 159 -169q68 -18 256 -18q62 0 449 19q282 14 344 26q-170 67 -210 101
q-36 31 -36 107q0 81 77 206q82 134 153 134q100 0 160 -176q54 -157 54 -380zM1583 280q-6 68 -49 158q-53 108 -109 108q-71 0 -124 -122zM1427 1221l-76 -132l-204 112l78 136zM1628 978l-76 -132l-180 99l-57 -99l-204 112l78 136l178 -103q16 29 59 103z" />
    <glyph glyph-name="afii57507" unicode="&#x686;" horiz-adv-x="1017" 
d="M1066 -589q-149 -90 -199 -109q-78 -29 -219 -29q-445 0 -445 490q0 317 230 543q-62 6 -83 6q-63 0 -132 -61q-13 -12 -25 -12q-13 0 -13 15q0 9 6 22q97 210 232 210q54 0 163 -15.5t164 -15.5q95 0 235 31q27 6 32 1t-4 -33l-48 -152q-61 -4 -230 -22
q-199 -25 -328 -151q-57 -56 -92 -149q-34 -89 -34 -173q0 -355 471 -355q191 0 294 20q46 9 69 9q26 0 26 -11q0 -16 -70 -59zM600 -341l76 132l204 -112l-78 -136zM399 -98l76 132l180 -99l57 99l204 -112l-78 -136l-178 103q-16 -29 -59 -103z" />
    <glyph glyph-name="afii57508" unicode="&#x698;" horiz-adv-x="928" 
d="M927 113q0 -193 -140 -350q-166 -187 -361 -187q-156 0 -296 174q-31 39 -31 54q0 8 9 8q4 0 108.5 -37.5t171.5 -37.5q160 0 311 140q131 122 131 199q0 68 -176 238l63 138q11 25 32 6q62 -55 110 -133q68 -110 68 -212zM663 994l-76 -132l-204 112l78 136zM864 751
l-76 -132l-180 99l-57 -99l-204 112l78 136l178 -103q16 29 59 103z" />
    <glyph glyph-name="afii57567" unicode="&#x6a9;" horiz-adv-x="1515" 
d="M1514 178q0 -24 -9 -74q-11 -58 -21 -68q-39 -37 -422 -60q-150 -9 -375 -9q-261 0 -373 51q-133 61 -133 218q0 107 51 190q23 38 37 38q7 0 7 -13q0 -11 -5 -27q-20 -62 -13 -112q17 -128 161 -162q62 -15 254 -15q413 0 686 35q-78 77 -245 234q-72 68 -218 184
l-42 -50q-170 153 -170 186q0 58 30 122q38 80 102 108l698 306l-56 -200q-181 -67 -632 -252q198 -157 370 -308q318 -279 318 -322z" />
    <glyph glyph-name="afii57509" unicode="&#x6af;" horiz-adv-x="1515" 
d="M1432 1369l-19 -92l-575 -230l17 84zM1514 178q0 -24 -9 -74q-11 -58 -21 -68q-39 -37 -422 -60q-150 -9 -375 -9q-261 0 -373 51q-133 61 -133 218q0 107 51 190q23 38 37 38q7 0 7 -13q0 -11 -5 -27q-20 -62 -13 -112q17 -128 161 -162q62 -15 254 -15q413 0 686 35
q-78 77 -245 234q-72 68 -218 184l-42 -50q-170 153 -170 186q0 59 30 123q37 80 102 107l688 286l-59 -210q-102 -31 -208 -67q-243 -82 -411 -155q198 -157 370 -308q318 -279 318 -322z" />
    <glyph glyph-name="afii57555" unicode="&#x6cc;" horiz-adv-x="1380" 
d="M1380 522q0 -38 -18 -88q-20 -54 -46 -76q-25 48 -104 48q-82 0 -220 -71q-151 -78 -172 -153q46 -16 311 -69q180 -36 183 -77q2 -22 2 -41q0 -111 -48 -165q-71 -81 -283 -167q-239 -97 -441 -97q-167 0 -265 95t-98 261q0 119 78 280q70 144 162 245q25 27 37 27
q7 0 7 -9q0 -13 -16 -40q-83 -142 -106 -190q-60 -129 -60 -238q0 -123 87 -191q79 -63 205 -63q151 0 356 70q175 60 265 121l-350 60q-120 22 -120 70q0 100 64 212q61 104 146 168q198 148 358 148q86 0 86 -70z" />
    <glyph glyph-name="afii52400" unicode="&#x622;" horiz-adv-x="670" 
d="M556 159q-21 -68 -124 -189q0 271 -12 428q-19 250 -70 677q50 73 143 183q37 -191 60 -832q7 -194 3 -267zM704 1503q-45 -137 -131 -137q-53 0 -157 22.5t-155 22.5q-41 0 -94 -50q-11 -10 -18 -6q-7 5 -3 22q9 43 40 80q46 56 116 56q41 0 124.5 -22.5t128.5 -22.5
q87 0 130 52q6 7 14 8q8 0 8 -11q0 -5 -3 -14z" />
    <glyph glyph-name="afii57411" unicode="&#x623;" horiz-adv-x="480" 
d="M466 159q-21 -68 -124 -189q0 271 -12 428q-19 250 -70 677q50 73 143 183q37 -191 60 -832q7 -194 3 -267zM517 1499q-11 -50 -35 -109q-63 -14 -130 -40q-53 -21 -127 -69q-44 -29 -51 -29q-38 0 -31 25q23 49 111 115q-86 88 -96 134q33 88 63 119q42 43 123 43
q52 0 85 -12v-104q-54 26 -107 26q-48 0 -86 -22q12 -27 51 -63q46 -43 94 -59q26 10 136 45z" />
    <glyph glyph-name="afii57412" unicode="&#x624;" horiz-adv-x="971" 
d="M970 128q0 -209 -137 -395q-149 -203 -351 -203q-111 0 -223 93q-100 82 -151 193q-12 26 -12 36q0 7 5 7q10 0 33 -23q151 -148 300 -148q156 0 290 112q110 92 138 185q-144 11 -199 45q-79 48 -79 176q0 90 56 197q62 118 131 118q89 0 150 -159q49 -128 49 -234z
M880 144q-13 61 -41 109q-37 63 -81 63q-30 0 -54 -28t-24 -58q0 -75 200 -86zM882 884q-11 -50 -35 -109q-63 -14 -130 -40q-53 -21 -127 -69q-44 -29 -51 -29q-38 0 -31 25q23 49 111 115q-86 88 -96 134q33 88 63 119q42 43 123 43q52 0 85 -12v-104q-54 26 -107 26
q-48 0 -86 -22q12 -27 51 -63q46 -43 94 -59q26 10 136 45z" />
    <glyph glyph-name="afii57413" unicode="&#x625;" horiz-adv-x="475" 
d="M446 159q-21 -68 -124 -189q0 271 -12 428q-19 250 -70 677q50 73 143 183q37 -191 60 -832q7 -194 3 -267zM547 -351q-11 -50 -35 -109q-63 -14 -130 -40q-53 -21 -127 -69q-44 -29 -51 -29q-38 0 -31 25q23 49 111 115q-86 88 -96 134q33 88 63 119q42 43 123 43
q52 0 85 -12v-104q-54 26 -107 26q-48 0 -86 -22q12 -27 51 -63q46 -43 94 -59q26 10 136 45z" />
    <glyph glyph-name="afii57414" unicode="&#x626;" horiz-adv-x="1380" 
d="M1380 522q0 -38 -18 -88q-20 -54 -46 -76q-25 48 -104 48q-82 0 -220 -71q-151 -78 -172 -153q46 -16 311 -69q180 -36 183 -77q2 -22 2 -41q0 -111 -48 -165q-71 -81 -283 -167q-239 -97 -441 -97q-167 0 -265 95t-98 261q0 119 78 280q70 144 162 245q25 27 37 27
q7 0 7 -9q0 -13 -16 -40q-83 -142 -106 -190q-60 -129 -60 -238q0 -123 87 -191q79 -63 205 -63q151 0 356 70q175 60 265 121l-350 60q-120 22 -120 70q0 100 64 212q61 104 146 168q198 148 358 148q86 0 86 -70zM597 749q-11 -50 -35 -109q-63 -14 -130 -40
q-53 -21 -127 -69q-44 -29 -51 -29q-38 0 -31 25q23 49 111 115q-86 88 -96 134q33 88 63 119q42 43 123 43q52 0 85 -12v-104q-54 26 -107 26q-48 0 -86 -22q12 -27 51 -63q46 -43 94 -59q26 10 136 45z" />
    <glyph glyph-name="afii57415" unicode="&#x627;" horiz-adv-x="387" 
d="M386 159q-21 -68 -124 -189q0 271 -12 428q-19 250 -70 677q50 73 143 183q37 -191 60 -832q7 -194 3 -267z" />
    <glyph glyph-name="afii57416" unicode="&#x628;" horiz-adv-x="1405" 
d="M1404 170q0 -119 -78 -165q-66 -39 -329 -70q-223 -27 -352 -27q-464 0 -464 276q0 132 92 226q12 12 18 8q5 -5 -2 -20q-28 -61 -28 -138q0 -128 162 -166q76 -18 278 -18q162 0 358 27q220 30 253 69q-25 80 -109 161l77 169q50 -37 89 -155q35 -105 35 -177zM928 -432
l-76 -132l-204 112l78 136z" />
    <glyph glyph-name="afii57417" unicode="&#x629;" horiz-adv-x="766" 
d="M765 298q0 -53 -23 -138q-26 -98 -57 -122q-52 -40 -165 -40q-114 0 -209 34q-130 46 -130 138q0 59 60 167q48 86 89 132q-28 40 -28 62q0 30 54 90q42 47 79 75q5 -96 91 -167q52 -34 156 -104q83 -57 83 -127zM647 213q0 15 -123 106l-147 110q-89 -129 -89 -173
q0 -35 81 -64q74 -26 139 -26q139 0 139 47zM706 917l-76 -132l-187 103l-57 -99l-204 112l78 136l185 -106l59 102z" />
    <glyph glyph-name="afii57418" unicode="&#x62a;" horiz-adv-x="1405" 
d="M1404 170q0 -119 -78 -165q-66 -39 -329 -70q-223 -27 -352 -27q-464 0 -464 276q0 132 92 226q12 12 18 8q5 -5 -2 -20q-28 -61 -28 -138q0 -128 162 -166q76 -18 278 -18q162 0 358 27q220 30 253 69q-25 80 -109 161l77 169q50 -37 89 -155q35 -105 35 -177zM1048 618
l-76 -132l-187 103l-57 -99l-204 112l78 136l185 -106l59 102z" />
    <glyph glyph-name="afii57419" unicode="&#x62b;" horiz-adv-x="1405" 
d="M1404 170q0 -119 -78 -165q-66 -39 -329 -70q-223 -27 -352 -27q-464 0 -464 276q0 132 92 226q12 12 18 8q5 -5 -2 -20q-28 -61 -28 -138q0 -128 162 -166q76 -18 278 -18q162 0 358 27q220 30 253 69q-25 80 -109 161l77 169q50 -37 89 -155q35 -105 35 -177zM844 862
l-76 -132l-204 112l78 136zM1045 619l-76 -132l-180 99l-57 -99l-204 112l78 136l178 -103q16 29 59 103z" />
    <glyph glyph-name="afii57420" unicode="&#x62c;" horiz-adv-x="1017" 
d="M1066 -589q-149 -90 -199 -109q-78 -29 -219 -29q-445 0 -445 490q0 317 230 543q-62 6 -83 6q-63 0 -132 -61q-13 -12 -25 -12q-13 0 -13 15q0 9 6 22q97 210 232 210q54 0 163 -15.5t164 -15.5q95 0 235 31q27 6 32 1t-4 -33l-48 -152q-61 -4 -230 -22
q-199 -25 -328 -151q-57 -56 -92 -149q-34 -89 -34 -173q0 -355 471 -355q191 0 294 20q46 9 69 9q26 0 26 -11q0 -16 -70 -59zM838 -207l-76 -132l-204 112l78 136z" />
    <glyph glyph-name="afii57421" unicode="&#x62d;" horiz-adv-x="1017" 
d="M1066 -589q-149 -90 -199 -109q-78 -29 -219 -29q-445 0 -445 490q0 317 230 543q-62 6 -83 6q-63 0 -132 -61q-13 -12 -25 -12q-13 0 -13 15q0 9 6 22q97 210 232 210q54 0 163 -15.5t164 -15.5q95 0 235 31q27 6 32 1t-4 -33l-48 -152q-61 -4 -230 -22
q-199 -25 -328 -151q-57 -56 -92 -149q-34 -89 -34 -173q0 -355 471 -355q191 0 294 20q46 9 69 9q26 0 26 -11q0 -16 -70 -59z" />
    <glyph glyph-name="afii57422" unicode="&#x62e;" horiz-adv-x="1017" 
d="M1066 -589q-149 -90 -199 -109q-78 -29 -219 -29q-445 0 -445 490q0 317 230 543q-62 6 -83 6q-63 0 -132 -61q-13 -12 -25 -12q-13 0 -13 15q0 9 6 22q97 210 232 210q54 0 163 -15.5t164 -15.5q95 0 235 31q27 6 32 1t-4 -33l-48 -152q-61 -4 -230 -22
q-199 -25 -328 -151q-57 -56 -92 -149q-34 -89 -34 -173q0 -355 471 -355q191 0 294 20q46 9 69 9q26 0 26 -11q0 -16 -70 -59zM728 858l-76 -132l-204 112l78 136z" />
    <glyph glyph-name="afii57423" unicode="&#x62f;" horiz-adv-x="828" 
d="M828 153q0 -118 -81 -158q-52 -25 -192 -41q-99 -11 -164 -11q-104 0 -151 32q-58 38 -58 135q0 81 40 147q19 31 29 31q13 0 5 -46q-3 -18 -3 -34q0 -90 145 -90q61 0 167 17q119 18 157 40q0 96 -158 389l85 182q10 22 20 -1q70 -159 117 -341q42 -164 42 -251z" />
    <glyph glyph-name="afii57424" unicode="&#x630;" horiz-adv-x="828" 
d="M828 153q0 -118 -81 -158q-52 -25 -192 -41q-99 -11 -164 -11q-104 0 -151 32q-58 38 -58 135q0 81 40 147q19 31 29 31q13 0 5 -46q-3 -18 -3 -34q0 -90 145 -90q61 0 167 17q119 18 157 40q0 96 -158 389l85 182q10 22 20 -1q70 -159 117 -341q42 -164 42 -251z
M633 1028l-76 -132l-204 112l78 136z" />
    <glyph glyph-name="afii57425" unicode="&#x631;" horiz-adv-x="928" 
d="M927 113q0 -193 -140 -350q-166 -187 -361 -187q-156 0 -296 174q-31 39 -31 54q0 8 9 8q4 0 108.5 -37.5t171.5 -37.5q160 0 311 140q131 122 131 199q0 68 -176 238l63 138q11 25 32 6q62 -55 110 -133q68 -110 68 -212z" />
    <glyph glyph-name="afii57426" unicode="&#x632;" horiz-adv-x="928" 
d="M927 113q0 -193 -140 -350q-166 -187 -361 -187q-156 0 -296 174q-31 39 -31 54q0 8 9 8q4 0 108.5 -37.5t171.5 -37.5q160 0 311 140q131 122 131 199q0 68 -176 238l63 138q11 25 32 6q62 -55 110 -133q68 -110 68 -212zM663 888l-76 -132l-204 112l78 136z" />
    <glyph glyph-name="afii57427" unicode="&#x633;" horiz-adv-x="1902" 
d="M1902 222q0 -153 -34 -188q-38 -40 -200 -40q-202 0 -271 59q-58 -52 -225 -52q-41 -227 -104 -287q-53 -51 -185 -101q-164 -63 -320 -63q-170 0 -270 73q-112 82 -112 245q0 116 62 242q46 94 95 144q27 28 41 28q7 0 7 -8q0 -13 -16 -39q-34 -56 -65 -139
q-35 -94 -35 -151q0 -223 321 -223q119 0 263 43q176 52 220 132q0 160 -126 357l104 152q77 -89 116 -238h216q9 37 9 74q0 38 -9 76q0 -6 130 134q12 -26 12 -82q0 -105 -42 -186q40 -26 152 -26q92 0 140 16q2 69 -45 164l137 136q34 -151 34 -252z" />
    <glyph glyph-name="afii57428" unicode="&#x634;" horiz-adv-x="1902" 
d="M1902 222q0 -153 -34 -188q-38 -40 -200 -40q-202 0 -271 59q-58 -52 -225 -52q-41 -227 -104 -287q-53 -51 -185 -101q-164 -63 -320 -63q-170 0 -270 73q-112 82 -112 245q0 116 62 242q46 94 95 144q27 28 41 28q7 0 7 -8q0 -13 -16 -39q-34 -56 -65 -139
q-35 -94 -35 -151q0 -223 321 -223q119 0 263 43q176 52 220 132q0 160 -126 357l104 152q77 -89 116 -238h216q9 37 9 74q0 38 -9 76q0 -6 130 134q12 -26 12 -82q0 -105 -42 -186q40 -26 152 -26q92 0 140 16q2 69 -45 164l137 136q34 -151 34 -252zM1541 982l-76 -132
l-204 112l78 136zM1742 739l-76 -132l-180 99l-57 -99l-204 112l78 136l178 -103q16 29 59 103z" />
    <glyph glyph-name="afii57429" unicode="&#x635;" horiz-adv-x="2280" 
d="M2278 172q0 -118 -36 -156q-26 -27 -114 -34q-34 -3 -208 -4q-109 -1 -748 23q-41 -227 -104 -287q-53 -51 -185 -101q-164 -63 -320 -63q-170 0 -270 73q-112 82 -112 245q0 116 62 242q46 94 95 144q27 28 41 28q7 0 7 -8q0 -13 -16 -39q-34 -56 -65 -139
q-35 -94 -35 -151q0 -223 321 -223q119 0 263 43q176 52 220 132q0 160 -126 357l104 152q77 -89 116 -238h52q89 27 327 201q212 155 307 155q75 0 226 -76q158 -80 178 -138t20 -138zM2162 198q0 26 -154 92q-149 64 -194 64q-76 0 -193 -73l-183 -115q78 -20 340 -20
q384 0 384 52z" />
    <glyph glyph-name="afii57430" unicode="&#x636;" horiz-adv-x="2280" 
d="M2278 172q0 -118 -36 -156q-26 -27 -114 -34q-34 -3 -208 -4q-109 -1 -748 23q-41 -227 -104 -287q-53 -51 -185 -101q-164 -63 -320 -63q-170 0 -270 73q-112 82 -112 245q0 116 62 242q46 94 95 144q27 28 41 28q7 0 7 -8q0 -13 -16 -39q-34 -56 -65 -139
q-35 -94 -35 -151q0 -223 321 -223q119 0 263 43q176 52 220 132q0 160 -126 357l104 152q77 -89 116 -238h52q89 27 327 201q212 155 307 155q75 0 226 -76q158 -80 178 -138t20 -138zM2162 198q0 26 -154 92q-149 64 -194 64q-76 0 -193 -73l-183 -115q78 -20 340 -20
q384 0 384 52zM1918 903l-76 -132l-204 112l78 136z" />
    <glyph glyph-name="afii57431" unicode="&#x637;" horiz-adv-x="1347" 
d="M1343 100q-23 -87 -181 -106q-33 -4 -243 -4q-48 0 -666 10l-61 119q-11 21 -11 28q0 13 54 13q80 0 155 10q138 18 138 59l-1 305q0 332 -75 546l134 170q0 -183 108 -242q-27 -92 -78 -140q25 -146 25 -209v-148q0 -57 -8 -132l-12 -111l207 160q91 70 165 70
q105 0 212 -56q122 -64 138 -158q3 -20 4 -93q1 -74 -4 -91zM1237 206q0 42 -126 88q-112 41 -168 41q-68 0 -148 -58q-51 -39 -154 -117q158 -13 294 -6q302 16 302 52z" />
    <glyph glyph-name="afii57432" unicode="&#x638;" horiz-adv-x="1347" 
d="M1343 100q-23 -87 -181 -106q-33 -4 -243 -4q-48 0 -666 10l-61 119q-11 21 -11 28q0 13 54 13q80 0 155 10q138 18 138 59l-1 305q0 332 -75 546l134 170q0 -183 108 -242q-27 -92 -78 -140q25 -146 25 -209v-148q0 -57 -8 -132l-12 -111l207 160q91 70 165 70
q105 0 212 -56q122 -64 138 -158q3 -20 4 -93q1 -74 -4 -91zM1237 206q0 42 -126 88q-112 41 -168 41q-68 0 -148 -58q-51 -39 -154 -117q158 -13 294 -6q302 16 302 52zM1128 858l-76 -132l-204 112l78 136z" />
    <glyph glyph-name="afii57433" unicode="&#x639;" horiz-adv-x="886" 
d="M1159 -561q-258 -177 -562 -177q-195 0 -305.5 111t-110.5 305q0 301 230 544q-146 76 -146 174q0 74 60 193q77 153 182 153q126 0 202 -117q23 -36 23 -49q0 -12 -20 -12q-9 0 -27 3q-71 12 -119 12q-124 0 -193 -85q19 -37 70 -75q65 -49 130 -49q30 0 120 41
q122 55 154 67q5 2 19 7q16 5 18 0q-1 -9 -5 -29l-30 -144q-256 -105 -401 -236q-73 -66 -125 -164q-58 -107 -58 -196q0 -179 165 -243q101 -39 307 -39q232 0 378 39q38 10 58 10q19 0 19 -9q0 -12 -33 -35z" />
    <glyph glyph-name="afii57434" unicode="&#x63a;" horiz-adv-x="886" 
d="M1159 -561q-258 -177 -562 -177q-195 0 -305.5 111t-110.5 305q0 301 230 544q-146 76 -146 174q0 74 60 193q77 153 182 153q126 0 202 -117q23 -36 23 -49q0 -12 -20 -12q-9 0 -27 3q-71 12 -119 12q-124 0 -193 -85q19 -37 70 -75q65 -49 130 -49q30 0 120 41
q122 55 154 67q5 2 19 7q16 5 18 0q-1 -9 -5 -29l-30 -144q-256 -105 -401 -236q-73 -66 -125 -164q-58 -107 -58 -196q0 -179 165 -243q101 -39 307 -39q232 0 378 39q38 10 58 10q19 0 19 -9q0 -12 -33 -35zM658 1073l-76 -132l-204 112l78 136z" />
    <glyph glyph-name="afii57441" unicode="&#x641;" horiz-adv-x="1665" 
d="M1664 162q0 -70 -17 -102q-28 -52 -204 -68q-113 -5 -225 -10q-416 -25 -531 -25q-257 0 -373 56q-133 64 -133 223q0 107 51 190q23 38 37 38q7 0 7 -13q0 -11 -5 -27q-20 -62 -13 -112q18 -131 159 -169q68 -18 256 -18q62 0 449 19q282 14 344 26q-170 67 -210 101
q-36 31 -36 107q0 81 77 206q82 134 153 134q100 0 160 -176q54 -157 54 -380zM1583 280q-6 68 -49 158q-53 108 -109 108q-71 0 -124 -122zM1518 978l-76 -132l-204 112l78 136z" />
    <glyph glyph-name="afii57442" unicode="&#x642;" horiz-adv-x="1206" 
d="M1198 -122q-44 -172 -259 -290q-192 -106 -385 -106q-175 0 -276 110q-97 106 -97 283q0 146 63 279q18 37 31 46t13 -13q0 -14 -8 -43q-32 -115 -32 -203q0 -288 310 -288q322 0 547 231q2 7 2 19q0 35 -15 97q-68 -7 -104 -7q-102 0 -171 47q-80 54 -80 151
q0 80 62 202q71 139 143 139q98 0 176 -145q60 -110 75 -220q28 -199 5 -289zM1070 166q-66 180 -172 180q-26 0 -46 -26.5t-20 -53.5q0 -103 184 -103q26 0 54 3zM1123 838l-76 -132l-187 103l-57 -99l-204 112l78 136l185 -106l59 102z" />
    <glyph glyph-name="afii57443" unicode="&#x643;" horiz-adv-x="1515" 
d="M1514 178q0 -24 -9 -74q-11 -58 -21 -68q-39 -37 -422 -60q-150 -9 -375 -9q-261 0 -373 51q-133 61 -133 218q0 107 51 190q23 38 37 38q7 0 7 -13q0 -11 -5 -27q-20 -62 -13 -112q17 -128 161 -162q62 -15 254 -15q413 0 686 35q-78 77 -245 234q-72 68 -218 184
l-42 -50q-170 153 -170 186q0 58 30 122q38 80 102 108l698 306l-56 -200q-181 -67 -632 -252q198 -157 370 -308q318 -279 318 -322z" />
    <glyph glyph-name="afii57444" unicode="&#x644;" horiz-adv-x="1070" 
d="M1071 -41q5 -123 -140 -237q-160 -126 -377 -126q-172 0 -272.5 99t-100.5 270q0 164 77 292q27 45 38 45q6 0 6 -11q0 -15 -10 -48q-27 -88 -27 -175q0 -304 286 -304q148 0 287 78q125 70 121 120l-81 1092l114 129q7 8 22 17q9 0 10 -28z" />
    <glyph glyph-name="afii57445" unicode="&#x645;" horiz-adv-x="942" 
d="M936 119l-38 -118q-59 -2 -158 2q-122 5 -174 5q-260 0 -260 -50q0 -11 32 -146q34 -142 44 -208q25 -160 18 -236q-8 -89 -43 -140q-15 -22 -21 -24q-9 0 -24 104q-22 165 -27 194t-11 59q-4 21 -62 257q-32 130 -32 157q0 17 28.5 79t39.5 68q92 51 395 47
q-138 143 -161 143q-32 0 -186 -82l10 92q182 188 226 188q28 0 129 -117q128 -148 157 -173q52 -45 101 -61q27 -9 17 -40z" />
    <glyph glyph-name="afii57446" unicode="&#x646;" horiz-adv-x="1163" 
d="M1162 36q0 -182 -61 -283q-44 -72 -178 -137q-166 -80 -361 -80q-381 0 -381 315q0 186 136 352q38 46 53 46q5 0 5 -8q0 -17 -24 -62q-77 -143 -77 -257q0 -216 303 -216q189 0 349 73q134 61 134 99q0 159 -124 354l86 130q11 17 16 17q5 1 16 -14q108 -143 108 -329z
M783 743l-76 -132l-204 112l78 136z" />
    <glyph glyph-name="afii57447" unicode="&#x647;" horiz-adv-x="766" 
d="M765 298q0 -53 -23 -138q-26 -98 -57 -122q-52 -40 -165 -40q-114 0 -209 34q-130 46 -130 138q0 59 60 167q48 86 89 132q-28 40 -28 62q0 30 54 90q42 47 79 75q5 -96 91 -167q52 -34 156 -104q83 -57 83 -127zM647 213q0 15 -123 106l-147 110q-89 -129 -89 -173
q0 -35 81 -64q74 -26 139 -26q139 0 139 47z" />
    <glyph glyph-name="afii57470" unicode="&#x6be;" horiz-adv-x="939" 
d="M938 169q0 -43 -26 -115q-30 -82 -60 -82q-37 0 -310 90q-161 -61 -309 -61h-273q-50 0 -50 50v117h422q-25 42 -25 92t48 129q62 102 161 147q-78 54 -78 70q0 22 37 99q42 87 71 87q96 0 230 -184q162 -223 162 -439zM840 130q-7 89 -73 206q-59 105 -119 156
q27 -61 27 -155q0 -89 -27 -147zM599 277q-3 133 -48 133t-98 -60q-34 -39 -53 -74q59 -62 170 -58q30 1 29 59z" />
    <glyph glyph-name="afii57448" unicode="&#x648;" horiz-adv-x="971" 
d="M970 128q0 -209 -137 -395q-149 -203 -351 -203q-111 0 -223 93q-100 82 -151 193q-12 26 -12 36q0 7 5 7q10 0 33 -23q151 -148 300 -148q156 0 290 112q110 92 138 185q-144 11 -199 45q-79 48 -79 176q0 90 56 197q62 118 131 118q89 0 150 -159q49 -128 49 -234z
M880 144q-13 61 -41 109q-37 63 -81 63q-30 0 -54 -28t-24 -58q0 -75 200 -86z" />
    <glyph glyph-name="afii57449" unicode="&#x649;" horiz-adv-x="1380" 
d="M1380 522q0 -38 -18 -88q-20 -54 -46 -76q-25 48 -104 48q-82 0 -220 -71q-151 -78 -172 -153q46 -16 311 -69q180 -36 183 -77q2 -22 2 -41q0 -111 -48 -165q-71 -81 -283 -167q-239 -97 -441 -97q-167 0 -265 95t-98 261q0 119 78 280q70 144 162 245q25 27 37 27
q7 0 7 -9q0 -13 -16 -40q-83 -142 -106 -190q-60 -129 -60 -238q0 -123 87 -191q79 -63 205 -63q151 0 356 70q175 60 265 121l-350 60q-120 22 -120 70q0 100 64 212q61 104 146 168q198 148 358 148q86 0 86 -70z" />
    <glyph glyph-name="afii57450" unicode="&#x64a;" horiz-adv-x="1380" 
d="M1380 522q0 -38 -18 -88q-20 -54 -46 -76q-25 48 -104 48q-82 0 -220 -71q-151 -78 -172 -153q46 -16 311 -69q180 -36 183 -77q2 -22 2 -41q0 -111 -48 -165q-71 -81 -283 -167q-239 -97 -441 -97q-167 0 -265 95t-98 261q0 119 78 280q70 144 162 245q25 27 37 27
q7 0 7 -9q0 -13 -16 -40q-83 -142 -106 -190q-60 -129 -60 -238q0 -123 87 -191q79 -63 205 -63q151 0 356 70q175 60 265 121l-350 60q-120 22 -120 70q0 100 64 212q61 104 146 168q198 148 358 148q86 0 86 -70zM853 -687l-76 -132l-187 103l-57 -99l-204 112l78 136
l185 -106l59 102z" />
    <glyph glyph-name="uni0676" unicode="&#x676;" horiz-adv-x="971" 
d="M970 128q0 -209 -137 -395q-149 -203 -351 -203q-111 0 -223 93q-100 82 -151 193q-12 26 -12 36q0 7 5 7q10 0 33 -23q151 -148 300 -148q156 0 290 112q110 92 138 185q-144 11 -199 45q-79 48 -79 176q0 90 56 197q62 118 131 118q89 0 150 -159q49 -128 49 -234z
M880 144q-13 61 -41 109q-37 63 -81 63q-30 0 -54 -28t-24 -58q0 -75 200 -86zM882 884q-11 -50 -35 -109q-63 -14 -130 -40q-53 -21 -127 -69q-44 -29 -51 -29q-38 0 -31 25q23 49 111 115q-86 88 -96 134q33 88 63 119q42 43 123 43q52 0 85 -12v-104q-54 26 -107 26
q-48 0 -86 -22q12 -27 51 -63q46 -43 94 -59q26 10 136 45z" />
    <glyph glyph-name="uni0695" unicode="&#x695;" horiz-adv-x="928" 
d="M927 113q0 -193 -140 -350q-166 -187 -361 -187q-156 0 -296 174q-31 39 -31 54q0 8 9 8q4 0 108.5 -37.5t171.5 -37.5q160 0 311 140q131 122 131 199q0 68 -176 238l63 138q11 25 32 6q62 -55 110 -133q68 -110 68 -212zM658 -510q2 -7 -2 -11q-48 -37 -93 -111
q-13 -20 -67 -128q-6 -11 -9 -11t-8 11l-28 62q-57 114 -138 184l26 34q5 6 6 6q2 -1 7 -5q38 -27 79 -92q34 -55 60 -117q67 146 145 210q6 5 8 5q3 0 5 -7z" />
    <glyph glyph-name="uniE001" unicode="&#xe001;" horiz-adv-x="928" 
d="M927 113q0 -193 -140 -350q-166 -187 -361 -187q-156 0 -296 174q-31 39 -31 54q0 8 9 8q4 0 108.5 -37.5t171.5 -37.5q160 0 311 140q131 122 131 199q0 68 -176 238l63 138q11 25 32 6q62 -55 110 -133q68 -110 68 -212zM658 -510q2 -7 -2 -11q-48 -37 -93 -111
q-13 -20 -67 -128q-6 -11 -9 -11t-8 11l-28 62q-57 114 -138 184l26 34q5 6 6 6q2 -1 7 -5q38 -27 79 -92q34 -55 60 -117q67 146 145 210q6 5 8 5q3 0 5 -7z" />
    <glyph glyph-name="uni06b5" unicode="&#x6b5;" horiz-adv-x="1070" 
d="M1071 -41q5 -123 -140 -237q-160 -126 -377 -126q-172 0 -272.5 99t-100.5 270q0 164 77 292q27 45 38 45q6 0 6 -11q0 -15 -10 -48q-27 -88 -27 -175q0 -304 286 -304q148 0 287 78q125 70 121 120l-81 1092l114 129q7 8 22 17q9 0 10 -28zM984 1339q2 -7 -2 -11
q-48 -37 -93 -111q-13 -20 -67 -128q-6 -11 -9 -11t-8 11l-28 62q-57 114 -138 184l26 34q5 6 6 6q2 -1 7 -5q38 -27 79 -92q34 -55 60 -117q67 146 145 210q6 5 8 5q3 0 5 -7z" />
    <glyph glyph-name="uniE007" unicode="&#xe007;" horiz-adv-x="1070" 
d="M1071 -41q5 -123 -140 -237q-160 -126 -377 -126q-172 0 -272.5 99t-100.5 270q0 164 77 292q27 45 38 45q6 0 6 -11q0 -15 -10 -48q-27 -88 -27 -175q0 -304 286 -304q148 0 287 78q125 70 121 120l-81 1092l114 129q7 8 22 17q9 0 10 -28zM987 1363q2 -7 -2 -11
q-48 -37 -93 -111q-13 -20 -67 -128q-6 -11 -9 -11t-8 11l-28 62q-57 114 -138 184l26 34q5 6 6 6q2 -1 7 -5q38 -27 79 -92q34 -55 60 -117q67 146 145 210q6 5 8 5q3 0 5 -7z" />
    <glyph glyph-name="uniE008" unicode="&#xe008;" horiz-adv-x="451" 
d="M450 41q2 -44 -225 -44q20 0 -193 3l-71 1q-51 1 -51 50v117h113q34 0 88 -3q51 -3 70 -3q55 1 153 10v121q0 104 -100 799l122 142q24 28 34 28q11 0 12 -36zM369 1435q2 -7 -2 -11q-48 -37 -93 -111q-13 -20 -67 -128q-6 -11 -9 -11t-8 11l-28 62q-57 114 -138 184
l26 34q5 6 6 6q2 -1 7 -5q38 -27 79 -92q34 -55 60 -117q67 146 145 210q6 5 8 5q3 0 5 -7z" />
    <glyph glyph-name="uniE009" unicode="&#xe009;" horiz-adv-x="451" 
d="M450 41q2 -44 -225 -44q20 0 -193 3l-71 1q-51 1 -51 50v117h113q34 0 88 -3q51 -3 70 -3q55 1 153 10v121q0 104 -100 799l122 142q24 28 34 28q11 0 12 -36zM354 1401q2 -7 -2 -11q-48 -37 -93 -111q-13 -20 -67 -128q-6 -11 -9 -11t-8 11l-28 62q-57 114 -138 184
l26 34q5 6 6 6q2 -1 7 -5q38 -27 79 -92q34 -55 60 -117q67 146 145 210q6 5 8 5q3 0 5 -7z" />
    <glyph glyph-name="uni06c6" unicode="&#x6c6;" horiz-adv-x="971" 
d="M970 128q0 -209 -137 -395q-149 -203 -351 -203q-111 0 -223 93q-100 82 -151 193q-12 26 -12 36q0 7 5 7q10 0 33 -23q151 -148 300 -148q156 0 290 112q110 92 138 185q-144 11 -199 45q-79 48 -79 176q0 90 56 197q62 118 131 118q89 0 150 -159q49 -128 49 -234z
M880 144q-13 61 -41 109q-37 63 -81 63q-30 0 -54 -28t-24 -58q0 -75 200 -86zM949 855q2 -7 -2 -11q-48 -37 -93 -111q-13 -20 -67 -128q-6 -11 -9 -11t-8 11l-28 62q-57 114 -138 184l26 34q5 6 6 6q2 -1 7 -5q38 -27 79 -92q34 -55 60 -117q67 146 145 210q6 5 8 5
q3 0 5 -7z" />
    <glyph glyph-name="uni06ce" unicode="&#x6ce;" horiz-adv-x="1380" 
d="M1380 522q0 -38 -18 -88q-20 -54 -46 -76q-25 48 -104 48q-82 0 -220 -71q-151 -78 -172 -153q46 -16 311 -69q180 -36 183 -77q2 -22 2 -41q0 -111 -48 -165q-71 -81 -283 -167q-239 -97 -441 -97q-167 0 -265 95t-98 261q0 119 78 280q70 144 162 245q25 27 37 27
q7 0 7 -9q0 -13 -16 -40q-83 -142 -106 -190q-60 -129 -60 -238q0 -123 87 -191q79 -63 205 -63q151 0 356 70q175 60 265 121l-350 60q-120 22 -120 70q0 100 64 212q61 104 146 168q198 148 358 148q86 0 86 -70zM823 660q2 -7 -2 -11q-48 -37 -93 -111q-13 -20 -67 -128
q-6 -11 -9 -11t-8 11l-28 62q-57 114 -138 184l26 34q5 6 6 6q2 -1 7 -5q38 -27 79 -92q34 -55 60 -117q67 146 145 210q6 5 8 5q3 0 5 -7z" />
    <glyph glyph-name="uniE004" unicode="&#xe004;" horiz-adv-x="1230" 
d="M1260 1h-56q-74 0 -153 -15q-109 -20 -135 -58q40 -27 181 -62q117 -29 117 -50q0 -43 -14 -105q-16 -70 -38 -97q-78 -97 -261 -160q-169 -58 -329 -58q-174 0 -277 81q-113 89 -113 257q0 103 44.5 215t114.5 191q32 36 32 10q0 -8 -7 -22q-98 -193 -98 -316
q0 -126 111 -187q88 -49 225 -49q94 0 223 28q153 33 215 82q-52 17 -155 52q-99 35 -99 92q0 184 153 273q112 65 265 65h54v-167zM786 357q2 -7 -2 -11q-48 -37 -93 -111q-13 -20 -67 -128q-6 -11 -9 -11t-8 11l-28 62q-57 114 -138 184l26 34q5 6 6 6q2 -1 7 -5
q38 -27 79 -92q34 -55 60 -117q67 146 145 210q6 5 8 5q3 0 5 -7z" />
    <glyph glyph-name="uniE005" unicode="&#xe005;" horiz-adv-x="580" 
d="M573 152q0 -99 -61 -130q-57 -29 -275 -29q-33 0 -98 4t-98 4h-81q-50 0 -50 47v120h126q29 0 88 -4t89 -4q160 0 203 11q26 7 26 31q0 31 -110 182l84 180q66 -76 111.5 -194.5t45.5 -217.5zM553 -387l-76 -132l-187 103l-57 -99l-204 112l78 136l185 -106l59 102z
M390 832q2 -7 -2 -11q-48 -37 -93 -111q-13 -20 -67 -128q-6 -11 -9 -11t-8 11l-28 62q-57 114 -138 184l26 34q5 6 6 6q2 -1 7 -5q38 -27 79 -92q34 -55 60 -117q67 146 145 210q6 5 8 5q3 0 5 -7z" />
    <glyph glyph-name="uniE006" unicode="&#xe006;" horiz-adv-x="580" 
d="M573 152q0 -99 -61 -130q-57 -29 -275 -29q-33 0 -98 4t-98 4h-81q-50 0 -50 47v120h126q29 0 88 -4t89 -4q160 0 203 11q26 7 26 31q0 31 -110 182l84 180q66 -76 111.5 -194.5t45.5 -217.5zM553 -387l-76 -132l-187 103l-57 -99l-204 112l78 136l185 -106l59 102z
M356 802q2 -7 -2 -11q-48 -37 -93 -111q-13 -20 -67 -128q-6 -11 -9 -11t-8 11l-28 62q-57 114 -138 184l26 34q5 6 6 6q2 -1 7 -5q38 -27 79 -92q34 -55 60 -117q67 146 145 210q6 5 8 5q3 0 5 -7z" />
    <glyph glyph-name="aekurdiFinal" unicode="&#xe000;" horiz-adv-x="822" 
d="M853 2h-144q-112 0 -145 111q-5 17 -19 181q-80 -103 -101 -103q-74 0 -160 49q-93 54 -106 122q39 109 121 206q32 38 215 96l-5 84q33 41 88 112q16 -90 30 -456q6 -143 20 -185q18 -51 76 -51h130v-166zM542 372q-5 82 -16 218q-63 -63 -111 -89q-39 -21 -115 -41
q82 -103 193 -103q32 0 49 15z" />
    <glyph glyph-name="nonJoiner" unicode="&#x200c;" horiz-adv-x="0" 
 />
    <glyph glyph-name="glyph330" horiz-adv-x="0" 
 />
    <glyph glyph-name="uniF001" unicode="&#xf001;" horiz-adv-x="3393" 
d="M2725 2282h-11h-12h-11h-14l-95 -8v-30q72 -2 117 -42l12 -37v-209q-173 78 -303 -30q-147 -155 -76 -347q145 -273 367 -91q16 -9 15 -57h15q25 1 42 5h14h12l27 4l83 3v34q-66 -4 -95 46v30v30v30v76v11v11v118v26v22v26v23v20v22v15v69v41v15v15v15v15v65v11v45l-4 11
h-11h-12h-48q-6 -4 -12 -3zM424 2176q65 -2 102 -46v-487q5 -89 -7 -147q-47 -29 -95 -26v-39h16h14h12h75h12h67h12h117v39q-56 6 -94 30q-9 23 -12 41v19v16v64v41v15v64v12v45q20 -2 30 -11l34 -42l12 -11l11 -12l8 -7l8 -11q25 -28 37 -50l12 -7l7 -16q33 -27 45 -56
q7 -4 8 -7q18 -20 27 -34q13 -16 18 -30l8 -4l4 -8l7 -8l4 -7l7 -12q23 -30 35 -53h14h20h49h15h65h10h46v39q-55 5 -95 26q-29 23 -45 41q-26 22 -38 46l-15 18l-15 16l-7 7q-12 20 -27 35l-7 14l-12 8l-27 38l-7 7l-11 11l-5 12q-6 4 -7 7q-6 4 -7 8l-7 8l-9 11q-6 4 -7 7
l-19 23q-34 30 -48 60l14 12l19 18l11 16l34 30l12 15l7 12l12 11q15 13 22 26l12 12l11 11q13 17 26 26q4 6 8 8l4 8l4 7l7 8l11 7q23 34 49 53q57 24 106 23v37h-15h-15h-12h-67h-50h-14h-65h-11h-46v-37q50 1 83 -20q-1 -27 -10 -48l-4 -8l-7 -11l-9 -7q-21 -34 -44 -53
l-5 -12q-21 -18 -30 -34l-11 -11l-11 -8q-38 -47 -76 -71q-3 -8 -7 -8q-25 -27 -46 -42q-12 -6 -23 -7v14v20v15v68v15v15v16v63v11v46l12 34q49 24 94 23v37h-15h-15h-12h-75h-12h-67h-12h-117v-37zM2034 1896l-4 7q5 46 -7 80h-27q-12 -4 -23 -4h-19q-35 -4 -60 -3
q-29 -5 -53 -4v-38q59 1 83 -45l5 -16v-230q5 -94 -9 -155q-36 -21 -71 -18v-39h15h19h14h20h15h18h50h15h64h30h27v39q-63 -4 -102 30q-5 29 -4 53v48v16v67v16v16v14v64v12v44q49 69 122 76q-17 -96 74 -90q86 92 -18 151h-49q-80 -32 -125 -91zM1312 1979h-15h-12h-10
l-12 -3h-11l-76 -4v-38q58 -3 83 -45l4 -345l22 -63q39 -43 84 -61q137 -9 219 87l7 -4v-10q-1 -35 5 -62h41l15 5l64 4h30q14 3 27 3v34q-54 2 -80 42l-3 22v23v12v48v65v14v64v50v15v41v27v12v11q1 35 -4 60h-12l-41 -4h-15h-19l-8 -3h-30l-75 -4v-38q58 7 94 -27l7 -18
v-336q-42 -53 -94 -72q-165 -17 -136 181v15v12v75v12v67v12v117l-11 11h-22zM2711 1862v-325q-35 -37 -76 -53q-192 -29 -212 175q-24 207 125 290q116 10 163 -87zM1381 1261q65 -3 109 -33q13 -61 7 -106v-390q5 -89 -7 -147q-54 -36 -109 -30v-37h53h48h15h68h16h14h16
h64h12h44v37q-65 5 -109 34l-8 16v117v53v10v20v11v15v11v76v11v12v49v11v37v13v37q-5 90 8 147q55 31 109 26v39h-53h-48h-16h-67h-16h-14h-16h-64h-12h-44v-39zM1887 1058h-16h-11h-76v-50h12h11h76v-403l23 -60q106 -73 246 -5v38q-94 -26 -156 27l-3 7l-4 26l-4 23v18
v23v16v67v43v14v16v14v16v64v12v44h11h11h19h11h16h11h76v50h-11h-12h-18h-12h-15h-12h-75v30v11v12v117h-12h-11h-75v-170zM182 80q91 -386 491 -317q6 3 12 3l15 4l12 4l11 3l11 4l15 3l94 35l-3 30v11v50v10v46q-4 52 12 91q42 25 90 26v37h-26h-53h-11h-69h-49h-15h-64
h-12h-45v-37q74 3 125 -34l3 -12l4 -10v-140l-4 -41q-90 -56 -189 -46q-286 94 -219 476q63 325 355 223q103 -93 126 -220h41v16v22v15v16v64v19l-4 11v15v12v14v69q-48 7 -64 -34q-129 63 -253 53q-388 -96 -337 -491zM1455 0q48 -233 265 -246q230 22 261 239
q26 338 -298 336q-251 -70 -228 -329zM2900 253q-16 34 -9 64l-14 5h-19q-21 -8 -38 -5h-15q-16 -6 -31 -4l-75 -3v-38q59 1 86 -42q8 -34 5 -64v-430q5 -94 -8 -155q-42 -23 -83 -20v-37h19h64h15h20h48h15h64h30h27v37q-60 0 -101 31l-5 15l-4 16v11v14v12v20v10v16v11v76
q288 -117 382 170q58 304 -203 366h-20h-14h-12q-77 -27 -124 -76zM1179 234q-6 3 -7 8v11q3 41 -3 69h-27q-12 -5 -23 -5h-18q-36 -5 -61 -4q-29 -5 -52 -3v-38q50 -2 78 -38l5 -18v-265q5 -76 -8 -128q-38 -17 -72 -16v-37h15h19h15h19h16h18h49h16h64h10h46v37
q-58 -1 -99 27l-3 19l-4 18v118v53v11v19v11v16v11v76q50 69 125 79q-21 -96 75 -92q78 93 -18 152h-53q-77 -33 -122 -91zM2189 317h-11h-19q-36 -5 -60 -4q-31 -5 -53 -3v-38q62 0 86 -49l11 -374q48 -94 140 -91q111 6 175 88q14 -36 7 -69q14 -7 30 -7h16l14 4h42
q5 3 11 3h11l61 4v33q-51 4 -79 39q-5 21 -4 41v16v10v20v11v15v11v76v16v14v68v15v16v14v64v12v45l-19 5h-16q-14 -8 -30 -5h-18q-38 -5 -65 -4h-11q-21 -6 -46 -3v-38q55 4 91 -23l8 -15l4 -22v-322q-42 -53 -95 -67q-80 -22 -124 41v12q-11 20 -11 44v13v74v50v15v68v15
v15v16v63v11v46q-6 13 -20 16h-15q-5 -5 -11 -5zM1867 117q47 -212 -97 -313q-182 -32 -200 182q-32 227 120 301q171 3 177 -170zM3156 147q36 -141 -12 -257q-37 -86 -124 -94q-93 8 -129 87v23v14v69v41v16v14v16v14v65v11v46q47 46 103 60q133 -5 162 -125z" />
    <glyph glyph-name="uniF002" unicode="&#xf002;" horiz-adv-x="3393" 
d="M2725 2282h-11h-12h-11h-14l-95 -8v-30q72 -2 117 -42l12 -37v-209q-173 78 -303 -30q-147 -155 -76 -347q145 -273 367 -91q16 -9 15 -57h15q25 1 42 5h14h12l27 4l83 3v34q-66 -4 -95 46v30v30v30v76v11v11v118v26v22v26v23v20v22v15v69v41v15v15v15v15v65v11v45l-4 11
h-11h-12h-48q-6 -4 -12 -3zM424 2176q65 -2 102 -46v-487q5 -89 -7 -147q-47 -29 -95 -26v-39h16h14h12h75h12h67h12h117v39q-56 6 -94 30q-9 23 -12 41v19v16v64v41v15v64v12v45q20 -2 30 -11l34 -42l12 -11l11 -12l8 -7l8 -11q25 -28 37 -50l12 -7l7 -16q33 -27 45 -56
q7 -4 8 -7q18 -20 27 -34q13 -16 18 -30l8 -4l4 -8l7 -8l4 -7l7 -12q23 -30 35 -53h14h20h49h15h65h10h46v39q-55 5 -95 26q-29 23 -45 41q-26 22 -38 46l-15 18l-15 16l-7 7q-12 20 -27 35l-7 14l-12 8l-27 38l-7 7l-11 11l-5 12q-6 4 -7 7q-6 4 -7 8l-7 8l-9 11q-6 4 -7 7
l-19 23q-34 30 -48 60l14 12l19 18l11 16l34 30l12 15l7 12l12 11q15 13 22 26l12 12l11 11q13 17 26 26q4 6 8 8l4 8l4 7l7 8l11 7q23 34 49 53q57 24 106 23v37h-15h-15h-12h-67h-50h-14h-65h-11h-46v-37q50 1 83 -20q-1 -27 -10 -48l-4 -8l-7 -11l-9 -7q-21 -34 -44 -53
l-5 -12q-21 -18 -30 -34l-11 -11l-11 -8q-38 -47 -76 -71q-3 -8 -7 -8q-25 -27 -46 -42q-12 -6 -23 -7v14v20v15v68v15v15v16v63v11v46l12 34q49 24 94 23v37h-15h-15h-12h-75h-12h-67h-12h-117v-37zM2034 1896l-4 7q5 46 -7 80h-27q-12 -4 -23 -4h-19q-35 -4 -60 -3
q-29 -5 -53 -4v-38q59 1 83 -45l5 -16v-230q5 -94 -9 -155q-36 -21 -71 -18v-39h15h19h14h20h15h18h50h15h64h30h27v39q-63 -4 -102 30q-5 29 -4 53v48v16v67v16v16v14v64v12v44q49 69 122 76q-17 -96 74 -90q86 92 -18 151h-49q-80 -32 -125 -91zM1312 1979h-15h-12h-10
l-12 -3h-11l-76 -4v-38q58 -3 83 -45l4 -345l22 -63q39 -43 84 -61q137 -9 219 87l7 -4v-10q-1 -35 5 -62h41l15 5l64 4h30q14 3 27 3v34q-54 2 -80 42l-3 22v23v12v48v65v14v64v50v15v41v27v12v11q1 35 -4 60h-12l-41 -4h-15h-19l-8 -3h-30l-75 -4v-38q58 7 94 -27l7 -18
v-336q-42 -53 -94 -72q-165 -17 -136 181v15v12v75v12v67v12v117l-11 11h-22zM2711 1862v-325q-35 -37 -76 -53q-192 -29 -212 175q-24 207 125 290q116 10 163 -87zM1381 1261q65 -3 109 -33q13 -61 7 -106v-390q5 -89 -7 -147q-54 -36 -109 -30v-37h53h48h15h68h16h14h16
h64h12h44v37q-65 5 -109 34l-8 16v117v53v10v20v11v15v11v76v11v12v49v11v37v13v37q-5 90 8 147q55 31 109 26v39h-53h-48h-16h-67h-16h-14h-16h-64h-12h-44v-39zM1887 1058h-16h-11h-76v-50h12h11h76v-403l23 -60q106 -73 246 -5v38q-94 -26 -156 27l-3 7l-4 26l-4 23v18
v23v16v67v43v14v16v14v16v64v12v44h11h11h19h11h16h11h76v50h-11h-12h-18h-12h-15h-12h-75v30v11v12v117h-12h-11h-75v-170zM182 80q91 -386 491 -317q6 3 12 3l15 4l12 4l11 3l11 4l15 3l94 35l-3 30v11v50v10v46q-4 52 12 91q42 25 90 26v37h-26h-53h-11h-69h-49h-15h-64
h-12h-45v-37q74 3 125 -34l3 -12l4 -10v-140l-4 -41q-90 -56 -189 -46q-286 94 -219 476q63 325 355 223q103 -93 126 -220h41v16v22v15v16v64v19l-4 11v15v12v14v69q-48 7 -64 -34q-129 63 -253 53q-388 -96 -337 -491zM1455 0q48 -233 265 -246q230 22 261 239
q26 338 -298 336q-251 -70 -228 -329zM2900 253q-16 34 -9 64l-14 5h-19q-21 -8 -38 -5h-15q-16 -6 -31 -4l-75 -3v-38q59 1 86 -42q8 -34 5 -64v-430q5 -94 -8 -155q-42 -23 -83 -20v-37h19h64h15h20h48h15h64h30h27v37q-60 0 -101 31l-5 15l-4 16v11v14v12v20v10v16v11v76
q288 -117 382 170q58 304 -203 366h-20h-14h-12q-77 -27 -124 -76zM1179 234q-6 3 -7 8v11q3 41 -3 69h-27q-12 -5 -23 -5h-18q-36 -5 -61 -4q-29 -5 -52 -3v-38q50 -2 78 -38l5 -18v-265q5 -76 -8 -128q-38 -17 -72 -16v-37h15h19h15h19h16h18h49h16h64h10h46v37
q-58 -1 -99 27l-3 19l-4 18v118v53v11v19v11v16v11v76q50 69 125 79q-21 -96 75 -92q78 93 -18 152h-53q-77 -33 -122 -91zM2189 317h-11h-19q-36 -5 -60 -4q-31 -5 -53 -3v-38q62 0 86 -49l11 -374q48 -94 140 -91q111 6 175 88q14 -36 7 -69q14 -7 30 -7h16l14 4h42
q5 3 11 3h11l61 4v33q-51 4 -79 39q-5 21 -4 41v16v10v20v11v15v11v76v16v14v68v15v16v14v64v12v45l-19 5h-16q-14 -8 -30 -5h-18q-38 -5 -65 -4h-11q-21 -6 -46 -3v-38q55 4 91 -23l8 -15l4 -22v-322q-42 -53 -95 -67q-80 -22 -124 41v12q-11 20 -11 44v13v74v50v15v68v15
v15v16v63v11v46q-6 13 -20 16h-15q-5 -5 -11 -5zM1867 117q47 -212 -97 -313q-182 -32 -200 182q-32 227 120 301q171 3 177 -170zM3156 147q36 -141 -12 -257q-37 -86 -124 -94q-93 8 -129 87v23v14v69v41v16v14v16v14v65v11v46q47 46 103 60q133 -5 162 -125z" />
    <glyph glyph-name="uniF8FE.F8FE" unicode="&#xf8fe;" horiz-adv-x="3393" 
d="M2725 2282h-11h-12h-11h-14l-95 -8v-30q72 -2 117 -42l12 -37v-209q-173 78 -303 -30q-147 -155 -76 -347q145 -273 367 -91q16 -9 15 -57h15q25 1 42 5h14h12l27 4l83 3v34q-66 -4 -95 46v30v30v30v76v11v11v118v26v22v26v23v20v22v15v69v41v15v15v15v15v65v11v45l-4 11
h-11h-12h-48q-6 -4 -12 -3zM424 2176q65 -2 102 -46v-487q5 -89 -7 -147q-47 -29 -95 -26v-39h16h14h12h75h12h67h12h117v39q-56 6 -94 30q-9 23 -12 41v19v16v64v41v15v64v12v45q20 -2 30 -11l34 -42l12 -11l11 -12l8 -7l8 -11q25 -28 37 -50l12 -7l7 -16q33 -27 45 -56
q7 -4 8 -7q18 -20 27 -34q13 -16 18 -30l8 -4l4 -8l7 -8l4 -7l7 -12q23 -30 35 -53h14h20h49h15h65h10h46v39q-55 5 -95 26q-29 23 -45 41q-26 22 -38 46l-15 18l-15 16l-7 7q-12 20 -27 35l-7 14l-12 8l-27 38l-7 7l-11 11l-5 12q-6 4 -7 7q-6 4 -7 8l-7 8l-9 11q-6 4 -7 7
l-19 23q-34 30 -48 60l14 12l19 18l11 16l34 30l12 15l7 12l12 11q15 13 22 26l12 12l11 11q13 17 26 26q4 6 8 8l4 8l4 7l7 8l11 7q23 34 49 53q57 24 106 23v37h-15h-15h-12h-67h-50h-14h-65h-11h-46v-37q50 1 83 -20q-1 -27 -10 -48l-4 -8l-7 -11l-9 -7q-21 -34 -44 -53
l-5 -12q-21 -18 -30 -34l-11 -11l-11 -8q-38 -47 -76 -71q-3 -8 -7 -8q-25 -27 -46 -42q-12 -6 -23 -7v14v20v15v68v15v15v16v63v11v46l12 34q49 24 94 23v37h-15h-15h-12h-75h-12h-67h-12h-117v-37zM2034 1896l-4 7q5 46 -7 80h-27q-12 -4 -23 -4h-19q-35 -4 -60 -3
q-29 -5 -53 -4v-38q59 1 83 -45l5 -16v-230q5 -94 -9 -155q-36 -21 -71 -18v-39h15h19h14h20h15h18h50h15h64h30h27v39q-63 -4 -102 30q-5 29 -4 53v48v16v67v16v16v14v64v12v44q49 69 122 76q-17 -96 74 -90q86 92 -18 151h-49q-80 -32 -125 -91zM1312 1979h-15h-12h-10
l-12 -3h-11l-76 -4v-38q58 -3 83 -45l4 -345l22 -63q39 -43 84 -61q137 -9 219 87l7 -4v-10q-1 -35 5 -62h41l15 5l64 4h30q14 3 27 3v34q-54 2 -80 42l-3 22v23v12v48v65v14v64v50v15v41v27v12v11q1 35 -4 60h-12l-41 -4h-15h-19l-8 -3h-30l-75 -4v-38q58 7 94 -27l7 -18
v-336q-42 -53 -94 -72q-165 -17 -136 181v15v12v75v12v67v12v117l-11 11h-22zM2711 1862v-325q-35 -37 -76 -53q-192 -29 -212 175q-24 207 125 290q116 10 163 -87zM1381 1261q65 -3 109 -33q13 -61 7 -106v-390q5 -89 -7 -147q-54 -36 -109 -30v-37h53h48h15h68h16h14h16
h64h12h44v37q-65 5 -109 34l-8 16v117v53v10v20v11v15v11v76v11v12v49v11v37v13v37q-5 90 8 147q55 31 109 26v39h-53h-48h-16h-67h-16h-14h-16h-64h-12h-44v-39zM1887 1058h-16h-11h-76v-50h12h11h76v-403l23 -60q106 -73 246 -5v38q-94 -26 -156 27l-3 7l-4 26l-4 23v18
v23v16v67v43v14v16v14v16v64v12v44h11h11h19h11h16h11h76v50h-11h-12h-18h-12h-15h-12h-75v30v11v12v117h-12h-11h-75v-170zM182 80q91 -386 491 -317q6 3 12 3l15 4l12 4l11 3l11 4l15 3l94 35l-3 30v11v50v10v46q-4 52 12 91q42 25 90 26v37h-26h-53h-11h-69h-49h-15h-64
h-12h-45v-37q74 3 125 -34l3 -12l4 -10v-140l-4 -41q-90 -56 -189 -46q-286 94 -219 476q63 325 355 223q103 -93 126 -220h41v16v22v15v16v64v19l-4 11v15v12v14v69q-48 7 -64 -34q-129 63 -253 53q-388 -96 -337 -491zM1455 0q48 -233 265 -246q230 22 261 239
q26 338 -298 336q-251 -70 -228 -329zM2900 253q-16 34 -9 64l-14 5h-19q-21 -8 -38 -5h-15q-16 -6 -31 -4l-75 -3v-38q59 1 86 -42q8 -34 5 -64v-430q5 -94 -8 -155q-42 -23 -83 -20v-37h19h64h15h20h48h15h64h30h27v37q-60 0 -101 31l-5 15l-4 16v11v14v12v20v10v16v11v76
q288 -117 382 170q58 304 -203 366h-20h-14h-12q-77 -27 -124 -76zM1179 234q-6 3 -7 8v11q3 41 -3 69h-27q-12 -5 -23 -5h-18q-36 -5 -61 -4q-29 -5 -52 -3v-38q50 -2 78 -38l5 -18v-265q5 -76 -8 -128q-38 -17 -72 -16v-37h15h19h15h19h16h18h49h16h64h10h46v37
q-58 -1 -99 27l-3 19l-4 18v118v53v11v19v11v16v11v76q50 69 125 79q-21 -96 75 -92q78 93 -18 152h-53q-77 -33 -122 -91zM2189 317h-11h-19q-36 -5 -60 -4q-31 -5 -53 -3v-38q62 0 86 -49l11 -374q48 -94 140 -91q111 6 175 88q14 -36 7 -69q14 -7 30 -7h16l14 4h42
q5 3 11 3h11l61 4v33q-51 4 -79 39q-5 21 -4 41v16v10v20v11v15v11v76v16v14v68v15v16v14v64v12v45l-19 5h-16q-14 -8 -30 -5h-18q-38 -5 -65 -4h-11q-21 -6 -46 -3v-38q55 4 91 -23l8 -15l4 -22v-322q-42 -53 -95 -67q-80 -22 -124 41v12q-11 20 -11 44v13v74v50v15v68v15
v15v16v63v11v46q-6 13 -20 16h-15q-5 -5 -11 -5zM1867 117q47 -212 -97 -313q-182 -32 -200 182q-32 227 120 301q171 3 177 -170zM3156 147q36 -141 -12 -257q-37 -86 -124 -94q-93 8 -129 87v23v14v69v41v16v14v16v14v65v11v46q47 46 103 60q133 -5 162 -125z" />
    <glyph glyph-name="uniF8FF.F8FF" unicode="&#xf8ff;" horiz-adv-x="3393" 
d="M2725 2282h-11h-12h-11h-14l-95 -8v-30q72 -2 117 -42l12 -37v-209q-173 78 -303 -30q-147 -155 -76 -347q145 -273 367 -91q16 -9 15 -57h15q25 1 42 5h14h12l27 4l83 3v34q-66 -4 -95 46v30v30v30v76v11v11v118v26v22v26v23v20v22v15v69v41v15v15v15v15v65v11v45l-4 11
h-11h-12h-48q-6 -4 -12 -3zM424 2176q65 -2 102 -46v-487q5 -89 -7 -147q-47 -29 -95 -26v-39h16h14h12h75h12h67h12h117v39q-56 6 -94 30q-9 23 -12 41v19v16v64v41v15v64v12v45q20 -2 30 -11l34 -42l12 -11l11 -12l8 -7l8 -11q25 -28 37 -50l12 -7l7 -16q33 -27 45 -56
q7 -4 8 -7q18 -20 27 -34q13 -16 18 -30l8 -4l4 -8l7 -8l4 -7l7 -12q23 -30 35 -53h14h20h49h15h65h10h46v39q-55 5 -95 26q-29 23 -45 41q-26 22 -38 46l-15 18l-15 16l-7 7q-12 20 -27 35l-7 14l-12 8l-27 38l-7 7l-11 11l-5 12q-6 4 -7 7q-6 4 -7 8l-7 8l-9 11q-6 4 -7 7
l-19 23q-34 30 -48 60l14 12l19 18l11 16l34 30l12 15l7 12l12 11q15 13 22 26l12 12l11 11q13 17 26 26q4 6 8 8l4 8l4 7l7 8l11 7q23 34 49 53q57 24 106 23v37h-15h-15h-12h-67h-50h-14h-65h-11h-46v-37q50 1 83 -20q-1 -27 -10 -48l-4 -8l-7 -11l-9 -7q-21 -34 -44 -53
l-5 -12q-21 -18 -30 -34l-11 -11l-11 -8q-38 -47 -76 -71q-3 -8 -7 -8q-25 -27 -46 -42q-12 -6 -23 -7v14v20v15v68v15v15v16v63v11v46l12 34q49 24 94 23v37h-15h-15h-12h-75h-12h-67h-12h-117v-37zM2034 1896l-4 7q5 46 -7 80h-27q-12 -4 -23 -4h-19q-35 -4 -60 -3
q-29 -5 -53 -4v-38q59 1 83 -45l5 -16v-230q5 -94 -9 -155q-36 -21 -71 -18v-39h15h19h14h20h15h18h50h15h64h30h27v39q-63 -4 -102 30q-5 29 -4 53v48v16v67v16v16v14v64v12v44q49 69 122 76q-17 -96 74 -90q86 92 -18 151h-49q-80 -32 -125 -91zM1312 1979h-15h-12h-10
l-12 -3h-11l-76 -4v-38q58 -3 83 -45l4 -345l22 -63q39 -43 84 -61q137 -9 219 87l7 -4v-10q-1 -35 5 -62h41l15 5l64 4h30q14 3 27 3v34q-54 2 -80 42l-3 22v23v12v48v65v14v64v50v15v41v27v12v11q1 35 -4 60h-12l-41 -4h-15h-19l-8 -3h-30l-75 -4v-38q58 7 94 -27l7 -18
v-336q-42 -53 -94 -72q-165 -17 -136 181v15v12v75v12v67v12v117l-11 11h-22zM2711 1862v-325q-35 -37 -76 -53q-192 -29 -212 175q-24 207 125 290q116 10 163 -87zM1381 1261q65 -3 109 -33q13 -61 7 -106v-390q5 -89 -7 -147q-54 -36 -109 -30v-37h53h48h15h68h16h14h16
h64h12h44v37q-65 5 -109 34l-8 16v117v53v10v20v11v15v11v76v11v12v49v11v37v13v37q-5 90 8 147q55 31 109 26v39h-53h-48h-16h-67h-16h-14h-16h-64h-12h-44v-39zM1887 1058h-16h-11h-76v-50h12h11h76v-403l23 -60q106 -73 246 -5v38q-94 -26 -156 27l-3 7l-4 26l-4 23v18
v23v16v67v43v14v16v14v16v64v12v44h11h11h19h11h16h11h76v50h-11h-12h-18h-12h-15h-12h-75v30v11v12v117h-12h-11h-75v-170zM182 80q91 -386 491 -317q6 3 12 3l15 4l12 4l11 3l11 4l15 3l94 35l-3 30v11v50v10v46q-4 52 12 91q42 25 90 26v37h-26h-53h-11h-69h-49h-15h-64
h-12h-45v-37q74 3 125 -34l3 -12l4 -10v-140l-4 -41q-90 -56 -189 -46q-286 94 -219 476q63 325 355 223q103 -93 126 -220h41v16v22v15v16v64v19l-4 11v15v12v14v69q-48 7 -64 -34q-129 63 -253 53q-388 -96 -337 -491zM1455 0q48 -233 265 -246q230 22 261 239
q26 338 -298 336q-251 -70 -228 -329zM2900 253q-16 34 -9 64l-14 5h-19q-21 -8 -38 -5h-15q-16 -6 -31 -4l-75 -3v-38q59 1 86 -42q8 -34 5 -64v-430q5 -94 -8 -155q-42 -23 -83 -20v-37h19h64h15h20h48h15h64h30h27v37q-60 0 -101 31l-5 15l-4 16v11v14v12v20v10v16v11v76
q288 -117 382 170q58 304 -203 366h-20h-14h-12q-77 -27 -124 -76zM1179 234q-6 3 -7 8v11q3 41 -3 69h-27q-12 -5 -23 -5h-18q-36 -5 -61 -4q-29 -5 -52 -3v-38q50 -2 78 -38l5 -18v-265q5 -76 -8 -128q-38 -17 -72 -16v-37h15h19h15h19h16h18h49h16h64h10h46v37
q-58 -1 -99 27l-3 19l-4 18v118v53v11v19v11v16v11v76q50 69 125 79q-21 -96 75 -92q78 93 -18 152h-53q-77 -33 -122 -91zM2189 317h-11h-19q-36 -5 -60 -4q-31 -5 -53 -3v-38q62 0 86 -49l11 -374q48 -94 140 -91q111 6 175 88q14 -36 7 -69q14 -7 30 -7h16l14 4h42
q5 3 11 3h11l61 4v33q-51 4 -79 39q-5 21 -4 41v16v10v20v11v15v11v76v16v14v68v15v16v14v64v12v45l-19 5h-16q-14 -8 -30 -5h-18q-38 -5 -65 -4h-11q-21 -6 -46 -3v-38q55 4 91 -23l8 -15l4 -22v-322q-42 -53 -95 -67q-80 -22 -124 41v12q-11 20 -11 44v13v74v50v15v68v15
v15v16v63v11v46q-6 13 -20 16h-15q-5 -5 -11 -5zM1867 117q47 -212 -97 -313q-182 -32 -200 182q-32 227 120 301q171 3 177 -170zM3156 147q36 -141 -12 -257q-37 -86 -124 -94q-93 8 -129 87v23v14v69v41v16v14v16v14v65v11v46q47 46 103 60q133 -5 162 -125z" />
    </font>
</defs>
</svg>
